<?xml version="1.0" standalone="no"?>
<!DOCTYPE svg PUBLIC "-//W3C//DTD SVG 1.1//EN" "http://www.w3.org/Graphics/SVG/1.1/DTD/svg11.dtd" >
<svg xmlns="http://www.w3.org/2000/svg">
<metadata>Generated by IcoMoon</metadata>
<defs>
<font id="icomoon" horiz-adv-x="1024">
<font-face units-per-em="1024" ascent="960" descent="-64" />
<missing-glyph horiz-adv-x="1024" />
<glyph unicode="&#x20;" horiz-adv-x="512" d="" />
<glyph unicode="&#xe900;" glyph-name="pv-arrow-shape" horiz-adv-x="970" d="M763.055 100.896l-554.128 147.967c-46.974 12.784-85.47 48.939-98.778 98.575s1.936 100.199 35.668 134.252l0.547 0.516 405.771 405.364c16.295 16.533 37.749 29.469 62.566 36.123 74.444 19.96 150.971-24.165 171.008-98.567l0.002-0.008 148.349-553.3c19.883-74.452-24.303-150.945-98.746-170.904-24.822-6.655-49.876-6.185-72.989 0.157l0.729-0.174z" />
<glyph unicode="&#xe901;" glyph-name="pv-arrow-shape-4" horiz-adv-x="1050" d="M279.454 113.909l-0.337 534.721c0.174 45.393 23.45 88.79 64.946 112.748s90.717 22.417 129.519 0.24l0.597-0.368 462.871-267.677c18.815-10.689 35.636-26.889 47.611-47.631 35.926-62.225 14.654-141.777-47.502-177.776l-0.008-0.005-462.513-267.032c-62.256-35.874-141.812-14.53-177.742 47.703-11.981 20.751-17.599 43.429-17.461 65.776l0.019-0.698z" />
<glyph unicode="&#xe902;" d="M1024 448c0-282.77-229.23-512-512-512s-512 229.23-512 512c0 282.77 229.23 512 512 512s512-229.23 512-512z" />
<glyph unicode="&#xe903;" d="M353.664 263.68c-82.223 0.16-148.82 66.83-148.864 149.065v163.178c-0.008 0.232-0.013 0.506-0.013 0.78 0 13.121 10.636 23.757 23.757 23.757s23.757-10.636 23.757-23.757c0-0.274-0.005-0.547-0.014-0.819l0.001 0.040v-163.174c-0.024-0.831-0.038-1.809-0.038-2.791 0-56.017 45.411-101.427 101.427-101.427s101.427 45.411 101.427 101.427c0 0.981-0.014 1.959-0.042 2.934l0.003-0.143v163.174c-0.008 0.232-0.013 0.506-0.013 0.78 0 13.121 10.636 23.757 23.757 23.757s23.757-10.636 23.757-23.757c0-0.274-0.005-0.547-0.014-0.819l0.001 0.040v-163.174c-0.044-82.248-66.656-148.923-148.875-149.069h-0.014z" />
<glyph unicode="&#xe904;" d="M598.656 312.781c-13.121 0-23.757 10.636-23.757 23.757 0 0.009 0 0.018 0 0.027v-0.001 224.333c0.024 0.831 0.038 1.809 0.038 2.791 0 56.017-45.411 101.427-101.427 101.427s-101.427-45.411-101.427-101.427c0-0.981 0.014-1.959 0.042-2.934l-0.003 0.143v-144.384c0.016-0.329 0.026-0.715 0.026-1.103 0-13.121-10.636-23.757-23.757-23.757s-23.757 10.636-23.757 23.757c0 0.388 0.009 0.773 0.028 1.157l-0.002-0.054v144.384c-0.008 0.581-0.013 1.266-0.013 1.952 0 82.229 66.66 148.89 148.89 148.89s148.89-66.66 148.89-148.89c0-0.686-0.005-1.372-0.014-2.056l0.001 0.104v-224.358c0-13.121-10.636-23.757-23.757-23.757v0z" />
<glyph unicode="&#xe905;" d="M598.656 339.277c-13.121 0-23.757 10.636-23.757 23.757 0 0.009 0 0.018 0 0.027v-0.001 104.474c0 63.114 51.164 114.278 114.278 114.278s114.278-51.164 114.278-114.278v-60.211c0.008-0.232 0.013-0.506 0.013-0.78 0-13.121-10.636-23.757-23.757-23.757s-23.757 10.636-23.757 23.757c0 0.274 0.005 0.547 0.014 0.819l-0.001-0.040v60.211c0 36.887-29.903 66.79-66.79 66.79s-66.79-29.903-66.79-66.79v-104.474c0-0.008 0-0.017 0-0.026 0-13.112-10.622-23.742-23.73-23.757h-0.001z" />
<glyph unicode="&#xe906;" d="M1024 448c0-282.77-229.23-512-512-512s-512 229.23-512 512c0 282.77 229.23 512 512 512s512-229.23 512-512z" />
<glyph unicode="&#xe907;" d="M511.437 392.858v0c30.454 0 55.142 24.688 55.142 55.142v0 0c0 30.44-24.677 55.117-55.117 55.117-0.009 0-0.018 0-0.027 0h0.001c-30.44 0-55.117-24.677-55.117-55.117v0c0-0.008 0-0.017 0-0.026 0-30.44 24.677-55.117 55.117-55.117v0z" />
<glyph unicode="&#xe908;" d="M708.838 448.461c61.978 94.208 79.898 183.706 30.438 230.144-17.449 15.803-40.707 25.475-66.225 25.475-1.396 0-2.786-0.029-4.168-0.086l0.198 0.007v-36.122c1.142 0.074 2.476 0.116 3.819 0.116 15.977 0 30.568-5.933 41.691-15.715l-0.070 0.061c10.614-10.713 17.172-25.461 17.172-41.74 0-1.022-0.026-2.038-0.077-3.048l0.006 0.142c-2.386-40.614-14.907-77.864-35.046-109.834l0.563 0.957c-3.405-6.17-7.091-12.365-10.957-18.611-21.439 27.856-43.237 52.6-66.541 75.834l-0.019 0.019c-23.221 23.287-47.985 45-74.14 64.985l-1.764 1.294c35.183 24.997 78.057 41.439 124.487 45.45l0.953 0.066v36.147c-59.684-4.91-113.56-26.37-157.994-59.725l0.784 0.564c-43.877 32.703-97.915 54.141-156.646 59.085l-1.126 0.076v-36.25c40.544-2.91 77.596-15.63 109.491-35.774l-0.973 0.574q8.678-4.864 17.434-10.24c-27.809-21.356-52.505-43.114-75.667-66.4l-0.032-0.032c-23.383-23.328-45.188-48.209-65.258-74.486l-1.302-1.777c-11.803 18.306-22.671 39.376-31.477 61.49l-0.882 2.51c-10.547 27.827-24.243 78.669 2.355 107.059 10.82 10.678 25.692 17.272 42.105 17.272 1.471 0 2.929-0.053 4.374-0.157l-0.194 0.011v36.198c-1.282 0.061-2.783 0.097-4.294 0.097-26.758 0-50.947-11-68.291-28.726l-0.017-0.017c-45.184-48.154-27.571-134.886 33.741-227.354-61.44-93.389-79.36-181.453-33.459-227.405 18.112-17.636 42.883-28.512 70.193-28.512 1.324 0 2.642 0.026 3.954 0.076l-0.189-0.006c59.481 4.906 113.154 26.369 157.36 59.714l-0.765-0.553c43.917-32.799 98.030-54.297 156.854-59.239l1.124-0.076c1.284-0.063 2.789-0.098 4.303-0.098 25.209 0 48.109 9.885 65.036 25.991l-0.039-0.037c49.357 49.382 31.206 137.421-30.822 230.605zM430.029 530.406c24.885 25.014 51.628 48.12 80.027 69.114l1.893 1.337c30.404-22.287 57.225-45.398 82.122-70.423l0.028-0.028c25.131-24.957 48.359-51.749 69.495-80.187l1.34-1.886c-22.327-30.438-45.479-57.293-70.547-82.221l-0.032-0.032c-24.96-25.114-51.76-48.325-80.208-69.443l-1.891-1.341c-30.523 22.394-57.452 45.613-82.452 70.753l-0.031 0.031c-25.007 24.888-48.112 51.631-69.112 80.025l-1.339 1.895c22.381 30.492 45.574 57.395 70.68 82.379l0.027 0.027zM355.789 228.326c-1.113-0.068-2.413-0.107-3.723-0.107-17.32 0-33.055 6.788-44.689 17.848l0.028-0.026c-26.496 26.522-12.646 77.466-2.099 105.498 9.778 24.876 20.715 46.148 33.476 66.143l-0.912-1.529c21.345-27.802 43.069-52.489 66.311-75.655l0.019-0.019c23.356-23.37 48.27-45.175 74.576-65.25l1.789-1.31c-34.958-25.024-77.604-41.508-123.814-45.577l-0.96-0.068zM714.189 243.456c-10.412-9.607-24.378-15.499-39.721-15.499-1.418 0-2.824 0.050-4.216 0.149l0.187-0.011c-40.479 2.934-77.472 15.611-109.347 35.675l0.982-0.577c-5.99 3.328-11.981 6.886-18.074 10.624 27.856 21.438 52.6 43.236 75.834 66.541l0.019 0.019c23.387 23.292 45.19 48.123 65.266 74.347l1.294 1.761c12.065-18.503 23.113-39.768 32.025-62.115l0.871-2.474c12.8-34.202 22.451-80.845-5.12-108.493z" />
<glyph unicode="&#xe909;" d="M1024 448c0-282.77-229.23-512-512-512s-512 229.23-512 512c0 282.77 229.23 512 512 512s512-229.23 512-512z" />
<glyph unicode="&#xe90a;" d="M512 704c-141.385 0-256-114.615-256-256s114.615-256 256-256c141.385 0 256 114.615 256 256v0c0 141.385-114.615 256-256 256v0zM454.477 430.643c-1.809 1.726-3.484 3.547-5.035 5.472l-0.085 0.108c-0.12 1.216-0.189 2.629-0.189 4.058s0.068 2.841 0.202 4.235l-0.014-0.177c0.374 1.857 0.588 3.993 0.588 6.178 0 12.251-6.723 22.931-16.68 28.553l-0.164 0.085c-8.827 3.605-19.049 5.95-29.742 6.518l-0.236 0.010c-6.656 0.768-14.157 1.638-23.040 3.2s-15.078 25.677-14.003 42.982c1.178 3.994 12.006 12.646 17.229 16.87 10.046 6.394 17.895 15.445 22.66 26.169l0.15 0.378 4.326 1.178c4.71 1.254 11.187 2.944 19.354 5.683 4.214 1.299 9.059 2.047 14.078 2.047 9.284 0 17.969-2.559 25.391-7.010l-0.224 0.125c4.386-3.811 10.155-6.134 16.465-6.134 3.018 0 5.912 0.531 8.593 1.505l-0.175-0.056v-258.304c-1.062 0.484-1.974 1.093-2.773 1.825l0.008-0.007c-3.513 5.458-6.301 11.791-8.019 18.55l-0.096 0.445-0.154 0.512c-1.818 5.606-3.968 11.187-5.99 16.589-5.24 10.451-8.52 22.704-9.031 35.67l-0.005 0.17c1.182 3.538 1.863 7.612 1.863 11.845 0 12.499-5.944 23.61-15.159 30.66l-0.093 0.068zM530.048 393.318c22.303 7.715 38.033 28.536 38.033 53.030s-15.73 45.316-37.64 52.912l-0.393 0.119v80.563c65.571-8.98 115.548-64.631 115.548-131.955s-49.977-122.975-114.856-131.877l-0.693-0.078zM356.506 603.494c35.556 35.73 83.389 59.214 136.637 63.59l0.784 0.052v-56.627c-2.381-0.947-4.582-1.69-6.298-2.202-12.417 7.578-27.439 12.065-43.509 12.065-9.149 0-17.958-1.454-26.209-4.144l0.598 0.169c-7.014-2.355-12.646-3.84-17.024-5.12-11.853-3.123-25.242-6.733-29.594-25.011-3.322-3.301-6.853-6.403-10.569-9.278l-0.26-0.194c-15.342-9.225-26.511-24.063-30.73-41.607l-0.092-0.454c-2.125-28.16 7.885-75.187 43.725-81.459 9.907-1.818 18.355-2.714 25.139-3.482 5.683-0.666 10.598-1.229 14.259-1.997v-1.971c-0.134-1.557-0.211-3.37-0.211-5.2 0-4.962 0.562-9.793 1.625-14.432l-0.083 0.432c2.843-8.427 7.653-15.557 13.902-21.102l0.050-0.044c1.772-1.751 3.446-3.587 5.021-5.508l0.099-0.124c-0.971-5.029-1.526-10.813-1.526-16.726 0-15.959 4.044-30.973 11.163-44.073l-0.242 0.486c1.92-5.12 3.891-10.24 5.581-15.36l0.154-0.512c8.346-24.883 15.002-40.269 45.158-46.95v-47.718c-44.285 3.561-84.186 19.862-116.712 45.191l0.488-0.366c2.65 4.95 4.47 10.736 5.103 16.875l0.017 0.2c0.333 3.61 0.589 8.653 0.87 14.95 0.34 16.321 1.872 32.015 4.516 47.329l-0.266-1.864c1.134 4.694 1.784 10.083 1.784 15.623 0 29.533-18.474 54.751-44.497 64.729l-0.475 0.16c-19.541 8.702-36.374 18.803-51.797 30.648l0.597-0.44-1.254-1.562c3.091 56.163 26.965 106.218 63.991 143.070l0.009 0.009zM294.17 417.894c10.278-6.583 22.252-13.033 34.709-18.596l1.771-0.707c13.551-4.417 23.172-16.939 23.172-31.708 0-2.766-0.337-5.453-0.973-8.022l0.048 0.229c-2.86-15.281-4.705-33.090-5.113-51.254l-0.007-0.381c0-1.92-0.154-3.763-0.256-5.427-28.004 31.214-47.183 70.876-53.296 114.721l-0.131 1.144zM667.469 292.454c-35.55-35.739-83.387-59.226-136.639-63.59l-0.782-0.052v50.714c85.455 9.405 151.338 81.201 151.338 168.384s-65.883 158.979-150.578 168.316l-0.76 0.068v50.842c113.398-9.657 201.782-104.085 201.782-219.156 0-60.701-24.595-115.659-64.363-155.45l0.001 0.001z" />
<glyph unicode="&#xe90b;" d="M1024 448c0-282.77-229.23-512-512-512s-512 229.23-512 512c0 282.77 229.23 512 512 512s512-229.23 512-512z" />
<glyph unicode="&#xe90c;" d="M693.376 704h-363.674c-40.705 0-73.702-32.998-73.702-73.702v0-364.211c0-40.705 32.998-73.702 73.702-73.702v0h363.674c40.705 0 73.702 32.998 73.702 73.702v0 364.211c0 40.705-32.998 73.702-73.702 73.702v0zM730.957 630.298v-163.84h-201.626v201.421h164.045c20.755-0.015 37.577-16.828 37.606-37.578v-0.003zM329.702 667.878h163.507v-201.523h-201.114v163.84c0 0.015 0 0.033 0 0.051 0 20.775 16.834 37.617 37.605 37.632h0.001zM292.096 266.086v164.147h201.114v-201.728h-163.507c-20.755 0.015-37.577 16.828-37.606 37.578v0.003zM693.35 228.506h-164.019v201.728h201.626v-164.122c-0.029-20.744-16.837-37.552-37.578-37.581h-0.003z" />
<glyph unicode="&#xe90d;" d="M577.357 545.050h102.605c11.311 0 20.48 9.169 20.48 20.48s-9.169 20.48-20.48 20.48h-102.605c-11.311 0-20.48-9.169-20.48-20.48s9.169-20.48 20.48-20.48v0z" />
<glyph unicode="&#xe90e;" d="M342.63 545.050h30.72v-30.72c0-11.346 9.198-20.544 20.544-20.544s20.544 9.198 20.544 20.544v0 30.72h30.72c11.311 0 20.48 9.169 20.48 20.48s-9.169 20.48-20.48 20.48h-30.72v30.72c0 11.311-9.169 20.48-20.48 20.48s-20.48-9.169-20.48-20.48v-30.72h-30.72c-11.311 0-20.48-9.169-20.48-20.48s9.169-20.48 20.48-20.48v0z" />
<glyph unicode="&#xe90f;" d="M422.861 330.957l24.32 24.32c3.162 3.587 5.092 8.325 5.092 13.514 0 11.311-9.169 20.48-20.48 20.48-5.189 0-9.928-1.93-13.537-5.111l0.022 0.019-24.397-24.269-24.32 24.346c-3.587 3.162-8.325 5.092-13.514 5.092-11.311 0-20.48-9.169-20.48-20.48 0-5.189 1.93-9.928 5.111-13.537l-0.019 0.022 24.269-24.422-24.32-24.346c-3.162-3.587-5.092-8.325-5.092-13.514 0-11.311 9.169-20.48 20.48-20.48 5.189 0 9.928 1.93 13.537 5.111l-0.022-0.019 24.32 24.32 24.397-24.32c3.587-3.162 8.325-5.092 13.514-5.092 11.311 0 20.48 9.169 20.48 20.48 0 5.189-1.93 9.928-5.111 13.537l0.019-0.022z" />
<glyph unicode="&#xe910;" d="M679.962 385.024h-102.605c-11.311 0-20.48-9.169-20.48-20.48s9.169-20.48 20.48-20.48h102.605c11.311 0 20.48 9.169 20.48 20.48s-9.169 20.48-20.48 20.48v0z" />
<glyph unicode="&#xe911;" d="M679.962 317.875h-102.605c-11.311 0-20.48-9.169-20.48-20.48v0 0c0-11.311 9.169-20.48 20.48-20.48v0h102.605c11.311 0 20.48 9.169 20.48 20.48v0 0c0 11.311-9.169 20.48-20.48 20.48v0z" />
<glyph unicode="&#xe912;" d="M1024 448c0-282.77-229.23-512-512-512s-512 229.23-512 512c0 282.77 229.23 512 512 512s512-229.23 512-512z" />
<glyph unicode="&#xe913;" d="M642.765 502.579v0c0 30.44-24.677 55.117-55.117 55.117v0c-30.454 0-55.142-24.688-55.142-55.142v0 0c0.058-30.41 24.724-55.040 55.142-55.040 0 0 0 0 0 0v0c30.422 0 55.088 24.647 55.117 55.063v0.003z" />
<glyph unicode="&#xe914;" d="M512 704c-141.385 0-256-114.615-256-256s114.615-256 256-256c141.385 0 256 114.615 256 256v0c0 141.385-114.615 256-256 256v0zM667.494 292.506c-39.79-39.788-94.758-64.397-155.473-64.397-121.435 0-219.878 98.443-219.878 219.878s98.443 219.878 219.878 219.878c60.716 0 115.684-24.609 155.474-64.397v0c39.793-39.791 64.405-94.762 64.405-155.482s-24.612-115.691-64.405-155.481v0z" />
<glyph unicode="&#xe915;" d="M512 578.944c11.226 0 20.326 9.1 20.326 20.326s-9.1 20.326-20.326 20.326v0c-94.663-0.16-171.36-76.856-171.52-171.504v-0.016c0-11.226 9.1-20.326 20.326-20.326s20.326 9.1 20.326 20.326v0c0.131 72.223 58.644 130.736 130.855 130.867h0.013z" />
<glyph unicode="&#xe916;" d="M500.659 434.739c-45.667 0-82.688-37.021-82.688-82.688s37.021-82.688 82.688-82.688c45.667 0 82.688 37.021 82.688 82.688v0c0 45.667-37.021 82.688-82.688 82.688v0zM500.659 309.99c-23.23 0-42.061 18.831-42.061 42.061s18.831 42.061 42.061 42.061c23.23 0 42.061-18.831 42.061-42.061v0c0-23.23-18.831-42.061-42.061-42.061v0z" />
<glyph unicode="&#xe917;" d="M666.598 393.318c0-11.169-9.055-20.224-20.224-20.224s-20.224 9.055-20.224 20.224c0 11.169 9.055 20.224 20.224 20.224s20.224-9.055 20.224-20.224z" />
<glyph unicode="&#xe918;" d="M1024 448c0-282.77-229.23-512-512-512s-512 229.23-512 512c0 282.77 229.23 512 512 512s512-229.23 512-512z" />
<glyph unicode="&#xe919;" d="M339.738 460.16h343.501c11.158 0.015 20.198 9.064 20.198 20.224v0 139.059c0 11.169-9.055 20.224-20.224 20.224v0h-343.475c-11.169 0-20.224-9.055-20.224-20.224 0-0.009 0-0.018 0-0.027v0.001-139.085c0.029-11.147 9.073-20.173 20.224-20.173 0 0 0 0 0 0v0zM355.661 603.52h311.654v-107.213h-311.68z" />
<glyph unicode="&#xe91a;" d="M408.832 367.13h-68.864c-11.311 0-20.48-9.169-20.48-20.48s9.169-20.48 20.48-20.48h68.864c11.311 0 20.48 9.169 20.48 20.48s-9.169 20.48-20.48 20.48v0z" />
<glyph unicode="&#xe91b;" d="M408.858 299.955h-68.864c-11.311 0-20.48-9.169-20.48-20.48v0 0c0-11.311 9.169-20.48 20.48-20.48v0h68.864c11.311 0 20.48 9.169 20.48 20.48v0 0c0 11.311-9.169 20.48-20.48 20.48v0z" />
<glyph unicode="&#xe91c;" d="M408.858 433.741h-68.864c-11.311 0-20.48-9.169-20.48-20.48v0 0c0-11.311 9.169-20.48 20.48-20.48v0h68.864c11.311 0 20.48 9.169 20.48 20.48v0 0c0 11.311-9.169 20.48-20.48 20.48v0z" />
<glyph unicode="&#xe91d;" d="M693.376 704h-363.674c-40.705 0-73.702-32.998-73.702-73.702v0-364.211c0-40.705 32.998-73.702 73.702-73.702v0h363.674c40.705 0 73.702 32.998 73.702 73.702v0 364.211c0 40.705-32.998 73.702-73.702 73.702v0zM730.957 266.086c-0.029-20.744-16.837-37.552-37.578-37.581h-363.677c-20.755 0.015-37.577 16.828-37.606 37.578v364.214c0.029 20.753 16.852 37.566 37.605 37.581h363.675c20.744-0.029 37.552-16.837 37.581-37.578v-0.003z" />
<glyph unicode="&#xe91e;" d="M545.92 367.13h-68.864c-11.311 0-20.48-9.169-20.48-20.48s9.169-20.48 20.48-20.48h68.864c11.311 0 20.48 9.169 20.48 20.48s-9.169 20.48-20.48 20.48v0z" />
<glyph unicode="&#xe91f;" d="M545.894 299.955h-68.864c-11.311 0-20.48-9.169-20.48-20.48v0 0c0-11.311 9.169-20.48 20.48-20.48v0h68.864c11.311 0 20.48 9.169 20.48 20.48v0 0c0 11.311-9.169 20.48-20.48 20.48v0z" />
<glyph unicode="&#xe920;" d="M545.92 433.741h-68.864c-11.311 0-20.48-9.169-20.48-20.48v0 0c0-11.311 9.169-20.48 20.48-20.48v0h68.864c11.311 0 20.48 9.169 20.48 20.48v0 0c0 11.311-9.169 20.48-20.48 20.48v0z" />
<glyph unicode="&#xe921;" d="M682.982 367.13h-68.813c-11.311 0-20.48-9.169-20.48-20.48s9.169-20.48 20.48-20.48h68.864c11.311 0 20.48 9.169 20.48 20.48s-9.169 20.48-20.48 20.48v0z" />
<glyph unicode="&#xe922;" d="M682.957 299.955h-68.864c-11.311 0-20.48-9.169-20.48-20.48v0 0c0-11.311 9.169-20.48 20.48-20.48v0h68.864c11.311 0 20.48 9.169 20.48 20.48v0 0c0 11.311-9.169 20.48-20.48 20.48v0z" />
<glyph unicode="&#xe923;" d="M682.957 433.741h-68.864c-11.311 0-20.48-9.169-20.48-20.48v0 0c0-11.311 9.169-20.48 20.48-20.48v0h68.864c11.311 0 20.48 9.169 20.48 20.48v0 0c0 11.311-9.169 20.48-20.48 20.48v0z" />
<glyph unicode="&#xe924;" horiz-adv-x="1053" d="M278.595 113.353l1.804 534.021c0.298 100.118 109.314 163.059 196.172 113.26l463.377-265.449c86.791-49.622 86.362-174.792-0.825-225.129l-465.148-268.553c-87.216-50.354-195.803 11.875-195.38 111.85z" />
<glyph unicode="&#xe925;" horiz-adv-x="1053" d="M885.038 153.479l19.404 33.457c0.83 1.366 1.33 3.014 1.351 4.777v0.006c0 0.022 0 0.047 0 0.073 0 5.173-4.193 9.366-9.366 9.366-3.256 0-6.124-1.662-7.802-4.183l-0.022-0.034-0.976-1.717c-0.408-0.71-1.161-1.18-2.025-1.18-1.285 0-2.327 1.042-2.327 2.327 0 0.426 0.114 0.825 0.314 1.168l-0.006-0.011 0.468 0.817c0.051 0.169 0.114 0.315 0.191 0.452l-0.006-0.011c0.19 0.331 0.402 0.646 0.618 0.962l3.077 5.389c0.816 1.363 1.298 3.007 1.298 4.764 0 5.185-4.203 9.388-9.388 9.388-3.481 0-6.519-1.894-8.14-4.708l-0.024-0.045-2.774-4.539-1.717-2.949c-0.444-0.695-1.212-1.15-2.086-1.15-0.447 0-0.866 0.119-1.227 0.326l0.012-0.006c-0.671 0.416-1.111 1.149-1.111 1.984 0 0.45 0.128 0.87 0.349 1.226l-0.006-0.010 1.876 3.068 7.945 13.466c0.784 1.342 1.247 2.955 1.247 4.676 0 5.188-4.205 9.393-9.393 9.393-1.287 0-2.513-0.259-3.629-0.727l0.062 0.023c-2.030-0.891-3.659-2.381-4.702-4.245l-0.026-0.050-10.116-17.527c-0.144-0.238-0.321-0.44-0.529-0.605l-0.005-0.004c-0.023-0.031-0.048-0.058-0.075-0.084v0c-0.116-0.074-0.25-0.141-0.391-0.194l-0.015-0.005c-0.111-0.070-0.238-0.135-0.372-0.188l-0.016-0.006h-0.225c-0.149-0.035-0.321-0.056-0.497-0.056-0.060 0-0.119 0.002-0.177 0.007h0.008c-0.33 0.041-0.629 0.146-0.894 0.302l0.011-0.006c-0.244 0.149-0.45 0.334-0.618 0.549l-0.004 0.005c-0.039 0.042-0.074 0.088-0.104 0.137l-0.002 0.004c-0.045 0.048-0.088 0.1-0.126 0.155l-0.003 0.004c-0.185 0.327-0.295 0.717-0.295 1.134 0 0.067 0.003 0.133 0.008 0.199l-0.001-0.009c0.005 0.072 0.014 0.139 0.028 0.203l-0.002-0.010c0.043 0.29 0.133 0.551 0.265 0.787l-0.006-0.012 0.503 0.883 20.871 36.229c0.807 1.358 1.285 2.993 1.285 4.74 0 5.185-4.203 9.388-9.388 9.388-3.48 0-6.518-1.894-8.139-4.706l-0.024-0.045-31.99-55.458c-1.635-2.891-4.689-4.811-8.192-4.811-3.465 0-6.491 1.879-8.115 4.673l-0.024 0.045-7.181 12.477c-2.902 4.969-8.209 8.255-14.284 8.255-3.014 0-5.839-0.809-8.27-2.221l0.079 0.042c-0.428-0.257-0.71-0.718-0.71-1.245 0-0.029 0.001-0.059 0.003-0.087v0.004l42.708-74.332c16.283-28.347 57.151-28.436 73.563-0.154z" />
<glyph unicode="&#xe926;" horiz-adv-x="1771" d="M0.615 959.385h1770.18v-1022.771h-1770.18z" />
<glyph unicode="&#xe927;" horiz-adv-x="1771" d="M967.214 746.644l-218.977 58.514c-41.058 10.954-54.79 62.202-24.709 92.219l62.096 62.008h210.273l38.907-145.203c9.667-36.080-18.292-69.473-53.069-69.477-5.168 0.007-10.168 0.714-14.915 2.032l0.393-0.093z" />
<glyph unicode="&#xe928;" horiz-adv-x="1771" d="M192.277-20.911l-191.663 51.216v621.482l9.005 8.992c65.773 65.802 178.311 35.717 202.392-54.149l128.468-479.451c21.199-79.117-40.101-152.341-116.361-152.341-11.333 0.017-22.296 1.568-32.704 4.455l0.863-0.204z" />
<glyph unicode="&#xe929;" horiz-adv-x="1771" d="M1755.722 25.893l-580.18 310.791c-108.669 58.093-108.758 203.616-0.106 261.728l579.679 310.038q7.752 4.146 15.68 7.416v-897.162q-7.603 3.19-15.072 7.188z" />
<glyph unicode="&#xe92a;" glyph-name="Rectangle" horiz-adv-x="3873" d="M0 960h3873.391v-1024h-3873.391v1024z" />
<glyph unicode="&#xe92b;" glyph-name="Android" horiz-adv-x="833" d="M64.058 672.493c-35.369-0.022-64.036-28.689-64.058-64.056v-256.234c0-35.378 28.68-64.058 64.058-64.058s64.058 28.68 64.058 64.058v0 256.271c0 35.357-28.662 64.019-64.019 64.019-0.014 0-0.027 0-0.041 0h0.002zM768.542 672.493c-35.369-0.022-64.036-28.689-64.058-64.056v-256.234c0-35.378 28.68-64.058 64.058-64.058s64.058 28.68 64.058 64.058v256.271c-0.022 35.362-28.693 64.019-64.058 64.019v0zM160.164 160.184h64.058v-160.126c0-35.378 28.68-64.058 64.058-64.058s64.058 28.68 64.058 64.058v160.126h128.077v-160.126c0-35.378 28.68-64.058 64.058-64.058s64.058 28.68 64.058 64.058v160.126h64.058v480.339h-512.271v-480.339zM567.427 878.989l32.9 56.936c1.342 2.294 2.135 5.051 2.135 7.993 0 8.853-7.177 16.030-16.030 16.030-5.911 0-11.075-3.2-13.854-7.961l-0.041-0.076-32.048-55.543c-35.811 20.311-78.66 32.282-124.304 32.282s-88.492-11.971-125.576-32.944l1.272 0.662-32.087 55.543c-2.92 4.353-7.821 7.18-13.383 7.18-8.871 0-16.063-7.192-16.063-16.063 0-2.617 0.626-5.088 1.736-7.271l-0.042 0.091 32.9-57.014c-63.892-47.002-104.893-121.898-104.893-206.371 0-0.030 0-0.060 0-0.090v0.004h512.426c-0.003 84.577-41.065 159.563-104.339 206.114l-0.708 0.497zM320.135 768.6c-0.011 0-0.025 0-0.039 0-17.678 0-32.010 14.331-32.010 32.010s14.331 32.010 32.010 32.010c17.665 0 31.988-14.309 32.010-31.969v-0.002c0-0.012 0-0.025 0-0.039 0-17.665-14.309-31.988-31.969-32.010h-0.002zM512.232 768.6c-0.011 0-0.025 0-0.039 0-17.678 0-32.010 14.331-32.010 32.010s14.331 32.010 32.010 32.010c17.665 0 31.988-14.309 32.010-31.969v-0.002c0-0.012 0-0.025 0-0.039 0-17.665-14.309-31.988-31.969-32.010h-0.002z" />
<glyph unicode="&#xe92c;" glyph-name="Group-787" horiz-adv-x="832" d="M639.839 411.729h-138.131c-22.448 0-40.645 18.198-40.645 40.645s18.198 40.645 40.645 40.645v0h138.131c22.448 0 40.645-18.198 40.645-40.645s-18.198-40.645-40.645-40.645v0zM570.773 411.729h-378.558c-22.448 0-40.645 18.198-40.645 40.645s18.198 40.645 40.645 40.645v0h378.558c22.448 0 40.645-18.198 40.645-40.645s-18.198-40.645-40.645-40.645v0zM639.839 250.586h-138.131c-22.448 0-40.645 18.198-40.645 40.645s18.198 40.645 40.645 40.645v0h138.131c22.448 0 40.645-18.198 40.645-40.645s-18.198-40.645-40.645-40.645v0zM570.773 250.586h-378.558c-22.448 0-40.645 18.198-40.645 40.645s18.198 40.645 40.645 40.645v0h378.558c22.448 0 40.645-18.198 40.645-40.645s-18.198-40.645-40.645-40.645v0zM379.667 734.046h-187.451c-22.448 0-40.645 18.198-40.645 40.645s18.198 40.645 40.645 40.645h187.451c22.448 0 40.645-18.198 40.645-40.645s-18.198-40.645-40.645-40.645v0zM459.939 572.903h-267.723c-22.448 0-40.645 18.198-40.645 40.645s18.198 40.645 40.645 40.645v0h267.723c22.448 0 40.645-18.198 40.645-40.645s-18.198-40.645-40.645-40.645v0zM639.839 89.413h-138.131c-22.448 0-40.645 18.198-40.645 40.645s18.198 40.645 40.645 40.645v0h138.131c22.448 0 40.645-18.198 40.645-40.645s-18.198-40.645-40.645-40.645v0zM570.773 89.413h-378.558c-22.448 0-40.645 18.198-40.645 40.645s18.198 40.645 40.645 40.645v0h378.558c22.448 0 40.645-18.198 40.645-40.645s-18.198-40.645-40.645-40.645v0zM831.365 694.794h-193.294c-37.461 0.051-67.816 30.406-67.867 67.862v197.344h-81.291v-197.339c0-82.378 66.78-149.158 149.158-149.158v0h193.953v80.632zM831.365 694.794l-260.622 265.206h-421.585c-82.378 0-149.158-66.78-149.158-149.158v0-725.774c0-82.378 66.78-149.158 149.158-149.158h533.679c82.378 0 149.158 66.78 149.158 149.158v0 609.067zM750.734 85.068c0-0.009 0-0.019 0-0.030 0-37.5-30.374-67.906-67.862-67.957h-533.714c-37.493 0.051-67.867 30.457-67.867 67.957 0 0.011 0 0.021 0 0.032v-0.002 725.774c0.051 37.461 30.406 67.816 67.862 67.867h387.492l33.559-34.098 180.56-183.706z" />
<glyph unicode="&#xe92d;" glyph-name="01-Website-Elements-25" horiz-adv-x="832" d="M246.509 574.76v0c-0.009 0-0.020 0-0.031 0-11.836 0-22.489 5.069-29.905 13.154l-0.027 0.030-65.44 71.403c-6.211 7.11-9.998 16.476-9.998 26.726 0 22.489 18.231 40.72 40.72 40.72 11.45 0 21.797-4.726 29.195-12.334l0.009-0.009 35.507-38.713 93.426 101.876c7.464 8.098 18.123 13.153 29.963 13.153 22.481 0 40.705-18.224 40.705-40.705 0-10.64-4.083-20.327-10.767-27.58l0.026 0.028-123.329-134.386c-7.444-8.211-18.147-13.351-30.051-13.364h-0.002zM501.708 572.903c-22.367 0.096-40.461 18.25-40.461 40.63 0 11.148 4.49 21.247 11.76 28.589l138.098 138.128c7.354 7.354 17.513 11.902 28.735 11.902 22.443 0 40.637-18.194 40.637-40.637 0-11.222-4.548-21.381-11.902-28.735l-138.101-138.131c-7.314-7.26-17.39-11.746-28.514-11.746-0.088 0-0.177 0-0.265 0.001h0.014zM639.839 572.903c-0.039 0-0.086 0-0.132 0-11.242 0-21.414 4.583-28.75 11.983l-0.003 0.003-137.832 138.131c-7.354 7.354-11.902 17.513-11.902 28.735 0 22.443 18.194 40.637 40.637 40.637 11.222 0 21.381-4.548 28.735-11.902v0l138.101-138.281c7.356-7.353 11.905-17.513 11.905-28.735 0-22.432-18.179-40.619-40.609-40.63h-0.001zM639.839 411.729h-138.131c-22.448 0-40.645 18.198-40.645 40.645s18.198 40.645 40.645 40.645v0h138.131c22.448 0 40.645-18.198 40.645-40.645s-18.198-40.645-40.645-40.645v0zM330.287 411.729h-138.071c-22.448 0-40.645 18.198-40.645 40.645s18.198 40.645 40.645 40.645v0h138.071c22.448 0 40.645-18.198 40.645-40.645s-18.198-40.645-40.645-40.645v0zM639.839 250.586h-138.131c-22.448 0-40.645 18.198-40.645 40.645s18.198 40.645 40.645 40.645v0h138.131c22.448 0 40.645-18.198 40.645-40.645s-18.198-40.645-40.645-40.645v0zM330.287 250.586h-138.071c-22.448 0-40.645 18.198-40.645 40.645s18.198 40.645 40.645 40.645v0h138.071c22.448 0 40.645-18.198 40.645-40.645s-18.198-40.645-40.645-40.645v0zM639.839 89.413h-138.131c-22.448 0-40.645 18.198-40.645 40.645s18.198 40.645 40.645 40.645v0h138.131c22.448 0 40.645-18.198 40.645-40.645s-18.198-40.645-40.645-40.645v0zM330.287 89.413h-138.071c-22.448 0-40.645 18.198-40.645 40.645s18.198 40.645 40.645 40.645v0h138.071c22.448 0 40.645-18.198 40.645-40.645s-18.198-40.645-40.645-40.645v0zM682.836 960h-533.679c-82.378 0-149.158-66.78-149.158-149.158v0-725.774c0-82.378 66.78-149.158 149.158-149.158h533.679c82.378 0 149.158 66.78 149.158 149.158v0 725.774c0 82.378-66.78 149.158-149.158 149.158v0zM750.704 85.068c0-0.009 0-0.019 0-0.030 0-37.5-30.374-67.906-67.862-67.957h-533.684c-37.493 0.051-67.867 30.457-67.867 67.957 0 0.011 0 0.021 0 0.032v-0.002 725.774c0.051 37.461 30.406 67.816 67.862 67.867h533.684c37.461-0.051 67.816-30.406 67.867-67.862v-0.005z" />
<glyph unicode="&#xe92e;" d="M1017.909 743.863l-182.357-680.646c-31.765-118.657-171.898-163.924-266.463-94.608-7.619 5.572-14.337 11.366-20.564 17.649l-498.215 498.301c-93.236 93.408-50.669 252.874 76.904 286.825l680.56 182.572c127.573 34.208 244.343-82.562 210.135-210.092z" />
<glyph unicode="&#xe92f;" d="M529.436 499.649c-20.791-2.615-31.722 27.607-56.499 34.037s-75.146 8.573-75.661 8.573v3.215c0.514 0 51.441-2.272 76.347-8.573s36.651-36.309 55.256-33.951c4.002 0.294 7.463 2.378 9.618 5.446l0.027 0.041c5.187 7.802 0.9 26.964 1.243 24.049l3.515-2.1c0-0.557 3.944-14.746-2.1-23.748-2.629-3.877-6.838-6.512-11.68-6.982l-0.065-0.005z" />
<glyph unicode="&#xe930;" d="M326.331 477.701l-12.946 10.031 3.772 12.946 15.904-11.831z" />
<glyph unicode="&#xe931;" d="M543.625 553.104l-5.787-22.12 8.531-3.344 9.774 21.434z" />
<glyph unicode="&#xe932;" d="M594.937 275.41c0.9 0.257-3.858-0.9-5.744-1.157-64.601-8.231-167.182 153.122-167.182 153.122l-50.926 102.496-45.696-44.582s10.888-33.865 16.847-36.266c6.902-2.786 38.323-61.386 41.753-88.135s117.499-193.503 233.884-168.683c2.872 0.6 5.701 1.286 8.573 2.058-0.9 3.858-7.93 57.271-31.507 81.148z" />
<glyph unicode="&#xe933;" d="M708.75 459.653c-33.908-22.12-78.79-139.061-137.432-160.452 23.834-24.134 54.227-101.081 55.084-104.939 110.683 28.978 164.353 150.55 178.628 206.191 14.575 57.013-60.143 82.82-96.28 59.2z" />
<glyph unicode="&#xe934;" d="M427.884 704.040s-114.456-243.315-124.829-244.643-22.805-3.301-21.434-13.718 40.295-44.496 40.295-44.496l176.699 195.903z" />
<glyph unicode="&#xe935;" d="M321.873 401.183l176.699 195.903-70.688 106.954s-19.505-41.495-43.167-90.278c19.376-15.818 40.638-42.267 35.923-61.257-7.287-29.278-98.766-151.321-98.766-151.321z" />
<glyph unicode="&#xe936;" d="M607.798 639.31l-3.429-8.831c0.772-7.716 24.091-21.434 34.037-26.535 2.244 3.252 3.584 7.278 3.584 11.617s-1.34 8.365-3.629 11.686l0.045-0.069c-8.316 12.989-30.607 12.131-30.607 12.131z" />
<glyph unicode="&#xe937;" d="M202.488 935.094l-69.145-341.395s104.81 81.191 243.829 45.182c47.154-12.26 74.16-26.149 88.692-35.837 11.423-7.851 25.552-12.538 40.776-12.538 14.512 0 28.029 4.259 39.369 11.596l-0.284-0.172c9.311 6.060 17.017 13.78 22.881 22.807l0.182 0.299c18.69 30.007 20.962 86.763-10.888 109.783-13.417 9.731-31.722 10.202-47.411 13.546-41.41 8.573-104.167 22.72-143.991 36.952-68.416 24.349-157.666 111.498-164.010 149.778z" />
<glyph unicode="&#xe938;" d="M477.91 755.395c-10.117 2.272-20.662 4.673-31.336 7.245l-43.21-131.431c11.231-3.601 20.962-7.287 29.321-10.845z" />
<glyph unicode="&#xe939;" d="M557.686 734.818c-13.417 9.731-31.722 10.202-47.411 13.546l-5.701 1.2-44.582-142.919c2.058-1.243 3.944-2.486 5.658-3.601 11.423-7.851 25.552-12.538 40.776-12.538 14.512 0 28.029 4.259 39.369 11.596l-0.284-0.172c9.311 6.060 17.017 13.78 22.881 22.807l0.182 0.299c18.647 30.136 20.962 86.763-10.888 109.783z" />
<glyph unicode="&#xe93a;" d="M146.632 703.182l-18.562-124.315 32.451-4.287c3.558-0.472 8.959-1.157 21.777 54.141 6.944 30.007 14.275 69.016 20.876 111.198 0.814 5.316 1.672 10.717 2.486 16.161 2.401 16.075 4.587 31.85 6.516 47.154 3.901 30.393 6.773 58.342 8.573 81.448 2.443 35.58 1.2 48.997-0.943 54.184l-36.737 7.588z" />
<glyph unicode="&#xe93b;" d="M146.632 703.182l-18.562-124.315 32.451-4.287c3.558-0.472 8.959-1.157 21.777 54.141 6.944 30.007 14.275 69.016 20.876 111.198-10.931-18.476-22.12-33.694-31.122-37.809-3.422-1.603-7.431-2.539-11.658-2.539-5.058 0-9.803 1.339-13.9 3.683l0.137-0.072z" />
<glyph unicode="&#xe93c;" d="M130.256 593.656c3.558-0.472 8.959-1.157 21.176 50.283 7.502 31.465 15.304 73.56 22.034 118.485s11.574 87.449 13.589 119.6c3.344 52.598-2.058 53.284-5.616 53.713s-8.959 1.157-21.176-50.283c-7.502-31.465-15.304-73.56-22.034-118.356s-11.574-87.449-13.589-119.6c-3.344-52.684 2.058-53.413 5.616-53.841z" />
<glyph unicode="&#xe93d;" d="M134.8 766.111c-6.816-45.354-11.66-88.221-13.76-120.671-0.64-8.118-1.004-17.578-1.004-27.123 0-3.652 0.053-7.292 0.159-10.918l-0.012 0.532c0.472-9.517 0.214-28.035 7.888-29.021s12.86 17.147 16.075 25.978c3.301 9.29 6.782 21.442 9.636 33.833l0.48 2.476c7.588 31.593 15.475 74.203 22.291 119.557s11.66 88.178 13.718 120.671c0.648 8.037 1.018 17.398 1.018 26.846 0 3.75-0.058 7.486-0.174 11.207l0.013-0.545c-0.472 9.474-0.429 26.535-8.102 27.521s-12.603-15.432-15.904-24.477c-3.345-9.351-6.841-21.502-9.693-33.899l-0.467-2.41c-7.502-31.765-15.561-74.203-22.162-119.557zM141.273 765.254c13.975 93.451 31.765 168.34 39.695 167.182s3.044-77.59-10.931-171.040-31.722-168.34-39.695-167.182-3.044 77.633 11.060 171.040z" />
<glyph unicode="&#xe93e;" d="M764.949 493.776s-131.088-177.556-133.746-204.434c-13.846-138.418 130.831-322.447 130.831-322.447l201.476 25.72s-26.621 368.444-67.13 426.529-131.431 74.632-131.431 74.632z" />
<glyph unicode="&#xe93f;" d="M727.397 431.575c-22.077 9.045-24.091 22.505-40.938 63.401s-16.59 45.954-16.59 45.954 75.446 14.361 105.025 10.931 21.991-5.316 21.991-5.316-7.888-66.016 18.99-95.98-67.945-27.392-88.478-18.99z" />
<glyph unicode="&#xe940;" d="M787.84 764.054s-56.328 14.403-86.206-11.017-28.164-51.226-44.968-60.014-45.182-11.66-45.182-11.66 1.243-20.448 7.159-25.077c-4.713-2.989-8.782-6.404-12.349-10.287l-0.040-0.044c-3.729-4.801 0.986-10.545 3.687-13.675 1.715-2.015 18.904-24.177 28.25-28.421 15.432-7.030-21.434-28.078-39.052-25.72 0 0-2.486-15.304 2.915-19.462 0.55-2.752 0.865-5.915 0.865-9.152s-0.315-6.4-0.915-9.462l0.051 0.309c-1.715-10.803 2.1-18.433 27.264-21.434s59.285 1.457 80.376 13.117 48.311 17.961 65.673 16.075 106.611 63.658 104.253 101.21-61.386 125.387-91.779 114.713z" />
<glyph unicode="&#xe941;" d="M798.042 767.355c-6.516 0.472-13.16 0.9-20.105 1.886h-0.643c-12.86 1.629-23.234-24.134-7.588-54.27s15.775-53.798 3.687-62.629-48.697-75.704-40.424-101.081 15.561-38.581 53.97-33.822 76.218-6.516 101.51-19.59c22.077-11.403 28.935 76.261 29.75 85.734 3.515 40.895 6.216 81.791-14.961 118.785-21.441 37.296-60.119 62.576-104.873 64.973l-0.323 0.014z" />
<glyph unicode="&#xe942;" d="M576.59 656.628c-3.251 0.467-7.051 0.761-10.91 0.814l-0.064 0.001c-1.964-0.731-3.662-1.627-5.221-2.708l0.077 0.050c-8.959-8.102-33.737-82.348-25.72-97.309s26.278-10.502 26.278-10.502 17.104 107.983 15.561 109.654z" />
<glyph unicode="&#xe943;" d="M576.59 656.628l-27.006-91.307c-0.377-1.239-0.594-2.663-0.594-4.137 0-6.51 4.231-12.032 10.092-13.966l0.104-0.030c0.4-0.115 0.859-0.18 1.333-0.18 2.11 0 3.915 1.303 4.656 3.147l0.012 0.034c8.573 20.019 31.422 92.122 31.679 97.266 0.3 5.916-20.276 9.174-20.276 9.174z" />
<glyph unicode="&#xe944;" d="M360.025 496.091s-5.959 58.814-14.232 65.244-20.748 3.044-21.434-8.573c-0.078-0.869-0.123-1.88-0.123-2.902 0-5.803 1.441-11.269 3.985-16.060l-0.090 0.186s16.161-31.636 21.948-36.137c1.562-1.622 3.753-2.629 6.178-2.629 1.371 0 2.667 0.322 3.817 0.894l-0.050-0.022z" />
<glyph unicode="&#xe945;" d="M352.437 481.044s4.673 4.287 1.929 17.147-10.074 29.107-20.748 37.38-20.876-0.257-19.462-11.188 33.394-43.039 38.28-43.339z" />
<glyph unicode="&#xe946;" d="M311.456 494.247v1.586c-0.472 4.287-1.157 15.261 4.287 15.989 6.944 0.9 31.807-23.834 32.536-29.578s-28.378 9.817-30.007 9.602-3.086-5.53-4.887-4.287-1.929 6.687-1.929 6.687z" />
<glyph unicode="&#xe947;" d="M580.577 608.231l-9.988 3.387c-0.213 0.066-0.365 0.261-0.365 0.492 0 0.054 0.008 0.106 0.024 0.154l-0.001-0.004c0.080 0.216 0.284 0.367 0.524 0.367 0.058 0 0.114-0.009 0.166-0.025l-0.004 0.001 9.988-3.387c0.222-0.063 0.383-0.265 0.383-0.504 0-0.289-0.234-0.523-0.523-0.523-0.073 0-0.143 0.015-0.206 0.042l0.003-0.001z" />
<glyph unicode="&#xe948;" d="M580.234 610.118l-8.231 2.658c-0.222 0.063-0.383 0.265-0.383 0.504 0 0.289 0.234 0.523 0.523 0.523 0.073 0 0.143-0.015 0.206-0.042l-0.003 0.001 8.231-2.786c0.223-0.041 0.389-0.233 0.389-0.464 0-0.26-0.211-0.472-0.472-0.472-0.097 0-0.187 0.029-0.262 0.080l0.002-0.001z" />
<glyph unicode="&#xe949;" d="M579.548 612.132l-5.787 1.972c-0.213 0.066-0.365 0.261-0.365 0.492 0 0.054 0.008 0.106 0.024 0.154l-0.001-0.004c0.080 0.216 0.284 0.367 0.524 0.367 0.058 0 0.114-0.009 0.166-0.025l-0.004 0.001 5.787-1.972c0.213-0.066 0.365-0.261 0.365-0.492 0-0.054-0.008-0.106-0.024-0.154l0.001 0.004c-0.080-0.216-0.284-0.367-0.524-0.367-0.058 0-0.114 0.009-0.166 0.025l0.004-0.001z" />
<glyph unicode="&#xe94a;" d="M580.705 605.788l-11.703 3.944c-0.222 0.063-0.383 0.265-0.383 0.504 0 0.289 0.234 0.523 0.523 0.523 0.073 0 0.143-0.015 0.206-0.042l-0.003 0.001 11.703-3.944c0.196-0.089 0.329-0.283 0.329-0.508 0-0.064-0.011-0.125-0.030-0.181l0.001 0.004c-0.077-0.193-0.262-0.327-0.479-0.327-0.059 0-0.115 0.010-0.168 0.028l0.004-0.001z" />
<glyph unicode="&#xe94b;" d="M580.62 603.387l-12.86 4.287c-0.213 0.066-0.365 0.261-0.365 0.492 0 0.054 0.008 0.106 0.024 0.154l-0.001-0.004c0.080 0.216 0.284 0.367 0.524 0.367 0.058 0 0.114-0.009 0.166-0.025l-0.004 0.001 12.86-4.287c0.19-0.081 0.32-0.266 0.32-0.482 0-0.289-0.234-0.523-0.523-0.523-0.050 0-0.098 0.007-0.144 0.020l0.004-0.001z" />
<glyph unicode="&#xe94c;" d="M580.363 601.073l-13.932 4.715c-0.216 0.080-0.367 0.284-0.367 0.524 0 0.058 0.009 0.114 0.025 0.166l-0.001-0.004c0.059 0.198 0.239 0.34 0.453 0.34 0.069 0 0.134-0.015 0.193-0.041l-0.003 0.001 13.975-4.715c0.213-0.066 0.365-0.261 0.365-0.492 0-0.054-0.008-0.106-0.024-0.154l0.001 0.004c-0.095-0.213-0.305-0.359-0.549-0.359-0.048 0-0.095 0.006-0.141 0.017l0.004-0.001z" />
<glyph unicode="&#xe94d;" d="M579.977 598.801l-14.746 5.015c-0.198 0.059-0.34 0.239-0.34 0.453 0 0.069 0.015 0.134 0.041 0.193l-0.001-0.003c0.066 0.213 0.261 0.365 0.492 0.365 0.054 0 0.106-0.008 0.154-0.024l-0.004 0.001 14.746-4.887c0.213-0.066 0.365-0.261 0.365-0.492 0-0.054-0.008-0.106-0.024-0.154l0.001 0.004c-0.036-0.276-0.27-0.488-0.553-0.488-0.047 0-0.093 0.006-0.137 0.017l0.004-0.001z" />
<glyph unicode="&#xe94e;" d="M579.505 596.571l-15.004 5.058c-0.196 0.089-0.329 0.283-0.329 0.508 0 0.064 0.011 0.125 0.030 0.181l-0.001-0.004c0.059 0.198 0.239 0.34 0.453 0.34 0.069 0 0.134-0.015 0.193-0.041l-0.003 0.001 14.961-5.058c0.213-0.066 0.365-0.262 0.365-0.493 0-0.285-0.231-0.515-0.515-0.515-0.054 0-0.105 0.008-0.154 0.023l0.004-0.001z" />
<glyph unicode="&#xe94f;" d="M578.905 594.385l-15.132 5.101c-0.198 0.059-0.34 0.239-0.34 0.453 0 0.069 0.015 0.134 0.041 0.193l-0.001-0.003c0.066 0.213 0.261 0.365 0.492 0.365 0.054 0 0.106-0.008 0.154-0.024l-0.004 0.001 15.089-5.101c0.213-0.066 0.365-0.262 0.365-0.493 0-0.285-0.231-0.515-0.515-0.515-0.054 0-0.105 0.008-0.154 0.023l0.004-0.001z" />
<glyph unicode="&#xe950;" d="M578.219 592.199l-15.175 5.144c-0.198 0.059-0.34 0.239-0.34 0.453 0 0.069 0.015 0.134 0.041 0.193l-0.001-0.003c0.066 0.213 0.261 0.365 0.492 0.365 0.054 0 0.106-0.008 0.154-0.024l-0.004 0.001 15.132-5.144c0.213-0.066 0.365-0.262 0.365-0.493 0-0.285-0.231-0.515-0.515-0.515-0.054 0-0.105 0.008-0.154 0.023l0.004-0.001z" />
<glyph unicode="&#xe951;" d="M577.405 590.056l-15.089 5.101c-0.222 0.063-0.383 0.265-0.383 0.504 0 0.289 0.234 0.523 0.523 0.523 0.073 0 0.143-0.015 0.206-0.042l-0.003 0.001 15.089-5.101c0.198-0.059 0.34-0.239 0.34-0.453 0-0.069-0.015-0.134-0.041-0.193l0.001 0.003c-0.066-0.213-0.261-0.365-0.492-0.365-0.054 0-0.106 0.008-0.154 0.024l0.004-0.001z" />
<glyph unicode="&#xe952;" d="M576.504 587.955l-15.004 5.058c-0.213 0.066-0.365 0.261-0.365 0.492 0 0.054 0.008 0.106 0.024 0.154l-0.001-0.004c0.080 0.216 0.284 0.367 0.524 0.367 0.058 0 0.114-0.009 0.166-0.025l-0.004 0.001 14.918-5.058c0.208-0.067 0.357-0.26 0.357-0.486 0-0.282-0.228-0.51-0.51-0.51-0.037 0-0.073 0.004-0.107 0.011l0.003-0.001z" />
<glyph unicode="&#xe953;" d="M575.519 585.898l-14.489 4.887c-0.213 0.095-0.359 0.305-0.359 0.549 0 0.048 0.006 0.095 0.017 0.141l-0.001-0.004c0.089 0.196 0.283 0.329 0.508 0.329 0.064 0 0.125-0.011 0.181-0.030l-0.004 0.001 14.489-4.715c0.236-0.086 0.402-0.308 0.402-0.57 0-0.334-0.271-0.604-0.604-0.604-0.050 0-0.098 0.006-0.145 0.017l0.004-0.001z" />
<glyph unicode="&#xe954;" d="M574.361 583.883l-13.76 4.63c-0.222 0.063-0.383 0.265-0.383 0.504 0 0.289 0.234 0.523 0.523 0.523 0.073 0 0.143-0.015 0.206-0.042l-0.003 0.001 13.718-4.63c0.216-0.080 0.367-0.284 0.367-0.524 0-0.058-0.009-0.114-0.025-0.166l0.001 0.004c-0.059-0.198-0.239-0.34-0.453-0.34-0.069 0-0.134 0.015-0.193 0.041l0.003-0.001z" />
<glyph unicode="&#xe955;" d="M573.204 581.868l-12.86 4.287c-0.213 0.066-0.365 0.262-0.365 0.493 0 0.285 0.231 0.515 0.515 0.515 0.054 0 0.105-0.008 0.154-0.023l-0.004 0.001 12.86-4.287c0.213-0.066 0.365-0.262 0.365-0.493 0-0.285-0.231-0.515-0.515-0.515-0.054 0-0.105 0.008-0.154 0.023l0.004-0.001z" />
<glyph unicode="&#xe956;" d="M571.789 579.939l-11.36 3.858c-0.213 0.066-0.365 0.262-0.365 0.493 0 0.285 0.231 0.515 0.515 0.515 0.054 0 0.105-0.008 0.154-0.023l-0.004 0.001 11.403-3.858c0.19-0.081 0.32-0.266 0.32-0.482 0-0.289-0.234-0.523-0.523-0.523-0.050 0-0.098 0.007-0.144 0.020l0.004-0.001z" />
<glyph unicode="&#xe957;" d="M570.074 578.096l-9.517 3.215c-0.196 0.089-0.329 0.283-0.329 0.508 0 0.064 0.011 0.125 0.030 0.181l-0.001-0.004c0.059 0.198 0.239 0.34 0.453 0.34 0.069 0 0.134-0.015 0.193-0.041l-0.003 0.001 9.517-3.215c0.213-0.066 0.365-0.261 0.365-0.492 0-0.054-0.008-0.106-0.024-0.154l0.001 0.004c-0.095-0.213-0.305-0.359-0.549-0.359-0.048 0-0.095 0.006-0.141 0.017l0.004-0.001z" />
<glyph unicode="&#xe958;" d="M568.017 576.424l-6.773 2.058c-0.216 0.080-0.367 0.284-0.367 0.524 0 0.058 0.009 0.114 0.025 0.166l-0.001-0.004c0.103 0.192 0.302 0.32 0.531 0.32 0.055 0 0.108-0.007 0.159-0.021l-0.004 0.001 6.773-2.272c0.222-0.063 0.383-0.265 0.383-0.504 0-0.289-0.234-0.523-0.523-0.523-0.073 0-0.143 0.015-0.206 0.042l0.003-0.001z" />
<glyph unicode="&#xe959;" d="M749.56 633.394s30.264 17.747 40.038 6.987-15.947-60.014-41.367-56.070 1.329 49.083 1.329 49.083z" />
<glyph unicode="&#xe95a;" d="M667.126 242.445c-18.347-11.96-55.384-11.446-82.691-11.145-72.060 0.857-128.602 86.206-171.469 238.213 0 0-10.76 37.552-10.76 38.152-0.3 9.345-8.573 45.396-15.604 68.973s5.358 42.867-0.9 48.311c-5.101 4.287-17.961-7.159-14.661-21.905s8.231-38.838-9.902-36.866-31.122 88.049-31.122 88.907c-1.157 8.573-5.787 23.363-12.174 16.59-2.572-4.287 0-31.936 3.987-48.397 6.902-28.55 8.573-37.68 5.53-41.024-4.287-0.257-9.174 18.090-21.434 58.299-13.546 44.11-44.153 68.588-9.174-19.29 9.602-24.177 14.103-44.41 10.974-44.582-9.517-0.557-14.575 15.647-21.134 30.35s-22.248 45.396-28.035 30.007c-0.343-3.601 9.988-22.462 17.533-36.223 16.29-29.75 20.276-38.581 17.404-42.867-16.375-0.986-29.278 33.608-39.867 49.426-1.629 2.401-6.001 0.943-5.487-1.8 2.143-11.446 10.502-32.836 27.306-56.070s50.455-56.756 72.874-77.161c2.143-95.851 26.063-278.637 172.755-330.592 82.905-29.321 155.694-5.015 217.337 29.364-5.873 15.475-52.598 61.772-71.288 71.331z" />
<glyph unicode="&#xe95b;" d="M868.645 425.96c-51.098 21.434-111.455-47.626-143.777-92.85-20.362-28.592-41.453-61.986-72.874-82.519 18.433-9.602 83.42-71.245 89.035-86.849 88.307 49.297 147.978 134.303 159.209 169.797 19.076 60.228 19.462 71.074-31.593 92.422z" />
<glyph unicode="&#xe95c;" d="M646.85 731.389s-5.273-46.468 134.646-50.926l16.547 86.892s-102.753 67.473-151.193-35.966z" />
<glyph unicode="&#xe95d;" d="M6.057 152.122l95.94 358.168 23.406 87.624 34.767 129.678 28.25 105.114c31.766 118.703 171.903 163.887 266.472 94.611 7.607-5.616 14.324-11.422 20.57-17.698l498.227-498.355c93.411-93.368 50.671-252.925-76.949-287.22l-680.583-182.063c-127.534-34.166-244.309 82.565-210.099 210.142z" />
<glyph unicode="&#xe95e;" d="M273.172 628.051s0.557-142.496 24.607-205.512c0 0 105.114-57.487 130.621-24.992l-44.198 165.044z" />
<glyph unicode="&#xe95f;" d="M273.172 628.051l111.030-65.46 22.42-83.723c-39.611-9.774-93.539 38.582-118.446 107.172-4.553 12.379-9.549 22.894-15.36 32.875l0.527-0.981c-0.129 6.473-0.171 10.117-0.171 10.117z" />
<glyph unicode="&#xe960;" d="M391.533 796.224c2.381-1.649 4.396-3.623 6.038-5.887l0.050-0.072c10.546-13.547 25.721-46.641 27.65-89.295 2.229-51.957 11.274-160.329-25.721-171.475s-101.942 25.078-123.762 84.108-56.072 81.622-47.841 134.35 163.587 48.27 163.587 48.27z" />
<glyph unicode="&#xe961;" d="M288.305 692.054s4.801 31.851 13.718 49.685 1.458 28.465 1.458 28.465 49.128 5.23 73.091-25.121 55.043-76.135 100.013-38.325 14.661 107.172 2.615 103.656-26.279 3.815-26.279 3.815-62.545 52.857-85.737 46.041-9.645 21.692-50.714 16.59-61.045-51.828-61.045-51.828-23.106 15.433-47.156-13.932 13.289-104.771 32.152-129.764 33.052-70.348 33.052-70.348 37.81 2.572 14.833 81.065z" />
<glyph unicode="&#xe962;" d="M263.398 699.213c-0.015 0.261-0.024 0.567-0.024 0.875 0 8.926 7.236 16.161 16.161 16.161 4.814 0 9.137-2.105 12.098-5.445l0.015-0.017c9.045-9.174 16.462-21.434 9.903-34.638-12.861-26.064-36.781-8.574-38.067 18.005-0.086 1.8-0.129 3.472-0.086 5.059z" />
<glyph unicode="&#xe963;" d="M395.476 608.845l21.434 6.216-16.29 55.215c-0.166 1.009-1.031 1.769-2.074 1.769-1.16 0-2.101-0.94-2.101-2.101 0-0.315 0.069-0.613 0.193-0.882l-0.005 0.013 15.004-50.885-17.147-5.016c-0.872-0.285-1.49-1.091-1.49-2.041 0-0.252 0.043-0.493 0.123-0.717l-0.005 0.015c0.265-0.931 1.107-1.601 2.106-1.601 0.089 0 0.176 0.005 0.262 0.016l-0.010-0.001z" />
<glyph unicode="&#xe964;" d="M362.596 666.675c1.843-6.216 7.202-10.117 11.96-8.574 3.676 1.773 6.167 5.47 6.167 9.749 0 1.478-0.297 2.886-0.835 4.168l0.026-0.071c-1.8 6.259-7.245 10.117-12.003 8.574-3.653-1.787-6.125-5.476-6.125-9.743 0-1.48 0.297-2.89 0.836-4.175l-0.026 0.071z" />
<glyph unicode="&#xe965;" d="M408.723 673.106c1.715-5.744 6.387-9.431 10.46-8.231s5.959 6.816 4.287 12.561-6.559 9.431-10.46 8.188-5.959-6.773-4.287-12.518z" />
<glyph unicode="&#xe966;" d="M393.505 563.576c2.573 0.712 4.824 1.708 6.887 2.98l-0.113-0.065c0.538 0.394 0.884 1.024 0.884 1.735 0 0.422-0.122 0.815-0.332 1.146l0.005-0.009c-0.36 0.583-0.995 0.965-1.72 0.965-0.378 0-0.731-0.104-1.033-0.285l0.009 0.005c-0.729-0.514-17.405-11.274-39.053 5.616-0.321 0.277-0.742 0.446-1.202 0.446-0.642 0-1.207-0.328-1.537-0.825l-0.004-0.007c-0.227-0.344-0.363-0.766-0.363-1.219 0-0.701 0.324-1.327 0.83-1.736l0.004-0.003c15.476-12.046 29.022-11.017 36.738-8.745z" />
<glyph unicode="&#xe967;" d="M739.369 432.312s-27.693 9.645-45.569 15.604 22.635-63.36 22.635-63.36 28.208-11.232 9.131-49.342-81.451-126.548-56.287-151.541 61.645-33.566 89.638-5.616c21.434 21.434 25.721 125.862 29.537 185.621 0.086 1.231 0.135 2.668 0.135 4.117 0 23.232-12.623 43.515-31.384 54.366l-0.302 0.161z" />
<glyph unicode="&#xe968;" d="M508.864 369.295s79.821-161.101 114.288-154.756 50.971 38.11 50.971 38.11l90.024-72.877s-15.39-46.127-67.304-97.998-125.862-44.412-157.542-17.49-30.437 305.011-30.437 305.011z" />
<glyph unicode="&#xe969;" d="M296.107 476.767s-85.737-63.531-85.737-90.239 90.496-331.546 98.598-389.505-68.29-219.831-68.29-219.831 249.239-71.462 339.734-44.455c0 0 11.103 66.661 0 222.231s-71.419 414.326-71.419 414.326-108.072 129.206-212.886 107.472z" />
<glyph unicode="&#xe96a;" d="M580.283-267.262c32.923 184.85-20.105 458.695-71.419 636.557 31.809-183.435 84.923-453.808 71.419-636.557z" />
<glyph unicode="&#xe96b;" d="M335.803 409.806s-3.172 45.827-39.696 66.961-119.046-10.631-138.080-118.575 74.892-331.203 153.984-331.203 182.063 41.84 199.211 89.124c0 0-30.008 136.923-57.187 136.923s-94.311-80.55-94.311-80.55c-36.224 19.034-19.505 168.431-23.921 237.321z" />
<glyph unicode="&#xe96c;" d="M693.2 510.419s-5.23-69.404 1.586-83.937c3.858-8.231 12.046-12.003 13.889 0 1.458 9.217-2.958 31.68-2.958 44.626 0 29.751-12.518 39.311-12.518 39.311z" />
<glyph unicode="&#xe96d;" d="M717.592 493.743s-20.234-77.978-8.574-77.978 33.695 70.176 8.574 77.978z" />
<glyph unicode="&#xe96e;" d="M782.495 701.699s-30.222-5.316-41.797 1.329-4.673 6.559-18.991 14.747-180.048-22.506-197.539-35.152-7.202-33.395-18.176-40.64-65.246-18.262-78.021 18.348 2.401 45.827 32.452 68.161c27.736 20.62 272.13 49.128 291.507 42.869s15.861-30.951 16.676-35.152 23.621-9.26 23.621-9.26z" />
<glyph unicode="&#xe96f;" d="M725.565 734.279c-0.895-6.104-2.392-11.592-4.462-16.789l0.175 0.499h0.386c1.672-0.943 3.087-1.8 4.287-2.529 2.298 5.342 4.093 11.56 5.089 18.042l0.055 0.435c0.49 3.128 0.77 6.735 0.77 10.408 0 9.975-2.065 19.468-5.791 28.075l0.177-0.458-5.873-0.343c3.778-7.978 5.985-17.333 5.985-27.203 0-3.578-0.29-7.089-0.848-10.51l0.050 0.374z" />
<glyph unicode="&#xe970;" d="M648.402 717.603c-0.3-1.929-0.643-3.772-1.029-5.573l5.702 0.9c0.257 1.329 0.514 2.701 0.729 4.287 0.506 3.158 0.795 6.798 0.795 10.506 0 7.406-1.153 14.542-3.289 21.24l0.136-0.495c-1.957 6.139-4.414 11.461-7.431 16.403l0.186-0.328-5.959-0.729c6.833-10.227 10.904-22.803 10.904-36.33 0-3.488-0.271-6.912-0.792-10.253l0.048 0.371z" />
<glyph unicode="&#xe971;" d="M568.752 705.643c-0.513-3.644-1.232-6.86-2.178-9.978l0.12 0.461 5.959 1.372c0.532 1.986 1.056 4.555 1.448 7.166l0.052 0.422c0.515 3.172 0.809 6.828 0.809 10.552 0 7.391-1.158 14.511-3.303 21.189l0.136-0.49c-2.091 6.542-4.752 12.219-8.032 17.469l0.187-0.322-5.873-0.943c7.147-10.376 11.415-23.216 11.415-37.053 0-3.475-0.269-6.886-0.788-10.216l0.047 0.37z" />
<glyph unicode="&#xe972;" d="M784.681 744.353c14.19 13.118 35.581 17.919 54.057 22.978 29.279 8.165 63.542 14.065 98.758 16.499l1.641 0.091c20.148 1.5 38.067-18.176 37.639-35.41-0.231-8.202-3.253-15.656-8.146-21.488l0.044 0.054c-6.164-6.941-14.070-12.204-23.036-15.114l-0.371-0.104c-19.991-7.931-43.979-15.075-68.707-20.199l-2.926-0.507c-16.497-3.852-36.283-6.891-56.476-8.483l-1.439-0.091c-16.204-0.943-33.909 3.001-41.711 16.376-8.574 14.275-3.087 31.594 9.26 43.898z" />
<glyph unicode="&#xe973;" d="M933.136 715.417c-28.422 0.943-32.923 45.441-18.219 59.759-6.173-9.774-5.487-23.878-3.387-34.295 2.401-12.046 8.702-22.035 21.606-25.464z" />
<glyph unicode="&#xe974;" d="M894.897 710.016c-0.015 0.113-0.023 0.244-0.023 0.376 0 1.523 1.118 2.784 2.578 3.008l0.017 0.002c0.244 0.075 0.524 0.118 0.815 0.118 1.339 0 2.464-0.916 2.782-2.156l0.004-0.020c0.012-0.104 0.020-0.225 0.020-0.347 0-1.515-1.091-2.774-2.53-3.036l-0.019-0.003c-0.247-0.075-0.53-0.119-0.824-0.119-1.347 0-2.481 0.914-2.815 2.156l-0.005 0.020z" />
<glyph unicode="&#xe975;" d="M859.401 725.148c-0.011 0.086-0.017 0.185-0.017 0.285 0 1.219 0.893 2.23 2.061 2.414l0.014 0.002c0.202 0.064 0.434 0.101 0.675 0.101 1.070 0 1.971-0.727 2.236-1.714l0.004-0.016c0.014-0.098 0.022-0.212 0.022-0.327 0-1.221-0.896-2.233-2.066-2.415l-0.014-0.002c-0.19-0.055-0.409-0.087-0.635-0.087-1.089 0-2.006 0.739-2.277 1.742l-0.004 0.017z" />
<glyph unicode="&#xe976;" d="M841.654 696.512c-0.214 1.157 0.257 2.272 1.072 2.444s1.715-0.643 1.929-1.8c0.067-0.19 0.106-0.41 0.106-0.638 0-0.802-0.478-1.492-1.165-1.8l-0.012-0.005c-0.857-0.214-1.715 0.6-1.929 1.8z" />
<glyph unicode="&#xe977;" d="M221.944 469.822v0c-1.314-0.17-2.833-0.266-4.375-0.266-18.267 0-33.361 13.586-35.729 31.204l-0.020 0.185-9.26 75.192c-0.173 1.323-0.271 2.854-0.271 4.407 0 18.252 13.595 33.328 31.211 35.655l0.183 0.020c1.314 0.17 2.833 0.267 4.376 0.267 18.243 0 33.318-13.567 35.686-31.161l0.020-0.185 9.26-75.277c0.17-1.312 0.267-2.83 0.267-4.371 0-18.235-13.57-33.3-31.162-35.649l-0.184-0.020z" />
<glyph unicode="&#xe978;" d="M224.635 651.596l75.611 9.528c32.364 4.078 61.906-18.852 65.985-51.216l3.676-29.173c4.078-32.364-18.852-61.906-51.216-65.985l-75.611-9.528c-32.364-4.078-61.906 18.852-65.985 51.216l-3.676 29.173c-4.078 32.364 18.852 61.906 51.216 65.985z" />
<glyph unicode="&#xe979;" d="M373.742 683.223c23.566 5.151 50.637 8.102 78.396 8.102 0.034 0 0.068 0 0.102 0h-0.006c17.626-0.104 34.764-1.925 51.335-5.304l-1.693 0.288c28.851-5.763 53.297-12.441 77.065-20.58l-4.188 1.247c7.709-2.255 14.362-4.997 20.644-8.342l-0.582 0.283c15.261-8.96 33.095-30.265 39.311-60.016s12.861-119.346-3.601-132.893-79.136-33.738-99.541-37.51-102.885 3.687-102.885 3.687-9.431 31.809-43.898 25.421-37.767-24.392-37.767-24.392-48.527 0-72.877 4.716-44.412 16.59-47.627 32.152c-7.845 36.545-14.59 81.75-18.739 127.703l-0.338 4.633c-0.772 8.574-1.372 17.405 3.772 24.564 6.645 9.388 19.934 12.089 30.78 15.776 14.704 5.016 29.279 10.331 43.94 15.39 23.899 8.954 53.488 17.592 83.823 24.238l4.572 0.84z" />
<glyph unicode="&#xe97a;" d="M283.761 549.129l11.36 2.101c2.472 0.383 4.341 2.495 4.341 5.044 0 0.262-0.020 0.52-0.058 0.771l0.004-0.028-10.246 50.242c-0.649 2.282-2.714 3.924-5.163 3.924-0.45 0-0.887-0.055-1.304-0.16l0.037 0.008-11.36-2.101c-2.472-0.404-4.336-2.525-4.336-5.080 0-0.249 0.018-0.495 0.052-0.734l-0.003 0.027 10.246-50.414c0.718-2.197 2.749-3.756 5.145-3.756 0.456 0 0.9 0.057 1.323 0.163l-0.037-0.008z" />
<glyph unicode="&#xe97b;" d="M260.526 559.375l-14.575-2.701 10.246-49.513 15.047 0.3z" />
<glyph unicode="&#xe97c;" d="M641.2 594.913l-41.883-0.857s-45.869-9.131-48.656-47.156c-3.087-42.869 12.861-70.262 32.923-73.948 13.31-2.026 28.667-3.183 44.294-3.183 2.031 0 4.058 0.020 6.079 0.058l-0.303-0.005z" />
<glyph unicode="&#xe97d;" d="M517.738 661.317c-32.966 19.377-151.541 13.632-186.264 11.489q13.632 3.944 27.436 7.202c54.1 2.272 135.122 2.186 162.515-13.932 38.282-22.463 60.016-53.543 67.475-89.21 4.844-23.363 11.575-90.024 14.918-124.962-2.058-0.857-4.287-1.715-6.259-2.529-3.258 34.295-10.16 102.885-15.047 126.334-7.416 35.924-29.194 64.732-64.775 85.609z" />
<glyph unicode="&#xe97e;" d="M472.64 639.711c-36.781 21.434-192.609 11.875-208.599 10.803 6.559 2.315 13.075 4.673 19.677 6.902 55.343 2.915 161.786 5.187 192.609-12.861 38.239-22.463 60.016-53.543 67.432-89.21 4.63-22.249 10.932-83.723 14.447-119.689l-6.302-1.886c-3.472 35.667-9.86 98.126-14.49 120.418-7.631 35.838-29.451 64.646-64.775 85.523z" />
<glyph unicode="&#xe97f;" d="M479.113 438.142c1.738-3.816 3.626-7.080 5.788-10.138l-0.129 0.192 8.188-0.386c-3.072 3.632-5.699 7.785-7.712 12.273l-0.133 0.331c-1.239 2.312-1.967 5.058-1.967 7.974s0.728 5.662 2.012 8.066l-0.045-0.092c5.659 10.46 21.434 15.218 21.82 15.261l2.744 0.815-10.803 52.343c-8.102 39.182-21.992 92.854-65.332 101.513-34.295 6.816-179.448-1.115-225.103-3.815-0.688-1.677-1.24-3.638-1.566-5.676l-0.020-0.155c8.874 0.557 22.206 1.329 38.067 2.143l26.75-129.163 6.345 1.2-26.579 128.263c17.448 0.9 37.424 1.8 57.701 2.572l15.433-90.882c2.354-10.568 11.241-18.494 22.119-19.371l0.087-0.006 29.194-3.601c18.348-2.272 34.295 12.089 31.080 28.165l-16.847 87.281c1.374 0.025 2.994 0.040 4.617 0.040 13.069 0 25.919-0.934 38.489-2.738l-1.437 0.169c51.057-10.203 58.773-92.468 70.39-144.596-19.334-7.202-30.908-20.877-23.149-37.982zM383.645 623.292l17.147-88.395c2.315-12.26-9.731-23.192-23.664-21.434l-29.236 3.601c-8.272 0.711-14.96 6.716-16.696 14.58l-0.023 0.124-15.304 90.024c23.621 0.943 47.456 1.5 67.775 1.5z" />
<glyph unicode="&#xe980;" d="M219.715 494.3c41.283-2.786 200.668-14.875 216.615-35.667 5.966-7.936 10.119-17.564 11.662-28.041l0.041-0.339c-12.561 0.943-21.434 1.715-21.434 1.715s-9.431 31.809-43.855 25.421-37.81-24.392-37.81-24.392-48.527 0-72.877 4.716-44.412 16.419-47.627 32.152q-2.508 12.282-4.716 24.435z" />
<glyph unicode="&#xe981;" d="M206.854 602.415c4.287-38.025 11.274-95.64 19.977-132.893 4.93-18.434 30.994-28.679 52.257-31.423 11.017-1.329 25.421-1.372 63.103-1.629 3.901 12.003 21.006 26.664 52.728 25.721 17.791-0.6 30.737-16.119 34.295-26.793 19.162-1.715 81.451-6.73 99.884-2.872 16.076 3.344 53.372 10.846 78.321 21.434 8.72 3.461 16.232 7.537 23.174 12.374l-0.367-0.242c-14.275-11.446-53.672-25.121-71.762-30.78-21.091-6.602-28.208-7.888-35.41-8.317-26.922-1.329-70.348 2.143-96.283 4.287-0.763 2.35-1.619 4.349-2.63 6.253l0.101-0.209c-3.558 7.267-9.194 13.055-16.13 16.707l-0.203 0.097c-16.805 8.788-51.442-1.929-59.245-18.391-0.505-1.039-0.906-2.246-1.143-3.511l-0.014-0.090c-0.053 0-0.116 0-0.179 0-22.585 0-44.893 1.183-66.866 3.491l2.742-0.233c-5.83 0.857-28.165 1.072-44.884 11.917-7.814 5.201-13.432 13.171-15.474 22.48l-0.044 0.24c-5.83 29.622-10.889 72.748-15.947 132.379z" />
<glyph unicode="&#xe982;" d="M383.645 623.292c9.26 1.715 15.476 2.229 15.476 5.573l-15.047 72.877c-2.915 14.061-16.805 23.835-33.009 23.278-22.42-0.815-63.66-2.358-88.095-3.987-17.833-1.2-36.224-7.373-44.583-21.434 0 0-8.574-16.676-11.146-23.492-2.829-8.231-20.32-51.442-2.829-52.814 34.295-3.001 33.095 20.663 36.181 34.295 2.782 10.374 5.564 18.752 8.75 26.928l-0.605-1.764c3.763 4.744 9.422 7.843 15.814 8.143l0.048 0.002c23.664 1.586 63.703 3.129 86.037 3.901l8.059-66.704c1.672-8.188 14.661-4.801 24.95-4.801z" />
<glyph unicode="&#xe983;" d="M833.594 631.694l-190.466-24.049s-62.46-11.746-55.343-69.533 46.384-73.305 46.384-73.305l126.42-8.145z" />
<glyph unicode="&#xe984;" d="M841.225 645.798l-51.743 2.786-160.5-61.688 18.133-140.995 14.018-11.746 47.841-12.518z" />
<glyph unicode="&#xe985;" d="M780.952 648.242l-144.039-41.111c-8.203-2.754-14.007-10.372-14.007-19.345 0-1.207 0.105-2.39 0.307-3.54l-0.018 0.122 18.048-131.521c0.943-10.336 9.568-18.371 20.070-18.371 1.64 0 3.234 0.196 4.76 0.566l-0.138-0.028 155.956 44.841-16.161 150.040c-0.733 10.575-9.492 18.875-20.188 18.875-1.628 0-3.211-0.192-4.728-0.555l0.138 0.028z" />
<glyph unicode="&#xe986;" d="M832.094 645.713l-143.867-42.354c-8.212-3.024-13.963-10.781-13.963-19.88 0-1.399 0.136-2.766 0.395-4.088l-0.022 0.134 18.991-138.723c1.843-13.332 13.589-22.292 24.907-18.948l139.923 41.411c8.252 3.107 14.016 10.935 14.016 20.11 0 1.164-0.093 2.306-0.271 3.419l0.016-0.123-15.176 139.366c-1.5 13.675-13.418 23.063-24.95 19.677z" />
<glyph unicode="&#xe987;" d="M825.535 632.766l-127.277-37.424c-7.255-2.694-12.33-9.557-12.33-17.605 0-1.233 0.119-2.438 0.346-3.604l-0.019 0.118 16.805-122.69c1.629-11.832 12.003-19.72 22.035-16.762l119.175 35.238c9.697 3.599 16.482 12.771 16.482 23.529 0 1.41-0.117 2.793-0.341 4.139l0.020-0.146-12.861 117.846c-1.286 12.089-11.832 20.363-22.035 17.362z" />
<glyph unicode="&#xe988;" d="M698.258 595.342l111.716 32.837c0.135-0.586 0.242-1.289 0.297-2.007l0.003-0.051 12.861-118.318c0.196-1.163 0.308-2.503 0.308-3.869 0-10.522-6.639-19.494-15.957-22.954l-0.169-0.055-104.085-30.823-0.257 1.458-16.719 122.604c-0.218 1.072-0.343 2.305-0.343 3.566 0 8.054 5.083 14.922 12.216 17.569l0.13 0.042z" />
<glyph unicode="&#xe989;" d="M698.258 595.342l66.704 19.634c9.492-12.847 16.037-28.426 18.333-45.354l0.057-0.515c6.773-49.256-22.72-93.625-65.803-99.155-2.574-0.334-5.552-0.525-8.574-0.525s-6 0.191-8.921 0.561l0.347-0.036-14.147 104.214c-0.218 1.072-0.343 2.305-0.343 3.566 0 8.054 5.083 14.922 12.216 17.569l0.13 0.042z" />
<glyph unicode="&#xe98a;" d="M698.258 595.342l57.315 16.805c4.383-8.712 7.576-18.832 9.032-29.505l0.056-0.503c6.387-46.727-21.434-88.824-62.417-94.011-1.329 0-2.701-0.3-4.030-0.386l-11.96 86.423c-0.218 1.072-0.343 2.305-0.343 3.566 0 8.054 5.083 14.922 12.216 17.569l0.13 0.042z" />
<glyph unicode="&#xe98b;" d="M621.78 518.735c0-14.275-22.035-69.662-22.035-102.885s-8.788-73.82-23.063-138.123-59.116-164.701-90.024-195.653-74.034 77.892-61.945 114.845 92.854 150.769 92.854 180.563-8.317 47.841-17.833 78.793-2.786 78.192 7.545 83.337-4.287-40.854-0.429-44.841 10.717 67.475 26.193 78.793-8.574-57.744-8.574-70.047-1.586-21.049 3.172-21.049 5.916 33.352 11.703 53.2 16.076 49.213 30.008 43.255-16.676-40.082-16.676-53.586-3.944-40.082 1.972-42.483 12.303 90.024 27.007 93.668 5.959-21.82 1.2-43.64-7.931-56.372-0.386-56.372 13.889 8.574 23.792 27.779 15.518 28.722 15.518 14.447z" />
<glyph unicode="&#xe98c;" d="M451.72 277.642l100.484-120.032s-32.237-70.047-116.388-114.202-144.21-11.917-144.21-11.917 68.033 133.836 160.115 246.152z" />
<glyph unicode="&#xe98d;" d="M216.106 953.943l680.546-182.568c118.654-31.764 163.921-171.894 94.606-266.457-5.586-7.614-11.38-14.332-17.653-20.568l-498.201-497.986c-93.406-93.406-252.911-50.668-287.205 76.945l-182.182 680.546c-34.207 127.527 82.561 244.295 210.088 210.088z" />
<glyph unicode="&#xe98e;" d="M750.135 735.753c-20.404-5.658-36.651-11.574-35.536-36.093 0.15-6.958 2.374-13.368 6.074-18.671l-0.073 0.11c-2.403-4.757-3.81-10.37-3.81-16.311s1.407-11.554 3.906-16.522l-0.096 0.212c-0.634-0.757-1.254-1.596-1.824-2.471l-0.062-0.101c-3.499-6.292-5.559-13.8-5.559-21.79 0-14.047 6.368-26.606 16.374-34.949l0.073-0.059c20.319-16.718 49.596 12.217 29.106 29.106-8.573 7.073 5.916 18.733 9.173 27.863 0.515 1.669 0.812 3.588 0.812 5.576 0 6.155-2.844 11.645-7.29 15.228l-0.038 0.029c1.035 0.545 2.256 1.054 3.524 1.456l0.162 0.044c13.546 5.744 11.874 22.248 4.072 31.678 14.489 12.217 3.515 41.88-18.99 35.665z" />
<glyph unicode="&#xe98f;" d="M630.238 467.024l37.122-9.902s-79.431 140.516-72.358 237.737c3.729 51.44-80.46 126.97-102.879 115.268-1.372 0.557-74.759-1.586-81.446-169.236l-15.26-196.585 79.303-70.215s49.939 85.733 113.51 48.010 82.989-36.522 82.989-36.522-40.98 63.185-40.98 81.446z" />
<glyph unicode="&#xe990;" d="M575.969 541.912s-70.129 34.893-126.156-2.872l5.273-41.752 57.827-123.069 55.255 12.431 26.749 129.799z" />
<glyph unicode="&#xe991;" d="M259.916-742.236s254.026 99.236 490.048 2.915l-108.409 931.1-207.559-46.81z" />
<glyph unicode="&#xe992;" d="M761.795 248.791l-0.429 0.386c3.558 8.83 8.573 19.418-2.401 27.177-15.26 10.588-14.66 2.915-14.66 26.449 0 21.99-5.916 25.205-22.805 30.607l-1.8 6.001c-21.176 72.444-85.99 182.568-106.223 191.227s-25.163-46.467-25.163-46.467l66.529-210.731s16.546-29.278 39.951-62.328c3.576-7.498 8.315-13.869 14.060-19.165l0.043-0.039c4.63-6.044 9.388-12.045 14.274-17.832l50.454 34.293z" />
<glyph unicode="&#xe993;" d="M608.162 528.28s-41.237 31.935-180.039 2.786c-6.773-1.415-17.147-161.177-17.147-161.177s46.339-249.825 33.221-315.925c0 0 97.735-81.146 213.432-24.648 0 0-14.317 208.245-3.687 254.583s31.764 88.305 2.186 136.529-47.967 107.852-47.967 107.852z" />
<glyph unicode="&#xe994;" d="M667.446 41.447c-2.206-3.693-4.703-6.885-7.545-9.731l0.001 0.001c-4.672-4.715-44.281-17.832-44.281-17.832l23.619 13.76s28.206 17.747 28.206 13.803z" />
<glyph unicode="&#xe995;" d="M449.814 539.040s91.777-906.109-5.273-1169.694c-56.584-153.762-112.053-166.107-148.403-149.732-25.165 12.218-42.205 37.58-42.205 66.922 0 0.676 0.009 1.349 0.027 2.021l-0.002-0.099c0.986 100.222 9.473 423.777 76.131 648.911 80.803 273.102 41.366 307.052 41.366 352.19 0 78.231 12.131 191.741 30.521 236.322 2.572 6.173 47.839 13.16 47.839 13.16z" />
<glyph unicode="&#xe996;" d="M506.44 547.613c15.603 0.3 33.307-5.144 62.371-8.273 2.701-0.3 4.287 2.872 7.159 2.572-30.006 28.635-143.559 43.895-150.032-4.844-44.795-332.128 64.814-954.334 18.69-1167.722 105.708 214.332 83.804 796.5 21.433 1129.614-5.487 29.149 10.802 48.139 40.38 48.653z" />
<glyph unicode="&#xe997;" d="M575.969 541.912c63.914-72.23 90.019-1253.626 173.995-1281.232 0 0-4.63 345.16-4.63 431.921s-38.108 660.528-56.326 708.667-75.531 129.371-75.531 129.371z" />
<glyph unicode="&#xe998;" d="M575.969 541.912c-0.943 0.943-10.417 5.401-9.688 3.901 36.608-78.145 53.969-788.741 140.216-1153.491-11.66 151.49-56.969 1073.116-130.528 1149.59z" />
<glyph unicode="&#xe999;" d="M712.627 205.539s4.287-140.43-67.343-169.494-84.661-60.699-79.003-64.3 11.617 13.417 18.647 13.717 3.858-12.86-7.373-18.604-30.006-2.1-28.077-6.687 25.291-7.030 42.138 4.93 5.273-2.1-1.758-4.93-32.536-2.701-28.077-7.202 39.737-5.058 53.883 3.901 72.873 62.842 86.847 76.602 71.93 136.572 71.93 168.165-59.413 46.467-61.813 3.901z" />
<glyph unicode="&#xe99a;" d="M555.051-22.295l5.315 3.815s22.248-0.214 31.593 4.287 20.747 4.287 16.504 0-25.291-9.216-21.090-20.662-32.321 12.56-32.321 12.56z" />
<glyph unicode="&#xe99b;" d="M634.825-28.511c-3.987-2.443-12.431-3.429-21.219-6.473s39.737 18.39 39.737 25.42-40.637-14.489-52.468-19.547c-13.46-5.701-34.85 4.287-40.509 10.631 0 0-167.565 56.241-212.060 87.747-3.987 2.872-14.274 17.147-13.074 28.249-28.592-2.572-56.712-8.573-82.218-22.291 0.3-17.532-4.672-38.966 0-47.625 29.063-53.497 218.19-73.559 257.97-73.559s78.703-9.473 89.762-9.473 62.456 28.163 63.999 41.323c1.415 12.388-24.691-11.145-29.921-14.403z" />
<glyph unicode="&#xe99c;" d="M353.665 243.605c29.063 32.793 39.137 120.026 39.137 181.196 0.024 1.763 0.037 3.845 0.037 5.931 0 33.68-3.494 66.544-10.14 98.249l0.544-3.101s-64.3 2.529-100.393-66.443c-37.465-72.401-88.69-146.732-40.337-379.667 25.463 13.674 64.3 15.175 92.72 17.747 6.559 58.598-6.044 118.44 18.433 146.089z" />
<glyph unicode="&#xe99d;" d="M237.454 96.144s-5.83-18.561 0-24.648-1.286-19.933 2.572-27.649 67.043 12.431 96.921 20.919 11.317 18.818 7.759 30.006 0.514 16.804-6.344 24.005-95.635-2.358-100.907-22.633z" />
<glyph unicode="&#xe99e;" d="M245.384 69.267c22.805 9.131 65.671 23.962 90.019 20.404 3.772-0.557 2.829-6.601-0.943-5.83-0.6 0-12.56 3.858-44.581-2.701-17.748-3.629-32.669-7.727-47.197-12.673l2.702 0.799z" />
<glyph unicode="&#xe99f;" d="M550.078 657.008c3.815-3.172-11.574-95.506 3.644-121.097 0 0 39.951-132.028 12.86-134.772-23.619-2.358-109.223 106.523-113.939 124.741-6.301 24.52 0 147.16 0 147.16z" />
<glyph unicode="&#xe9a0;" d="M540.862 803.096s41.323-7.287 46.253-40.166 11.788-60.227 4.887-98.593-31.464-89.419-71.801-97.65-82.603 53.84-82.603 87.619-14.746 90.362 12.86 125.084 90.405 23.705 90.405 23.705z" />
<glyph unicode="&#xe9a1;" d="M510.598 831.045c-28.035-3.215-72.444 3.644-93.149-42.138-12.217-26.106-37.251-76.088-37.251-165.121 0-132.628-127.956-191.355-127.956-191.355l56.112-27.092 33.479 27.092-22.848-48.696 91.948-9.173 3.944 63.528 19.118-72.23 42.866 8.573s-17.147 217.075-18.818 299.036l0.472-0.557s-0.386 10.545-0.386 24.134v0c0.102 1.825 0.161 3.96 0.161 6.108s-0.058 4.284-0.174 6.404l0.013-0.295c0 0.075 0 0.163 0 0.252 0 12.585 0.935 24.951 2.739 37.034l-0.167-1.364c4.287 22.419 12.388 33.864 32.536 43.509s92.291-17.79 92.291-17.79c-2.401 41.966-46.896 63.314-74.93 60.141z" />
<glyph unicode="&#xe9a2;" d="M622.908 732.581c-28.849 28.849-39.48 83.118-74.759 90.877s-55.726-18.69-54.826-34.55c0 0 37.079-81.060 76.002-93.877 8.599-2.771 15.959-5.966 22.935-9.774l-0.687 0.344c7.759-8.573-3.429-23.877-7.845-31.464-1.867-2.851-2.977-6.344-2.977-10.096 0-3.312 0.866-6.422 2.383-9.116l-0.048 0.093c0.797-9.898 9.026-17.628 19.060-17.628 0.216 0 0.432 0.004 0.647 0.011l-0.031-0.001c0.084-0.001 0.184-0.002 0.284-0.002 3.146 0 6.129 0.696 8.804 1.942l-0.129-0.054c6.301 0.386 13.331 4.029 18.947 15.303 13.76 27.477 21.090 69.143-7.759 97.992z" />
<glyph unicode="&#xe9a3;" d="M465.846 668.925s-9.816 42.523-26.106 32.235 1.2-57.312 16.418-57.312 9.688 25.077 9.688 25.077z" />
<glyph unicode="&#xe9a4;" d="M-21.587 516.835s-34.293-10.631-48.868-64.3c-20.833-76.388-4.844-410.445 78.231-466.429 3.258-2.229 138.973 82.989 138.973 82.989l-79.131 88.090 46.21 59.413z" />
<glyph unicode="&#xe9a5;" d="M330.774 491.887s25.72-16.504 45.224-95.335 42.266-343.317 30.821-354.719-70.815 0-70.815 0l-27.992 374.695z" />
<glyph unicode="&#xe9a6;" d="M3.532 401.696s50.282-228.478 38.88-287.89-84.575-402.129-84.575-402.129h392.999s13.717 376.967 0 463.814-6.816 274.345-18.261 312.924-325.784 43.767-354.162 28.335z" />
<glyph unicode="&#xe9a7;" d="M242.684 152.599l48.010-1.5s11.402 15.989 18.261 18.69 26.663-0.772 34.679-14.66 11.017-35.536 13.203-43.895-19.461-4.287-32.793-4.287-91.52-9.173-91.52-9.173z" />
<glyph unicode="&#xe9a8;" d="M74.948 132.066l-3.344 2.872c-8.102 7.073-29.492 25.977-47.153 43.381-21.776 22.033-52.34 47.41-52.34 35.793s57.612-54.269 52.554-59.327-65.671 32.664-61.685 19.847 65.5-36.265 55.726-40.294-43.895 16.032-43.895 5.744 67.557-33.136 87.576-33.136 12.56 25.12 12.56 25.12z" />
<glyph unicode="&#xe9a9;" d="M177.184 54.393c6.859 0 213.646-36.565 229.635-12.56 0 0 11.102 46.81 2.143 65.114s-165.507 8.573-165.507 8.573z" />
<glyph unicode="&#xe9aa;" d="M-16.872 82.384s0.429 1.415 1.329 3.858c4.501 12.217 21.433 49.554 62.671 57.827 49.511 9.902 207.173 23.576 207.173 23.576v-71.587s-204.901-112.010-238.423-112.010-32.75 98.335-32.75 98.335z" />
<glyph unicode="&#xe9ab;" d="M246.156 592.451l-13.631-94.906c-2.786-19.504-23.276-33.779-46.896-32.921-5.958 0-12.217 0.6-18.518 1.243-31.593 3.301-61.127 21.433-54.74 47.539 8.23 33.264 26.963 88.519 26.663 117.668-0.6 47.71 107.123-14.274 107.123-38.623z" />
<glyph unicode="&#xe9ac;" d="M207.876 816.814c5.058-4.63 60.699-0.986 78.917-53.712s-2.829-173.523-38.108-206.059-75.916-12.045-107.166 42.566-92.463 124.955-47.667 176.909c23.834 27.606 114.024 40.294 114.024 40.294z" />
<glyph unicode="&#xe9ad;" d="M682.835 365.859s-20.019-120.026-82.861-200.486c-46.939-60.27-145.231-127.485-145.231-127.485l55.726-60.956 153.419 126.627z" />
<glyph unicode="&#xe9ae;" d="M766.853 477.912h123.069l-3.987-404.744-163.364-11.017z" />
<glyph unicode="&#xe9af;" d="M1021.265 370.275c-38.794 43.509-128.599 113.039-227.406 96.278l-103.351-45.91-30.392-222.905-27.263-425.148 368.651-4.287 35.065 413.575s23.276 144.803-15.303 188.398z" />
<glyph unicode="&#xe9b0;" d="M773.626 533.681s-1.2-62.971-10.674-95.035c-3.644-12.431 5.273-25.12 21.862-29.664 9.494-2.586 20.394-4.072 31.641-4.072 5.985 0 11.871 0.421 17.632 1.234l-0.662-0.077c52.683 6.387 54.483 44.024 54.483 44.024l-17.747 114.839z" />
<glyph unicode="&#xe9b1;" d="M792.787 745.141c-18.899-17.69-33.256-40.004-41.282-65.146l-0.298-1.082c-6.559-21.602-10.334-46.429-10.334-72.137 0-2.897 0.048-5.782 0.143-8.656l-0.011 0.419s-10.674-57.955-2.358-77.717c12.56-30.006 65.628-54.312 125.77 13.246s65.243 127.184 54.998 156.291-103.051 69.786-126.627 54.783z" />
<glyph unicode="&#xe9b2;" d="M952.679 653.021c9.088 19.804 4.287 34.85-8.273 46.381 1.456 2.363 2.509 5.136 2.984 8.102l0.017 0.129c0.291 1.747 0.457 3.76 0.457 5.812 0 7.548-2.25 14.571-6.116 20.433l0.086-0.139c-6.094 8.847-15.398 15.106-26.197 17.108l-0.251 0.039c-0.986 12.131-4.287 23.791-15.732 30.006-3.537 2.432-7.912 3.884-12.626 3.884-4.056 0-7.862-1.075-11.146-2.956l0.11 0.058c-3.052 5.652-7.544 10.186-12.993 13.204l-0.167 0.085c-4.715 2.743-9.988-0.3-15.132-6.216-1.896 1.849-4.018 3.481-6.318 4.845l-0.155 0.085c-4.269 2.388-9.366 3.794-14.792 3.794-5.235 0-10.164-1.309-14.479-3.617l0.165 0.081c-0.857-0.429-1.629-1.029-2.443-1.5-4.323 2.354-9.356 4.44-14.619 5.99l-0.555 0.14c-59.756 17.661-79.517-29.063-66.957-60.013s46.381-30.006 46.381-30.006c-7.459-8.573 5.487-24.734 44.024-14.146 5.701 1.644 12.248 2.59 19.017 2.59 11.398 0 22.171-2.682 31.72-7.448l-0.412 0.186c-0.281-1.289-0.441-2.769-0.441-4.288 0-7.623 4.053-14.3 10.122-17.993l0.093-0.053c-5.401-14.36-12.131-35.793-4.287-35.793 11.788 0 11.788-21.176 0.772-57.398s2.658-60.013 2.658-60.013c0 15.389 42.095 61.47 59.198 97.607 17.961 1.843 22.033 23.919 12.174 34.893 1.7 1.719 3.087 3.752 4.066 6.003l0.049 0.127z" />
<glyph unicode="&#xe9b3;" d="M866.175 607.969s3.858 30.478 12.388 30.478 16.504-3.301 14.446-20.533-10.888-36.436-22.119-28.463c-3.963 2.431-6.567 6.741-6.567 11.658 0 2.527 0.688 4.894 1.887 6.923l-0.035-0.063z" />
<glyph unicode="&#xe9b4;" d="M754.594 462.48l-27.477-824.62h-170.951l50.411 374.566 33.179 227.706s16.032 153.161 50.839 180.51c18.684 14.992 39.636 28.867 61.807 40.763l2.192 1.074z" />
<glyph unicode="&#xe9b5;" d="M891.809 467.024l-18.004-829.121h183.082s6.901 657.141-13.374 725.856-151.704 103.265-151.704 103.265z" />
<glyph unicode="&#xe9b6;" d="M688.108 431.831l78.745 46.081-23.491-409.974-45.095 232.55 15.218 10.459z" />
<glyph unicode="&#xe9b7;" d="M884.393 67.938l5.53 409.974 70.172-31.935-38.237-134.729 9.731-7.587z" />
<glyph unicode="&#xe9b8;" d="M561.309-48.744l-253.769 194.056 268.772 24.948 203.229-219.004z" />
<glyph unicode="&#xe9b9;" d="M702.682 33.645s27.563-6.301 37.765-17.447c12.86-14.232 43.895-37.379 56.884-37.379s68.243-5.487 68.243-5.487l9.259-62.113s-206.187 48.225-215.918 58.813 48.353-7.845 48.353-3.129-69.915 10.031-66.314 21.99 64.514-16.075 69.958-10.159-73.559 15.775-73.559 28.378 78.574-18.218 78.574-18.218 1.457 6.387-19.804 16.632-41.923 18.518-37.208 23.662 59.113-27.52 66.271-19.676z" />
<glyph unicode="&#xe9ba;" d="M993.059 379.748s-30.006-55.983-23.962-136.615 16.161-204.344-0.6-244.638-139.701 0-139.701 0v-95.463s178.238-73.944 229.849-49.725 46.681 232.55 46.681 334.7-79.346 265.043-112.267 191.741z" />
<glyph unicode="&#xe9bb;" d="M993.059 379.748c-14.789-32.45-24.52-80.46-21.433-130.357 5.53-75.059 23.019-237.994-9.002-262.771-30.864-19.418-100.607 0-133.872 11.874 32.621-8.873 124.913-30.607 136.915 1.457 10.202 25.72 8.573 87.619 7.63 115.182-3.729 119.083-18.004 161.092 6.601 233.793 3.946 11.956 8.399 22.145 13.662 31.83l-0.502-1.009z" />
<glyph unicode="&#xe9bc;" d="M357.908 863.538s-33.65-43.509-54.183-34.293c-2.957 1.382-5.329 3.602-6.862 6.353l-0.039 0.077c-14.66 24.127-40.8 39.997-70.646 39.997-2.655 0-5.281-0.126-7.873-0.371l0.331 0.025h-2.829c-8.573 0-20.147-8.873-27.477-15.518-5.101 2.015-17.147 4.287-41.709 6.387-73.644 6.301-89.162-88.176-83.118-117.84 6.901-33.779 45.781-99.064 54.483-128.856l19.504-10.459c14.017 38.837-11.617 96.192-11.617 125.813 0 35.965 17.147 48.868 32.107 60.013 11.231 8.316 43.252 26.32 47.925-1.457s32.45-65.886 98.593-24.262 53.411 94.392 53.411 94.392z" />
<glyph unicode="&#xe9bd;" d="M130.588 692.887s22.505-43.938 6.559-40.552-47.153 26.106-40.423 57.441 33.864-16.889 33.864-16.889z" />
<glyph unicode="&#xe9be;" d="M465.246 441.304c-10.459 57.998 3.001 117.711-3.858 176.138-3.086 25.977-44.238 26.277-41.152 0 4.758-40.423 0.686-80.674 0.386-121.14-0.024-1.593-0.038-3.473-0.038-5.357 0-15.985 0.995-31.738 2.927-47.199l-0.188 1.845c-13.417 1.843-26.834-13.717-21.948-28.206-3.321-1.625-5.93-4.275-7.461-7.533l-0.041-0.097c-1.525-3.178-3.066-7.082-4.353-11.1l-0.19-0.688c-2.985 1.523-6.51 2.415-10.243 2.415-1.425 0-2.819-0.13-4.172-0.379l0.141 0.021c0.3-1.2 0.643-2.401 0.943-3.644 2.872-11.703 5.83-27.52 8.573-45.996 1.289-0.16 2.781-0.252 4.294-0.252 4.2 0 8.236 0.704 11.996 2.001l-0.258-0.078 2.443 0.943c4.898-4.085 11.259-6.565 18.199-6.565 6.821 0 13.083 2.396 17.989 6.392l-0.052-0.041 0.343 0.343c13.46-5.23 28.206-3.944 36.479 11.745 12.388 23.319-6.601 53.411-10.759 76.431z" />
<glyph unicode="&#xe9bf;" d="M1017.998 743.866l-182.363-680.58c-31.766-118.66-171.903-163.886-266.471-94.611-7.605 5.621-14.321 11.412-20.578 17.663l-498.217 498.217c-93.41 93.41-50.671 252.881 76.906 287.048l680.58 182.363c127.577 34.209 244.35-82.565 210.141-210.099z" />
<glyph unicode="&#xe9c0;" d="M289.705 328.555c-12.346 0-21.649 6.002-30.994 13.289-3.35 2.801-7.078 5.41-11.023 7.686l-0.38 0.202c-1.655 0.854-3.014 2.076-4.005 3.562l-0.024 0.039-0.514-0.643c-2.052-2.384-5.072-3.884-8.443-3.884-0.652 0-1.29 0.056-1.911 0.164l0.066-0.010c-4.766 0.654-8.83 3.224-11.454 6.894l-0.035 0.051c-4.587 6.602-3.044 14.447-1.586 21.992 2.401 12.346 4.673 24.049-9.731 35.281-1.94 1.532-3.352 3.655-3.97 6.095l-0.017 0.078c-2.186 9.045-3.429 18.262 2.358 24.478 2.826 2.862 6.75 4.635 11.087 4.635 1.006 0 1.99-0.095 2.943-0.278l-0.097 0.016c-0.376 6.442-1.278 12.457-2.672 18.281l0.142-0.705c-10.302 20.617-20.197 45.285-28.166 70.803l-0.985 3.66c-9.217 27.693-17.919 53.843-30.737 75.363-0.986 1.632-1.569 3.603-1.569 5.71 0 5.335 3.739 9.797 8.739 10.909l0.074 0.014c3.258 0.729 5.058 3.558 7.974 10.16 2.401 5.401 5.702 12.775 14.104 14.018 8.702 1.286 14.661-5.702 16.933-8.316 0.257-0.3 0.472-0.557 0.686-0.857 13.418-19.076 26.064-29.665 37.681-31.38 12.518-1.886 23.835 6.988 33.866 14.833 7.845 6.13 17.147 13.418 26.621 12.26 1.972 13.246 1.372 42.568 0.986 63.102-1.286 58.858-0.9 79.392 14.318 82.693 13.032 2.829 20.877-12.218 28.336-29.494 12.775-21.306 11.403-32.151 7.202-45.398 29.236-4.801 40.082 8.231 54.529 25.55 8.951 11.97 19.773 21.973 32.132 29.762l0.491 0.289c1.582 0.903 3.477 1.436 5.497 1.436 1.174 0 2.307-0.18 3.371-0.514l-0.080 0.022c71.805-22.206 83.251-16.633 84.837-15.304 0.127 1.084 0.199 2.34 0.199 3.613 0 1.523-0.104 3.021-0.304 4.489l0.019-0.171c-0.643 8.316-1.929 25.378 16.547 30.951 28.422 17.147 33.566 23.792 34.466 25.507-0.078 0.41-0.167 0.755-0.275 1.093l0.018-0.064c-3.515 14.704 1.843 25.721 42.997 51.871 0.461 0.296 0.996 0.583 1.553 0.828l0.076 0.030c17.44 7.466 32.24 15.412 46.251 24.474l-1.196-0.725c22.677 13.975 34.295 19.762 63.617 5.187 20.234 0.6 35.367-3.987 46.298-14.147 19.334-18.005 19.805-48.827 20.234-78.664-0.002-0.443-0.003-0.968-0.003-1.492 0-12.431 0.686-24.702 2.023-36.776l-0.134 1.488c0.062-0.441 0.098-0.95 0.098-1.467 0-1.512-0.304-2.952-0.854-4.264l0.027 0.073c-1.517-4.568-2.393-9.827-2.393-15.29 0-1.423 0.059-2.833 0.176-4.226l-0.012 0.182c0.129-8.274 0.3-17.705-8.402-21.992-7.673-3.815-15.647 0-24.778 6.645-6.18-4.584-10.141-11.856-10.141-20.053 0-0.97 0.055-1.927 0.163-2.868l-0.011 0.115c0.489-7.093 5.063-13.005 11.367-15.434l0.122-0.041c7.202-1.843 16.119 3.601 24.478 15.004 1.966 2.63 5.008 4.363 8.46 4.543l0.028 0.001c20.32 0.943 27.050-9.86 29.279-16.419 3.044-8.831 12.346-35.709-82.779-151.755-45.655-55.729-103.013-115.488-128.434-133.921-31.937-29.322-67.304-34.252-88.438-37.167-1.072-0.129-2.229-0.3-3.344-0.472 0.169-0.728 0.265-1.563 0.265-2.421 0-5.377-3.794-9.868-8.852-10.941l-0.073-0.013c-30.008-6.173-52.514-4.501-78.535-2.529-10.76 0.815-21.863 1.629-34.423 1.972-13.851-1.738-26.442-5.356-38.129-10.624l0.833 0.336c-13.375-5.401-26.064-10.503-48.699-7.588-14.747-9.688-26.278-13.418-35.967-13.418zM262.612 366.623c3.644-2.358 6.859-4.844 9.817-7.159 12.389-9.688 18.605-14.532 44.326 3.344 1.772 1.249 3.976 1.996 6.354 1.996 0.648 0 1.283-0.055 1.9-0.162l-0.066 0.009c19.334-3.215 27.993 0.3 41.197 5.616 12.761 5.718 27.562 9.884 43.070 11.759l0.741 0.073c0.514 0.043 1.072 0.086 1.586 0.086 13.461-0.343 25.078-1.2 36.31-2.058 9.064-1.072 19.564-1.684 30.206-1.684 9.941 0 19.758 0.534 29.422 1.574l-1.199-0.105c0.089 1.301 0.349 2.512 0.758 3.652l-0.029-0.094c3.215 9.603 13.032 10.974 26.621 12.861 18.691 2.615 49.942 6.945 76.863 31.937 0.332 0.327 0.697 0.624 1.088 0.883l0.027 0.017c20.748 14.79 74.334 68.847 124.747 130.32 68.847 83.979 82.007 121.446 78.921 130.32-0.214 0.6-1.2 0.986-2.444 1.2-18.691-22.206-36.996-20.534-44.326-18.648-15.237 4.773-26.405 18.016-28.065 34.081l-0.014 0.171c-2.529 19.848 7.588 38.239 27.136 49.084 1.565 0.885 3.437 1.407 5.431 1.407 2.621 0 5.031-0.901 6.938-2.41l-0.023 0.018c1.286-0.986 2.444-1.886 3.472-2.658-0.011 0.452-0.018 0.983-0.018 1.517 0 6.771 1.041 13.299 2.971 19.432l-0.124-0.458c-1.372 12.003-1.543 24.478-1.758 36.567-0.386 26.321-0.772 51.142-13.118 62.674-6.773 6.302-17.576 8.96-32.923 8.102-0.207-0.014-0.448-0.022-0.692-0.022-1.864 0-3.619 0.468-5.153 1.294l0.058-0.029c-21.434 11.103-24.478 9.217-44.326-3.001-13.38-8.669-28.866-16.999-45.026-24.075l-2.13-0.831c-28.122-17.962-32.194-24.607-32.794-26.107 0.086-0.506 0.19-0.939 0.32-1.361l-0.020 0.075c3.558-14.918-2.015-25.421-45.784-51.657-0.888-0.555-1.917-0.997-3.013-1.27l-0.074-0.016c-0.567-0.136-1.053-0.297-1.52-0.495l0.063 0.024c-0.106-1.020-0.166-2.204-0.166-3.402 0-1.475 0.092-2.929 0.269-4.356l-0.017 0.17c0.557-7.673 1.458-19.334-8.274-27.093-11.189-8.917-32.752-10.631-100.441 9.945-8.601-6.496-16.027-13.895-22.345-22.184l-0.204-0.279c-17.319-20.834-36.953-44.412-88.609-30.351-4.783 1.325-8.235 5.639-8.235 10.759 0 0.851 0.095 1.68 0.276 2.476l-0.014-0.075c0.986 4.458 2.186 8.102 3.215 11.317 3.129 9.603 4.415 13.589-5.016 29.065-0.232 0.374-0.475 0.823-0.693 1.287l-0.036 0.085c-0.171 0.386-0.343 0.772-0.472 1.115-0.386-13.461-0.043-30.951 0.214-44.412 1.157-59.244 0.472-80.55-12.003-86.937-1.883-0.97-4.109-1.539-6.468-1.539-2.848 0-5.503 0.829-7.736 2.259l0.057-0.034c-3.804-2.339-7.079-4.699-10.171-7.272l0.14 0.113c-12.175-9.517-28.893-22.592-50.885-19.291-16.547 2.444-32.366 13.761-48.141 34.466-2.178-4.366-4.978-8.083-8.336-11.21l-0.023-0.021c9.599-19.287 18.813-42.368 26.222-66.243l0.914-3.418c8.188-24.649 16.676-50.156 28.422-72.491 0.438-0.815 0.793-1.76 1.015-2.755l0.014-0.075c5.016-23.192 4.415-34.895-2.143-41.754-2.411-2.534-5.639-4.272-9.26-4.791l-0.085-0.010c8.755-8.876 14.162-21.074 14.162-34.535 0-3.496-0.365-6.908-1.058-10.198l0.057 0.321c0.366 0.024 0.794 0.037 1.226 0.037 2.742 0 5.356-0.549 7.738-1.544l-0.133 0.049c5.566-2.35 9.734-7.067 11.286-12.854l0.031-0.135zM627.381 517.606c-12.175 0-24.392 9.731-32.451 19.934-9.817 12.389-17.533 30.565-9.731 44.412l0.386 0.643c21.306 32.666 50.928 42.869 71.633 41.497 15.776-1.029 28.465-8.531 33.952-20.062 3.087-6.43 6.473-19.762-5.487-36.781-0.663-0.946-1.443-1.753-2.331-2.424l-0.027-0.019c0.193-0.948 0.303-2.038 0.303-3.154 0-2.677-0.634-5.206-1.761-7.444l0.043 0.095c-3.772-7.845-13.418-13.289-32.666-18.219-1.752-10.54-10.802-18.477-21.705-18.477-0.055 0-0.111 0-0.166 0.001h0.008zM604.532 570.848c-0.686-1.629-0.343-7.030 4.758-15.090 6.302-9.945 14.404-15.304 17.533-15.776 0.898 1.906 1.483 4.126 1.626 6.465l0.003 0.051c0.529 4.788 4.024 8.63 8.585 9.674l0.075 0.014c8.66 1.616 16.361 4.112 23.589 7.456l-0.611-0.254c-0.891 1.817-1.412 3.955-1.412 6.214 0 2.294 0.537 4.463 1.493 6.387l-0.038-0.084c1.99 3.604 5.265 6.292 9.192 7.473l0.11 0.029c1.363 1.981 2.178 4.432 2.178 7.074 0 1.41-0.232 2.767-0.66 4.032l0.026-0.089c-1.929 4.030-7.931 6.945-15.304 7.416-14.189 0.9-35.109-6.73-51.142-30.994z" />
<glyph unicode="&#xe9c1;" d="M682.852 754.969c-22.492 0-40.725 18.233-40.725 40.725s18.233 40.725 40.725 40.725c22.492 0 40.725-18.233 40.725-40.725v0c-0.022-22.483-18.242-40.703-40.723-40.725h-0.002zM682.852 814.084c-10.157 0-18.391-8.234-18.391-18.391s8.234-18.391 18.391-18.391c10.157 0 18.391 8.234 18.391 18.391v0c0 0.001 0 0.003 0 0.004 0 10.154-8.232 18.386-18.386 18.386-0.002 0-0.003 0-0.005 0v0z" />
<glyph unicode="&#xe9c2;" d="M405.965 559.745c-27.274 0-49.385 22.11-49.385 49.385s22.11 49.385 49.385 49.385c27.274 0 49.385-22.11 49.385-49.385v0c-0.039-27.259-22.126-49.346-49.381-49.385h-0.004zM405.965 636.137c-14.939 0-27.050-12.111-27.050-27.050s12.111-27.050 27.050-27.050c14.939 0 27.050 12.111 27.050 27.050v0c-0.015 14.933-12.117 27.035-27.049 27.050h-0.001z" />
<glyph unicode="&#xe9c3;" d="M545.459 636.137c-21.592 0-39.096 17.504-39.096 39.096s17.504 39.096 39.096 39.096c21.592 0 39.096-17.504 39.096-39.096v0c-0.022-21.583-17.513-39.074-39.094-39.096h-0.002zM545.459 692.038c-9.281 0-16.804-7.524-16.804-16.804s7.524-16.804 16.804-16.804c9.281 0 16.804 7.524 16.804 16.804v0c-0.015 9.275-7.529 16.79-16.803 16.804h-0.001z" />
<glyph unicode="&#xe9c4;" d="M671.064 645.054c-23.463 0-42.483 19.020-42.483 42.483s19.020 42.483 42.483 42.483c23.463 0 42.483-19.020 42.483-42.483v0c-0.041-23.446-19.037-42.441-42.479-42.483h-0.004zM671.064 707.727c-11.128 0-20.148-9.021-20.148-20.148s9.021-20.148 20.148-20.148c11.128 0 20.148 9.021 20.148 20.148v0c-0.017 11.121-9.028 20.131-20.147 20.148h-0.002z" />
<glyph unicode="&#xe9c5;" d="M472.497 441.857c-29.121 0-52.728 23.607-52.728 52.728s23.607 52.728 52.728 52.728c29.121 0 52.728-23.607 52.728-52.728v0c-0.041-29.104-23.624-52.687-52.724-52.728h-0.004zM472.497 524.979c-16.786 0-30.394-13.608-30.394-30.394s13.608-30.394 30.394-30.394c16.786 0 30.394 13.608 30.394 30.394v0c-0.024 16.776-13.618 30.369-30.391 30.394h-0.002z" />
<glyph unicode="&#xe9c6;" d="M302.523 431.697c-31.204 0-56.501 25.296-56.501 56.501s25.296 56.501 56.501 56.501c31.204 0 56.501-25.296 56.501-56.501v0c-0.029-31.193-25.308-56.471-56.498-56.501h-0.003zM302.523 522.364c-18.869 0-34.166-15.297-34.166-34.166s15.297-34.166 34.166-34.166c18.869 0 34.166 15.297 34.166 34.166v0c-0.022 18.861-15.306 34.144-34.164 34.166h-0.002z" />
<glyph unicode="&#xe9c7;" d="M412.438 376.268c-19.438 0-35.195 15.757-35.195 35.195s15.757 35.195 35.195 35.195c19.438 0 35.195-15.757 35.195-35.195v0c-0.029-19.426-15.769-35.166-35.192-35.195h-0.003zM412.438 424.324c-7.103 0-12.861-5.758-12.861-12.861s5.758-12.861 12.861-12.861c7.103 0 12.861 5.758 12.861 12.861v0c0 7.103-5.758 12.861-12.861 12.861v0z" />
<glyph unicode="&#xe9c8;" d="M616.578 436.327c-20.953 0-37.939 16.986-37.939 37.939s16.986 37.939 37.939 37.939c20.953 0 37.939-16.986 37.939-37.939v0c-0.024-20.943-16.995-37.914-37.936-37.939h-0.002zM616.578 489.87c-8.621-0.012-15.604-7.003-15.604-15.626 0-8.63 6.996-15.626 15.626-15.626 8.622 0 15.613 6.984 15.626 15.603v0.001c0 0.001 0 0.003 0 0.004 0 8.639-7.003 15.643-15.643 15.643-0.002 0-0.003 0-0.005 0v0z" />
<glyph unicode="&#xe9c9;" d="M588.67 471.35l-87.366 37.939c-3.979 1.777-6.702 5.7-6.702 10.258 0 2.824 1.045 5.404 2.769 7.374l-0.011-0.013 32.28 36.781-26.578 22.935c-2.376 2.051-3.87 5.067-3.87 8.432 0 0.519 0.036 1.029 0.104 1.529l-0.007-0.058 6.473 48.913-60.273-29.965-9.945 19.977 79.050 39.31c1.45 0.741 3.162 1.176 4.976 1.176 2.428 0 4.674-0.778 6.502-2.098l-0.033 0.022c2.846-2.072 4.675-5.393 4.675-9.141 0-0.495-0.032-0.983-0.094-1.461l0.006 0.057-8.402-63.745 30.522-26.364c2.387-2.056 3.889-5.083 3.889-8.46 0-2.826-1.052-5.406-2.785-7.371l0.010 0.012-29.622-33.738 73.348-31.808z" />
<glyph unicode="&#xe9ca;" d="M258.326 499.858l-59.416 26.064c-3.222 1.423-5.598 4.251-6.373 7.685l-0.014 0.074c-0.172 0.737-0.27 1.583-0.27 2.452 0 2.783 1.010 5.33 2.684 7.295l-0.013-0.016 62.631 72.962c2.056 2.394 5.087 3.9 8.469 3.9 0.842 0 1.662-0.093 2.451-0.27l-0.074 0.014 110.215-23.963c5.063-1.121 8.794-5.572 8.794-10.895 0-2.37-0.74-4.568-2.002-6.374l0.024 0.036-43.512-63.188-18.391 12.646 34.080 49.47-87.452 19.034-48.484-56.458 45.612-20.020z" />
<glyph unicode="&#xe9cb;" d="M383.887 644.496l-6.559 60.102c-0.041 0.36-0.065 0.778-0.065 1.201 0 3.51 1.623 6.641 4.159 8.684l0.021 0.017 36.010 28.893c1.888 1.519 4.315 2.438 6.957 2.438 1.461 0 2.857-0.281 4.135-0.792l-0.075 0.027 101.427-39.525-8.102-20.791-95.425 37.167-26.236-21.048 5.916-54.014z" />
<glyph unicode="&#xe9cc;" d="M415.096 570.99l19.943 10.055 23.816-47.235-19.943-10.055-23.816 47.235z" />
<glyph unicode="&#xe9cd;" d="M430.185 430.068l-20.663 8.488 10.631 25.85-73.177 6.087 1.843 22.249 88.352-7.331c3.643-0.311 6.754-2.342 8.546-5.267l0.028-0.048c1.026-1.668 1.634-3.689 1.634-5.851 0-1.522-0.301-2.973-0.846-4.298l0.027 0.075z" />
<glyph unicode="&#xe9ce;" d="M514.079 400.274c-0.013 0-0.028 0-0.042 0-3.936 0-7.394 2.051-9.362 5.142l-0.027 0.045-29.536 46.512 18.819 11.96 24.221-38.11 77.335 37.253 9.688-20.105-86.251-41.582c-1.417-0.688-3.081-1.097-4.838-1.115h-0.006z" />
<glyph unicode="&#xe9cf;" d="M261.369 352.862l-17.79 13.504 29.708 39.225c2.054 2.692 5.263 4.412 8.873 4.415h80.508l-39.010 34.681 14.833 16.676 60.916-54.186c2.294-2.055 3.732-5.026 3.732-8.334 0-6.162-4.988-11.158-11.147-11.172h-104.214z" />
<glyph unicode="&#xe9d0;" d="M570.108 668.074l-1.243 22.292 55.515 3.044-8.659 40.768-53.371 44.626 14.318 17.105 56.329-47.112c1.884-1.569 3.23-3.726 3.759-6.186l0.013-0.073 12.175-57.272c0.152-0.691 0.239-1.485 0.239-2.3 0-5.945-4.64-10.806-10.496-11.16l-0.031-0.002z" />
<glyph unicode="&#xe9d1;" d="M596.648 805.129l2.658 22.178 55.382-6.637-2.658-22.178-55.382 6.637z" />
<glyph unicode="&#xe9d2;" d="M705.53 699.497l-18.219 12.903 50.37 71.29c0.3 0.386 0.6 0.772 0.9 1.115l36.867 39.911-54.657 51.528-7.331-59.759-22.163 2.701 10.031 81.622c0.711 5.55 5.405 9.796 11.090 9.796 2.959 0 5.65-1.15 7.649-3.028l-0.006 0.006 78.707-74.205c2.167-2.038 3.517-4.924 3.517-8.126 0-2.923-1.125-5.583-2.966-7.571l0.007 0.007-43.897-47.498z" />
<glyph unicode="&#xe9d3;" d="M659.995 719.924l4.622 48.177 22.232-2.133-4.622-48.177-22.232 2.133z" />
<glyph unicode="&#xe9d4;" d="M643.585 478.552l-11.189 19.291 32.237 18.691 0.729 57.272c0.052 3.908 2.108 7.325 5.184 9.275l0.046 0.027 56.458 35.452c0.623 0.39 1.344 0.75 2.098 1.042l0.088 0.030 33.695 11.96-82.179 15.99 4.287 21.906 122.304-23.792c5.198-1.012 9.069-5.53 9.069-10.951 0-4.843-3.089-8.965-7.405-10.502l-0.078-0.024-71.033-25.207-50.285-31.551-0.729-57.53c-0.037-4.055-2.247-7.586-5.52-9.488l-0.053-0.028z" />
<glyph unicode="&#xe9d5;" d="M553.201 651.771l17.742 13.566 48.536-63.478-17.742-13.566-48.536 63.478z" />
<glyph unicode="&#xe9d6;" d="M642.539 615.822l11.24 43.851 21.635-5.546-11.24-43.851-21.635 5.546z" />
<glyph unicode="&#xe9d7;" d="M649.029 389.514c-75.963 26.321-134.736 86.723-128.305 164.787 5.83 70.562 49.256 137.865 118.403 167.744 22.907 10.583 49.61 17.188 77.738 18.209l0.369 0.011c113.559 2.186 173.446-119.775 185.449-212.156 6.345-48.784-33.909-70.819-70.69-96.84-53.843-38.153-115.488-65.16-182.963-41.754z" />
<glyph unicode="&#xe9d8;" d="M745.055 400.96l-60.145 53.843s-22.206-18.305-38.196-12.603c-6.002 2.143-20.020 21.777-34.295 47.67-1.715 3.087-3.429 6.259-5.101 9.517-1.758 3.387-11.403-12.26-13.161-8.788-3.515 7.159 0.943 33.609-2.272 41.025-14.79 34.166-24.735 69.276-17.662 87.409 16.119 41.411 115.659 91.481 151.797 48.527 23.009-27.039 37.004-62.367 37.004-100.964 0-21.72-4.432-42.405-12.441-61.2l0.387 1.021 59.073-57.358z" />
<glyph unicode="&#xe9d9;" d="M556.991 578.007c82.822-11.617 164.829-53.886 242.55-22.978-12.603 28.636-21.734 110.301-42.097 134.093s-49.727 41.84-81.021 41.154c-23.492-0.514-45.784-11.446-64.174-26.107-37.553-29.965-61.731-78.578-55.258-126.162z" />
<glyph unicode="&#xe9da;" d="M781.664 474.866s-69.018-21.649-103.699-61.516-90.624-155.184-91.867-168.13 40.682-153.212 40.682-153.212l-85.437-326.186s266.042-41.197 399.063 0l-69.618 258.54s17.019 106.014 21.134 122.604c11.875 48.098-8.702 121.789-17.405 172.374s-48.484 108.243-62.159 120.032c-11.12 10.694-21.2 22.297-30.18 34.746l-0.514 0.749z" />
<glyph unicode="&#xe9db;" d="M648.472 138.391l-17.276-68.161s-151.197 56.544-160.285 59.844c0 0-26.75 21.134-32.151 25.207s-22.292 45.912-23.621 49.942 31.037 6.087 31.037 6.087c0.379 9.699 1.316 18.828 2.789 27.776l-0.175-1.284c0.9 3.515 8.316 19.162 11.617 8.574l7.202-30.951 10.288-10.203c5.316-7.373 11.489-38.453 11.489-38.453z" />
<glyph unicode="&#xe9dc;" d="M457.107 171.057l-20.363 75.32-16.847 60.059-21.606-8.102 39.911-129.249z" />
<glyph unicode="&#xe9dd;" d="M661.804 140.406s-18.262 51.571-52.6 30.651c-7.808-4.988-17.328-7.95-27.54-7.95-13.156 0-25.164 4.916-34.287 13.012l0.053-0.047-58.044-9.302-18.433-36.653 176.19-74.291z" />
<glyph unicode="&#xe9de;" d="M415.139 205.223c-3.73 8.531 4.587 34.981 7.888 32.58s4.63-16.204 4.63-16.204l-3.172-8.145s5.444 1.972 5.744 0.043 2.229-11.060 2.229-11.060l0.857-17.533z" />
<glyph unicode="&#xe9df;" d="M759.073 466.335c32.023 21.349 143.91 25.207 157.199 16.633s-17.748-35.709-14.404-53.757 68.718-41.411 46.555-80.679-87.537-85.78-87.537-85.78z" />
<glyph unicode="&#xe9e0;" d="M826.848 312.394c13.718-48.956-163.415-514.851-163.415-514.851l-75.92 19.119s28.851 106.743 24.264 145.796-4.158 53.457 27.179 87.237 14.961 163.586 36.181 215.371 142.195 81.279 151.712 47.327z" />
<glyph unicode="&#xe9e1;" d="M661.804 43.051c0.004 0 0.009 0 0.013 0 1.403 0 2.599 0.882 3.066 2.121l0.007 0.023c12.903 33.823 10.546 70.733 8.274 106.443-0.6 9.517-1.2 18.991-1.543 28.379-0.167 4.589-0.262 9.98-0.262 15.393 0 43.809 6.233 86.163 17.86 126.223l-0.794-3.193c2.958 10.46 6.773 22.334 14.661 30.78 6.902 7.373 18.905 12.432 28.679 7.759 0.401-0.185 0.869-0.293 1.363-0.293 1.832 0 3.318 1.486 3.318 3.318 0 1.299-0.746 2.423-1.833 2.968l-0.019 0.009c-13.204 6.302-28.122-0.386-36.395-9.26-8.874-9.517-12.989-22.292-16.161-33.48-11.003-37.357-17.334-80.275-17.334-124.671 0-5.545 0.099-11.066 0.295-16.563l-0.023 0.797c0.343-9.474 0.943-18.991 1.543-28.55 2.229-34.981 4.544-71.205-7.845-103.656-0.136-0.349-0.214-0.753-0.214-1.175 0-1.413 0.879-2.62 2.121-3.104l0.023-0.008c0.353-0.16 0.765-0.254 1.199-0.257h0.001z" />
<glyph unicode="&#xe9e2;" d="M717.962-35.913c1.416 0.005 2.625 0.882 3.121 2.121l0.008 0.023c10.846 28.679 20.834 52.3 30.48 75.148 21.306 50.413 39.653 93.925 53.757 163.158 0.040 0.193 0.063 0.415 0.063 0.642 0 1.607-1.141 2.947-2.656 3.256l-0.021 0.004c-0.203 0.045-0.437 0.070-0.676 0.070-1.601 0-2.934-1.147-3.222-2.665l-0.003-0.020c-13.932-68.59-31.337-109.786-53.371-161.914-9.688-22.892-19.677-46.555-30.565-75.363-0.136-0.349-0.214-0.753-0.214-1.175 0-1.413 0.879-2.62 2.121-3.104l0.023-0.008c0.329-0.109 0.708-0.172 1.101-0.172 0.020 0 0.039 0 0.059 0h-0.003z" />
<glyph unicode="&#xe9e3;" d="M880.519 299.362c0.031-0.002 0.068-0.003 0.105-0.003 0.192 0 0.377 0.033 0.549 0.093l-0.012-0.004c1.537 0.312 2.678 1.652 2.678 3.259 0 0.227-0.023 0.449-0.066 0.663l0.004-0.021c-11.644 56.037-40.94 103.888-81.709 138.695l-0.342 0.285c-0.576 0.478-1.323 0.768-2.138 0.768-1.010 0-1.915-0.445-2.531-1.15l-0.003-0.004c-0.498-0.572-0.801-1.324-0.801-2.148 0-1.013 0.46-1.919 1.182-2.521l0.005-0.004c40.015-34.123 68.522-80.682 79.55-133.651l0.271-1.556c0.322-1.535 1.653-2.675 3.255-2.701h0.003z" />
<glyph unicode="&#xe9e4;" d="M6.035 743.866l182.363-680.58c31.766-118.66 171.903-163.886 266.471-94.611 7.605 5.621 14.321 11.412 20.578 17.663l498.217 498.217c93.41 93.41 50.671 252.881-76.949 287.047l-680.58 182.363c-127.534 34.209-244.308-82.565-210.098-210.098z" />
<glyph unicode="&#xe9e5;" d="M568.641 700.055c28.927 29 68.927 46.941 113.118 46.941 0.064 0 0.129 0 0.193 0h-0.010v-160.242l113.301-113.301c-29.044-29.284-69.295-47.413-113.782-47.413-88.495 0-160.234 71.739-160.234 160.234 0 44.486 18.129 84.738 47.402 113.771l0.011 0.011z" />
<glyph unicode="&#xe9e6;" d="M681.943 746.996c88.501-0.013 160.241-71.761 160.241-160.264 0-44.255-17.938-84.321-46.939-113.323v0l-113.301 113.301z" />
<glyph unicode="&#xe9e7;" d="M510.469 121.759c15.99 13.332 54.7 51.871 74.677 71.976 6.326 6.093 10.256 14.636 10.256 24.097 0 7.265-2.317 13.988-6.251 19.472l0.068-0.1c-1.002 1.289-2.026 2.436-3.123 3.509l-0.006 0.006c-8.445 8.316-13.804-0.3-22.549-6.13-40.682-27.136-123.418-64.346-164.015-75.877-42.568-12.089-56.715-42.354-26.364-85.994 17.105-24.692 90.924 10.331 137.308 49.042z" />
<glyph unicode="&#xe9e8;" d="M137.77 136.677c0-0.643 0.129-1.243 0.129-1.886 1.972-28.036 4.587-55.558 7.331-81.707 10.074-96.883 22.677-173.489 22.677-173.489h250.095c0.049 0 0.108 0 0.166 0 43.059 0 77.965 34.906 77.965 77.965 0 4.226-0.336 8.374-0.984 12.418l0.059-0.445c-6.73 43.726-14.061 100.527-18.948 163.801-0.514 6.859-0.986 13.718-1.5 20.663-3.129 45.698-4.587 94.139-3.472 143.224v0.514c0.643 28.636 2.101 57.53 4.716 86.166-1.372 17.705 27.779 96.754-70.733 100.741l-142.752 5.959c-51.056 2.229-91.524-33.738-110.729-79.478-1.886-4.373-3.472-9.088-5.101-14.189-17.662-58.215-16.419-161.357-8.917-260.255z" />
<glyph unicode="&#xe9e9;" d="M137.77 136.677c0-0.643 0.129-1.243 0.129-1.886l42.954 19.419 22.163 260.169-56.286-17.447c-17.705-58.215-16.462-161.357-8.96-260.255z" />
<glyph unicode="&#xe9ea;" d="M137.727 136.72c2.015-28.636 4.716-56.886 7.502-83.594 12.265 5.663 22.44 11.224 32.214 17.366l-1.177-0.69c10.931 6.73 31.551 21.649 51.014 36.010l42.225 31.423c-0.528-1.037-0.837-2.261-0.837-3.557 0-2.389 1.050-4.533 2.714-5.995l0.009-0.008v-0.129c1.415-0.926 3.148-1.478 5.011-1.478 0.379 0 0.754 0.023 1.121 0.067l-0.044-0.004 188.193 19.977c4.277 0.792 7.691 3.822 9.021 7.805l0.024 0.083c-3.044 45.698-4.587 94.139-3.429 143.266v0.386l-170.488-79.264c-1.8-0.386-3.558-0.772-5.359-1.286-14.875-4.073-25.935-21.52-34.981-35.881-4.716-0.129-9.56-4.33-15.776-7.245-26.407-12.689-68.547-26.793-106.957-37.253z" />
<glyph unicode="&#xe9eb;" d="M614.082 317.496c-0.162-1.416-0.479-2.707-0.937-3.928l0.037 0.113-58.773-142.023c-3.119-6.718-9.506-11.449-17.063-12.168l-0.084-0.006-248.209-7.331c-0.083-0.002-0.18-0.004-0.278-0.004-2.157 0-4.157 0.675-5.799 1.826l0.032-0.022v0.129c-1.393 1.464-2.25 3.45-2.25 5.636 0 1.473 0.389 2.856 1.071 4.050l-0.021-0.040 58.773 142.195c3.077 6.64 9.413 11.304 16.899 11.955l0.077 0.005 248.209 7.331c0.34 0.057 0.731 0.089 1.131 0.089 3.982 0 7.21-3.228 7.21-7.21 0-0.209-0.009-0.417-0.026-0.622l0.002 0.027z" />
<glyph unicode="&#xe9ec;" d="M314.217 254.394c-22.249-4.458-38.539-38.925-50.456-49.042-14.404-12.218 1.243-23.449 21.477-27.050 18.133-3.215 42.74-0.729 53.757 7.974 9.345 7.373 21.006 16.033 31.251 44.969 8.316 23.663-27.007 28.979-56.029 23.149z" />
<glyph unicode="&#xe9ed;" d="M577.729 269.527c-22.249-4.458-38.539-38.925-50.456-49.042-14.404-12.218 1.243-23.449 21.477-27.050 18.133-3.215 14.104-13.589 25.121-4.844 9.345 7.373 21.006 16.033 31.251 44.969 8.359 23.663 1.672 41.797-27.393 35.967z" />
<glyph unicode="&#xe9ee;" d="M32.528 133.462c0.043 1.157 0.086 2.315 0.214 3.429 2.101 28.636 14.961 65.16 24.992 94.568 15.561 45.655 38.967 119.817 85.737 206.583 22.292 41.368 54.443 54.786 108.672 52.514 21.349-0.9-31.208-98.169-42.783-124.919-12.346-28.636-31.423-80.121-63.66-160.071-2.829-7.030-5.83-14.918-9.002-23.063 42.526 7.716 93.11 20.32 123.89 32.451 9.817 3.858 15.733 10.288 23.363 1.243 5.414-6.186 8.717-14.34 8.717-23.265 0-5.536-1.271-10.775-3.536-15.442l0.092 0.211c0 0-78.878-48.57-104.256-61.859-53.5-28.036-133.021-46.727-144.595-19.034-1.286 3.129-2.444 6.13-3.387 9.088-2.964 6.615-4.691 14.337-4.691 22.462 0 1.796 0.084 3.573 0.249 5.326l-0.017-0.224z" />
<glyph unicode="&#xe9ef;" d="M381.906 485.712c-5.058-21.177-23.406-35.066-48.956-33.995s-61.859 17.233-78.364 39.353z" />
<glyph unicode="&#xe9f0;" d="M439.436 747.853c47.798-40.854 9.645-178.462-10.974-176.361l-43.854 30.78c-33.652 5.273-23.663 212.628 54.829 145.581z" />
<glyph unicode="&#xe9f1;" d="M376.676 484.126c-9.945 48.956 1.157 101.47 10.374 145.71 0.825 3.436 1.299 7.381 1.299 11.437 0 24.29-16.976 44.614-39.71 49.757l-0.341 0.065c-31.080 6.645-62.417-13.032-68.804-42.397-3.172-14.618-39.139-61.216-17.062-162.9z" />
<glyph unicode="&#xe9f2;" d="M449.124 639.353c-2.444-79.693-44.798-144.767-108.543-144.467s-113.43 65.074-111.029 144.767c2.401 79.693 56.072 144.081 119.817 143.824s102.156-64.431 99.755-144.124z" />
<glyph unicode="&#xe9f3;" d="M233.024 645.526c-28.079-16.376-38.153 164.015 31.037 133.15 56.886-25.378 2.658-138.465-31.037-133.15z" />
<glyph unicode="&#xe9f4;" d="M308.901 700.269c95.897-66.146 147.425-8.102 178.847 27.865-11.359 0.934-21.622 4.974-30.125 11.259l0.16-0.113c0 0 15.004 8.659 32.494 18.476-13.613 3.53-25.52 8.312-36.618 14.388l0.823-0.412c0 0-8.574-0.429 13.632 11.403-30.258 14.936-65.631 27.883-102.514 37l-3.671 0.768c-41.068 9.817-144.381 14.189-127.062-48.741 1.551-5.51 3.406-10.248 5.661-14.752l-0.216 0.477c13.203-26.921 34.381-34.038 68.59-57.615z" />
<glyph unicode="&#xe9f5;" d="M251.543 651.956c6.087-24.049 0.429-46.341-12.56-49.77s-28.465 13.289-34.552 37.381c-6.087 24.092-0.429 46.341 12.56 49.77s28.465-13.332 34.552-37.381z" />
<glyph unicode="&#xe9f6;" d="M795.249 700.065c62.579-62.579 62.579-164.038 0-226.617s-164.038-62.579-226.617 0c-62.579 62.579-62.579 164.038 0 226.617s164.038 62.579 226.617 0z" />
<glyph unicode="&#xe9f7;" d="M730.384 625.249c-2.786-5.273-5.873-10.288-9.088-15.133s-6.602-9.56-10.074-14.147c-6.945-9.217-14.361-17.962-22.034-26.407-1.793-1.965-4.364-3.193-7.223-3.193-2.539 0-4.851 0.969-6.588 2.557l-0.079 0.079-0.643 0.6c-6.602 6.13-13.161 12.346-19.377 18.862-6.302 6.473-12.389 13.118-18.219 20.020s-11.489 14.018-16.847 21.434c-5.012 6.747-9.912 14.414-14.274 22.416l-0.516 1.033c9.035-4.878 16.702-9.778 23.984-15.168l-0.535 0.378c7.416-5.316 14.532-10.974 21.434-16.847s13.546-11.917 20.020-18.219c6.473-6.302 12.732-12.775 18.862-19.377h-14.532c8.445 7.673 17.19 15.090 26.407 22.034 4.587 3.472 9.302 6.859 14.147 10.074 4.887 3.129 9.903 6.216 15.175 9.002z" />
<glyph unicode="&#xe9f8;" d="M6.036 152.158l182.357 680.56c31.765 118.657 171.898 163.881 266.463 94.608 7.605-5.62 14.321-11.412 20.578-17.663l498.202-498.202c93.408-93.408 50.669-252.874-76.947-287.039l-680.56-182.4c-127.53-34.165-244.3 82.562-210.092 210.135z" />
<glyph unicode="&#xe9f9;" d="M190.236 576.587h193.674c4.938 0.024 8.935 4.021 8.959 8.957v65.503c-0.024 4.938-4.021 8.935-8.957 8.959h-193.676c-4.938-0.024-8.935-4.021-8.959-8.957v-65.503c0.024-4.938 4.021-8.935 8.957-8.959h0.002z" />
<glyph unicode="&#xe9fa;" d="M363.163 587.689v-37.723l-48.097 37.723z" />
<glyph unicode="&#xe9fb;" d="M183.163 306.909c14.361 37.037 0 91.95 0 91.95-1.372 6.087-17.961 23.32-23.706 18.176s8.616-13.075 5.744-29.707-10.974-12.303-15.432-8.316-5.744 110.469-16.89 112.355-6.816-78.533-8.616-92.593-15.904-9.174-21.905-14.575-2.872-8.745-9.345-14.489-7.888-18.519-4.673-37.037 31.636-49.469 31.636-63.529c0-2.658-0.9-24.82-1.843-46.682 15.475-1.372 32.022-7.202 46.597 1.929 1.48 30.091 8.116 58.243 19.041 84.143l-0.608-1.624z" />
<glyph unicode="&#xe9fc;" d="M106.902 386.556s53.327-46.254 43.082-55.342-53.027 40.038-53.027 40.038 47.497-42.996 39.095-50.455-49.469 28.85-49.469 28.85 43.296-33.051 35.537-36.866-35.537 22.591-35.537 22.591c-1.649 3.828-2.608 8.285-2.608 12.965 0 1.004 0.044 1.998 0.131 2.98l-0.009-0.127c1.457 5.959-0.943 8.445 0.257 12.131 2.261 4.439 5.223 8.195 8.784 11.278l0.046 0.039c2.358 2.1 3.301 15.346 13.718 11.917z" />
<glyph unicode="&#xe9fd;" d="M407.445 359.593c-24.649-7.416 5.401-30.479-20.491-92.808-14.961-36.051-91.95-101.853-108.54-111.583l6.387 24.22c-11.188-4.415-91.136-91.007-95.251-76.175-18.647 66.83-26.32 140.519-24.22 183.343-19.89-6.516-26.835 14.146-45.782 18.647-4.072-74.46-10.631-278.68 49.254-283.824 22.72-1.972 70.517 15.132 106.311 45.182 30.346 26.296 57.663 54.279 82.511 84.376l0.951 1.187 81.233 181.414c-0.043 0.043-7.716 33.479-32.365 26.020z" />
<glyph unicode="&#xe9fe;" d="M542.862 749.813s55.47 6.816 70.388-26.492c29.578-66.101 52.77-198.175 52.77-254.803 0-22.977 1.457-107.897 1.457-107.897s-76.904 23.105-109.269 0-154.451 6.216-154.451 6.216 26.449 54.741 26.449 210.993c0 93.879 59.8 184.544 112.655 171.983z" />
<glyph unicode="&#xe9ff;" d="M268.255 169.476c38.195 50.841 122.643 229.040 154.494 231.955 43.596 3.944 43.51-4.501 43.51-4.501s19.376-129.373-30.136-141.205c-32.665-7.802-76.389-82.005-117.928-129.931-13.889 17.35-30.421 31.888-49.114 43.217l-0.826 0.465z" />
<glyph unicode="&#xea00;" d="M859.523 167.933c3.644-3.301 11.403-15.818 14.618-16.675 40.552-11.017 232.855 154.408 254.717 169.797s63.958 12.089 82.691 12.089 45.268 18.133 57.742 18.133-3.129-23.105-23.406-25.849-3.129-16.504 10.16-19.247 62.801-10.16 81.919 3.301 44.453 18.69 44.453 12.646-40.595-24.22-40.595-24.22 59.285 17.061 59.285 9.902-51.484-17.618-51.484-17.618 32.365 2.486 39.009-2.186-83.505-18.69-99.881-18.69-102.196 21.434-130.274 29.15-188.016-210.092-312.845-230.454c0 0-23.877 22.334-50.54 53.327 19.036 16.448 40.087 31.823 62.346 45.415l2.083 1.182z" />
<glyph unicode="&#xea01;" d="M662.719 392.3s29.193 14.575 60.4 6.902c28.721-7.073 94.479-193.117 136.361-231.226-24.347-14.803-45.396-30.163-65.062-47.085l0.632 0.532c-20.473 22.962-38.922 48.569-54.567 75.983l-1.16 2.207c-29.493 55.813-40.424 56.671-61.986 67.173-37.337 18.219-14.618 125.515-14.618 125.515z" />
<glyph unicode="&#xea02;" d="M795.093 121.422c-14.318 22.763-34.68 51.312-48.483 77.204-27.821 50.755-39.566 57.699-69.231 68.202 15.732-10.117 21.348-10.417 35.751-32.236 17.961-28.421 31.036-68.159 81.962-113.17z" />
<glyph unicode="&#xea03;" d="M786.434 120.608s-19.205 5.358-20.019 11.746-17.104 8.745-20.662 14.746 57.699 34.38 85.82 48.269 23.32-2.143 29.793-9.559 13.975-7.716 14.961-15.261-69.659-56.413-89.893-49.94z" />
</font>
</defs>
</svg>
