<svg xmlns="http://www.w3.org/2000/svg" xmlns:xlink="http://www.w3.org/1999/xlink" width="238.886" height="238.882" viewBox="0 0 238.886 238.882"><defs><style>.a{fill:none;}.b{clip-path:url(#a);}.c{fill:#5bbd72;}.d{fill:#130000;}.e{fill:#3c2415;}.f{fill:#411227;}.g{fill:#421f6c;}.h{fill:#a6d7b1;}.i{fill:#f15f5c;}.j{fill:#207346;}.k{fill:#f37575;}.l{fill:#581a35;}.m{fill:#ce85a5;}.n{fill:#deadc3;}.o{fill:#8b5e3c;}.p{fill:#a97c50;}.q{fill:#fff;}.r{fill:#d7d9da;}.s{fill:#fbbf9c;}.t{fill:#adb0b2;}.u{fill:#fab18d;}.v{fill:#363a68;}.w{fill:#00757b;}.x{fill:#f99d3e;}.y{fill:#492801;}.z{fill:#603913;}.aa{fill:#199fa7;}.ab{fill:#20bec6;}.ac{fill:#1e3440;}.ad{fill:#eff1f9;}</style><clipPath id="a"><path class="a" d="M224.56,52.08a26.59,26.59,0,0,0,.81-6.46c0-15.54-13.61-28.14-30.4-28.14-11.86,0-22.12,6.29-27.13,15.46l-13.67-3.67-20.44-5.48L50.17,1.41c-29.75-8-57,19.26-49,49L43.7,209.18c8,29.77,45.17,39.74,67,17.95L226.88,110.91a39.968,39.968,0,0,0-2.32-58.83Z"/></clipPath></defs><g class="b" transform="translate(0.244 0.003)"><path class="c" d="M50.17,1.41l83.56,22.38,20.44,5.48,30.25,8.11L208.93,44c27.68,7.41,38.24,40.1,22.07,62.16a40,40,0,0,1-4.12,4.8L110.66,227.13c-21.79,21.79-59,11.82-67-17.95L1.16,50.42C-6.82,20.67,20.42-6.57,50.17,1.41Z"/><path class="d" d="M174.75,52.31c-4.76,1.32-8.55,2.7-8.29,8.42a7.91,7.91,0,0,0,1.4,4.33,8.59,8.59,0,0,0,0,7.61,6.111,6.111,0,0,0-.44.6,10.61,10.61,0,0,0,2.54,13.25c4.74,3.9,11.57-2.85,6.79-6.79-2-1.65,1.38-4.37,2.14-6.5a4.56,4.56,0,0,0-1.52-4.86,5.351,5.351,0,0,1,.86-.35c3.16-1.34,2.77-5.19.95-7.39C182.56,57.78,180,50.86,174.75,52.31Z"/><path class="e" d="M146.78,115l8.66,2.31s-18.53-32.78-16.88-55.46c.87-12-18.77-29.62-24-26.89-.32-.13-17.44.37-19,39.48L92,120.3l18.5,16.38s11.65-20,26.48-11.2S156.34,134,156.34,134,146.78,119.26,146.78,115Z"/><path class="f" d="M134.12,97.53s-16.36-8.14-29.43.67l1.23,9.74,13.49,28.71,12.89-2.9,6.24-30.28Z"/><path class="f" d="M60.39,397.1s59.26-23.15,114.32-.68L149.42,179.21,101,190.13Z"/><path class="g" d="M177.47,165.91l-.1-.09c.83-2.06,2-4.53-.56-6.34-3.56-2.47-3.42-.68-3.42-6.17,0-5.13-1.38-5.88-5.32-7.14l-.42-1.4c-4.94-16.9-20.06-42.59-24.78-44.61S137,111,137,111l15.52,49.16s3.86,6.83,9.32,14.54a14.43,14.43,0,0,0,3.29,4.48c1.08,1.41,2.19,2.81,3.33,4.16l11.77-8Z"/><path class="h" d="M141.63,100.71s-9.62-7.45-42-.65c-1.58.33-4,37.6-4,37.6s10.81,58.28,7.75,73.7c0,0,22.8,18.93,49.79,5.75,0,0-3.34-48.58-.86-59.39s7.41-20.6.51-31.85S141.63,100.71,141.63,100.71Z"/><path class="i" d="M155.46,214.28a11.51,11.51,0,0,1-1.76,2.27c-1.09,1.1-10.33,4.16-10.33,4.16l5.51-3.21S155.46,213.36,155.46,214.28Z"/><path class="g" d="M104.69,98.2s21.41,211.38-1.23,272.87C90.26,406.94,77.32,409.82,68.84,406A17.3,17.3,0,0,1,59,389.94c.23-23.38,2.21-98.86,17.76-151.38,18.85-63.71,9.65-71.63,9.65-82.16,0-18.25,2.83-44.73,7.12-55.13C94.13,99.83,104.69,98.2,104.69,98.2Z"/><path class="j" d="M117.9,96.2c3.64-.07,7.77,1.2,14.55,1.93.63.07,1-.67,1.67-.6-7-6.68-33.49-10.24-35,1.13-10.45,77.48,15.12,222.63,4.36,272.41,24.66-50,19.55-185.81,5-263.52C107.2,100.75,111,96.32,117.9,96.2Z"/><path class="g" d="M134.12,97.53c14.91,16.85,21,292.45,40.59,298.89,0,0-1.08-80.52-1.08-100.76s-8.89-154.09-13.14-165.32-17.62-30.18-17.62-30.18Z"/><path class="j" d="M134.12,97.53c-.22-.22-2.43-1.26-2.26-.91,8.54,18.23,12.59,184,32.71,269.09C161.85,330.37,151.28,115.37,134.12,97.53Z"/><path class="i" d="M166,176s1,32.76-15.71,39.54-19.75,14.16-18.43,15,2.71-3.13,4.35-3.2.9,3-1.72,4.34-7,.49-6.55,1.56,5.9,1.64,9.83-1.15,1.23.49-.41,1.15-7.59.63-6.55,1.68,9.27,1.18,12.57-.91,17-14.66,20.26-17.87,16.78-31.86,16.78-39.23S166.56,166.07,166,176Z"/><path class="k" d="M129.24,229.15l1.24-.89s5.19.05,7.37-1,4.84-1,3.85,0-5.9,2.15-4.92,4.82S129.24,229.15,129.24,229.15Z"/><path class="k" d="M147.85,230.6c-.93.57-2.9.8-4.95,1.51s9.27-4.29,9.27-5.93-9.48,3.38-12.24,4.56c-3.14,1.33-8.13-1-9.45-2.48,0,0-39.09-13.12-49.47-20.47-.93-.67-3.33-4-3.05-6.59-6.67.6-13.23,2-19.18,5.2.07,4.09-1.09,9.09,0,11.11,6.78,12.48,50.9,17.16,60.18,17.16s18.36,2.21,20.94,2.21,14.57-6.57,14.93-9.64C155.16,224.35,149.07,229.84,147.85,230.6Z"/><path class="l" d="M82.26,167.12c6.78-7.65,9.13-28,9.13-42.27a111.161,111.161,0,0,0-2.23-23.58s-15-.59-23.42,15.5C57,133.66,45.05,151,56.33,205.34c5.94-3.19,15-3.54,21.63-4.14C79.49,187.53,76.55,173.57,82.26,167.12Z"/><path class="m" d="M55.15,201.52s-1.36,4.33,0,5.75-.3,4.65.6,6.45,15.64-2.9,22.61-4.88,2.64-4.39,1.81-7,.12-3.92-1.48-5.6S56.38,196.79,55.15,201.52Z"/><path class="n" d="M57,207.79c5.32-2.13,15.32-5.59,21-4.76.88.13.66,1.54-.22,1.36-.14,0-2.93-.9-10.4.63A89.5,89.5,0,0,0,57,207.79Z"/><path class="o" d="M128.08,70.68c.89.74-2.7,22.28.85,28.25,0,0,9.32,30.8,3,31.44-5.51.55-25.48-24.85-26.58-29.1-1.47-5.72,0-34.33,0-34.33Z"/><path class="p" d="M125.93,36.6s9.64,1.7,10.79,9.37,2.75,14.05,1.14,23-7.34,20.86-16.75,22.78-19.27-12.56-19.27-20.44-3.44-21.08,3-29.18S125.93,36.6,125.93,36.6Z"/><path class="e" d="M118.87,30.08c-6.54.75-16.9-.85-21.73,9.83C94.29,46,88.45,57.66,88.45,78.43c0,30.94-29.85,44.64-29.85,44.64l13.09,6.32,7.81-6.32-5.33,11.36,21.45,2.14.92-14.82L101,138.6l10-2s-4-50.64-4.39-69.76l.11.13s-.09-2.46-.09-5.63h0a27.09,27.09,0,0,0,0-2.85,58,58,0,0,1,.6-8.38c1-5.23,2.89-7.9,7.59-10.15s21.53,4.15,21.53,4.15C135.79,34.32,125.41,29.34,118.87,30.08Z"/><path class="e" d="M145.07,53.05c-6.73-6.73-9.21-19.39-17.44-21.2s-13,4.36-12.79,8.06c0,0,8.65,18.91,17.73,21.9a30.66,30.66,0,0,1,5.19,2.2c1.81,2-.8,5.57-1.83,7.34a4.34,4.34,0,0,0-.15,4.46,4.46,4.46,0,0,0,4.59,4.11,4.87,4.87,0,0,0,2.09-.44c1.47-.09,3.11-.94,4.42-3.57C150.09,69.5,151.8,59.78,145.07,53.05Z"/><path class="p" d="M108.43,67.9s-2.29-9.92-6.09-7.52.28,13.37,3.83,13.37S108.43,67.9,108.43,67.9Z"/><path class="q" d="M-5.28,103.38s-8,2.48-11.4,15c-4.86,17.82-1.13,95.75,18.25,108.81.76.52,32.42-19.36,32.42-19.36L15.53,187.28l10.78-13.86Z"/><path class="q" d="M76.92,109.2s6,3.85,10.55,22.24,9.86,80.09,7.19,82.75-16.52,0-16.52,0l-6.53-87.41Z"/><path class="r" d="M.58,130.24s11.73,53.3,9.07,67.16-19.73,93.81-19.73,93.81H81.6s3.2-87.94,0-108.2-1.59-64-4.26-73S1.34,99.8-5.28,103.4Z"/><path class="s" d="M56.37,188.35l11.2.35s2.66-3.73,4.26-4.36,6.22.18,8.09,3.42S82.49,196.05,83,198s-4.54,1-7.65,1S54,201.14,54,201.14Z"/><path class="s" d="M17.24,193.14l-.78-.67c-1.89-1.65-6.88-6.06-11-10.12C.38,177.21-6.75,171.29-6.75,174S6.69,186.66,5.51,187.84s-15.32-7.62-14.39-4.63,15.28,8.46,13,9.4-10.24-3.74-10.24-1.34S9.64,199,14.31,199,17.24,193.14,17.24,193.14Z"/><path class="t" d="M41.09,211.26c1.6,0,49.84,8.53,53.57,2.93,0,0,2.59-10.92.5-15.19s-38.61-2-38.61-2Z"/><path class="q" d="M-4.18,204.73s.1-.33.31-.9c1.05-2.85,5-11.56,14.62-13.49,11.55-2.31,48.33-5.5,48.33-5.5v16.7s-47.8,26.13-55.62,26.13S-4.18,204.73-4.18,204.73Z"/><path class="u" d="M57.18,85.74,54,107.88c-.65,4.55-5.43,7.88-10.94,7.68-1.39,0-2.85-.14-4.32-.29-7.37-.77-14.26-5-12.77-11.09,1.92-7.76,6.29-20.65,6.22-27.45C32.05,65.6,57.18,80.06,57.18,85.74Z"/><path class="s" d="M48.25,33.4c1.18,1.08,14.16.23,18.41,12.53S66,86.41,57.77,94s-17.71,2.81-25-9.93S11.2,54.92,21.65,42.8C27.21,36.36,48.25,33.4,48.25,33.4Z"/><path class="v" d="M159.05,138.6s-4.67,28-19.33,46.77c-10.95,14.06-33.88,29.74-33.88,29.74l13,14.22,35.79-29.54Z"/><path class="w" d="M178.65,112.46h28.71l-.93,94.42-38.11,2.57Z"/><path class="x" d="M238,137.57c-9.05-10.15-30-26.37-53.05-22.46l-24.11,10.71-7.09,52L147.39,277l86,1,8.18-96.48S247,147.74,238,137.57Z"/><path class="y" d="M180.23,99.45s-.28,14.69-2.49,22.17c-.85,2.9,1.23,5.86,5.1,6.92a29.15,29.15,0,0,0,11.34.68c12.29-1.49,12.71-10.27,12.71-10.27l-4.14-26.79Z"/><path class="z" d="M184.7,50.12A35.65,35.65,0,0,0,175,65.57a59.94,59.94,0,0,0-2.38,18.75s-2.49,13.52-.55,18.13c2.93,7,15.31,12.67,29.34-3.09s15.22-29.67,12.83-36.46S190.2,46.62,184.7,50.12Z"/><path class="d" d="M222,71.61c2.12-4.62,1-8.13-1.93-10.82a5.26,5.26,0,0,0,.7-1.92,8.67,8.67,0,0,0-1.3-6.09,9.51,9.51,0,0,0-6.17-4c-.23-2.83-1-5.55-3.67-7a5.24,5.24,0,0,0-5.52-.23,7.6,7.6,0,0,0-3.07-3.1c-1.1-.64-2.33.07-3.53,1.45A7.81,7.81,0,0,0,196,38.75a7.17,7.17,0,0,0-6.79-.06c-.2.1-.38.24-.57.35a18.32,18.32,0,0,0-3.54-1.43c-13.94-4.12-18.55,6.78-15.62,14s10.82,7,10.82,7c-1.74,2,1.28,5.77,10.27,3.3A16.59,16.59,0,0,1,202.31,63a4.91,4.91,0,0,0,2.28,5.21c-1.26,3.35-2.83,8.35-1,8.35,2.75,0,2.75,4.94.18,13.39s.62,14,.62,14c0-3.59,9.82-14.34,13.81-22.77,4.19-.43,5.14-5.58,2.84-8.14a4.6,4.6,0,0,0,.96-1.43Z"/><path class="z" d="M201.82,82.12s.9-7.11,2.89-7.11,3.85.77,3.37,4.79-2.54,8.5-5.16,6.64A3.18,3.18,0,0,1,201.82,82.12Z"/><path class="aa" d="M175.79,116.06l-6.41,192.37H129.5l11.76-87.38L149,167.93s3.74-35.73,11.86-42.11a95.67,95.67,0,0,1,14.93-9.76Z"/><path class="aa" d="M207.8,115l-4.2,193.42h42.71s1.61-153.3-3.12-169.33S207.8,115,207.8,115Z"/><path class="ab" d="M160.28,123.21l18.37-10.75-5.48,95.64-10.52-54.25,3.55-2.44Z"/><path class="ab" d="M206.07,208.1l1.29-95.64,16.37,7.45-8.92,31.43,2.27,1.77Z"/><path class="ac" d="M130.7,235.32,71.5,190.05l62.7-5.82,47.41,51.09Z"/><path class="k" d="M163.68,216.1s6.43,1.47,8.81,4.07c3,3.32,10.24,8.72,13.27,8.72s15.92,1.28,15.92,1.28l2.16,14.49s-48.1-11.25-50.37-13.72,11.28,1.83,11.28.73-16.31-2.34-15.47-5.13,15.05,3.75,16.32,2.37-17.16-3.68-17.16-6.62,18.33,4.25,18.33,4.25.34-1.49-4.62-3.88-9.78-4.32-8.68-5.52,13.79,6.42,15.46,4.59Z"/><path class="aa" d="M231.42,135.36s-7,13.06-5.59,31.87,3.77,47.67-.14,57.07-32.59,0-32.59,0v22.27s41.58,17.25,53.62,11.6,10.89-54.25,10.89-78.08S239.1,118.26,231.42,135.36Z"/><path class="ad" d="M231.42,135.36c-3.45,7.57-5.72,18.77-5,30.41,1.29,17.51,5.37,55.52-2.1,61.3-7.2,4.53-23.47,0-31.23-2.77,7.61,2.07,29.14,7.14,31.94-.34,2.38-6,2-20.44,1.78-26.87-.87-27.78-4.2-37.58,1.54-54.54a44.76,44.76,0,0,1,3.07-7.19Z"/><path class="o" d="M83.25,22.5s-7.85,10.15-12.64,8A3.51,3.51,0,0,1,69,29a19.22,19.22,0,0,0-18.24-9.25H50.1c-2,0-4.7,2.07-6.41,3.62-1.19-.47-4-1-9.73-1.49-17.18-1.47-20.8,20.57-19.39,27.49,1.61,7.88,10.68,23.11,12.71,30.06l4.55,2.44c3.27-9.06-2.71-22.44-2.71-29.35,0-8.39,4-11.4,7.49-14,2.62-1.94,10.09-6.14,11.18.34s7.57,15.37,23,5.66S83.25,22.5,83.25,22.5Z"/><path class="s" d="M30.22,62.31s5.25,10.25,1.53,9.46-11-6.09-9.43-13.4S30.22,62.31,30.22,62.31Z"/><path class="e" d="M108.29,121c-2.44-13.53.7-27.46-.9-41.09-.72-6.06-10.32-6.13-9.6,0,1.11,9.43.16,18.82.09,28.26A87.93,87.93,0,0,0,98.51,120c-3.13-.43-6.26,3.2-5.12,6.58a3.69,3.69,0,0,0-1.75,1.78,22.68,22.68,0,0,0-1.06,2.75,5.35,5.35,0,0,0-3.33-.48c.07.28.15.56.22.85.67,2.73,1.36,6.42,2,10.73a8.58,8.58,0,0,0,3.74-.39l.57-.22a6.65,6.65,0,0,0,8.43.05l.08-.08c3.14,1.22,6.58.92,8.51-2.74C113.69,133.39,109.26,126.37,108.29,121Z"/></g></svg>