<svg xmlns="http://www.w3.org/2000/svg" xmlns:xlink="http://www.w3.org/1999/xlink" width="238.864" height="238.877" viewBox="0 0 238.864 238.877"><defs><style>.a{fill:none;}.b{clip-path:url(#a);}.c{fill:#f99d3e;}.d{fill:#292728;}.e{fill:#532f09;}.f{fill:#270046;}.g{fill:#057b81;}.h{fill:#ffeedf;}.i{fill:#56c5cd;}.j{fill:#98d7dd;}.k{fill:#a5dce0;}.l{fill:#421f6c;}.m{fill:#603913;}.n{fill:#200;}.o{fill:#414042;}.p{fill:#86888b;}.q{fill:#f37575;}.r{fill:#111829;}.s{fill:#754c29;}.t{fill:#5c427f;}</style><clipPath id="a"><path class="a" d="M188.45,1.41,82.17,29.89,57.86,0,21.94,3.15,16.79,50c-19.25,13.66-23.28,42.69-5,60.93L128,227.13a39.232,39.232,0,0,0,4.8,4.12c22.06,16.17,54.75,5.61,62.16-22.07l6.57-24.51,8.1-30.25L215.08,134l22.39-83.56C245.45,20.67,218.21-6.57,188.45,1.41Z"/></clipPath></defs><g class="b" transform="translate(-0.014)"><path class="c" d="M237.47,50.42,215.08,134l-5.48,20.44-8.1,30.25-6.57,24.51c-7.41,27.68-40.1,38.24-62.16,22.07a39.232,39.232,0,0,1-4.8-4.12L11.75,110.91C-10,89.12-.07,51.92,29.69,44L188.45,1.41C218.21-6.57,245.45,20.67,237.47,50.42Z"/><path class="d" d="M123.52,107.39c-4.85.61-7.4-6.44-13.18-7.94s-17.53-2-17.65-2V96.7c.12,0,12,.53,17.81,2s8.55,8.47,12.89,7.92a3,3,0,0,0,2.25-1.28c1.21-1.82.21-6.29.29-5.61l.82.49c0,.13.92,3.44-.49,5.54a3.72,3.72,0,0,1-2.74,1.63Z"/><path class="e" d="M76.14,112.51l-3.02-2.34.88-3.02,3.71,2.76Z"/><path class="d" d="M126.83,94.92l-1.35,5.16,1.99.78,2.28-5Z"/><path class="e" d="M138.8,159.7c.21-.06-.9.21-1.34.27-15.07,1.92-39-35.72-39-35.72L86.58,100.34l-10.66,10.4s2.54,7.9,3.93,8.46c1.61.65,8.94,14.32,9.74,20.56S117,184.9,144.15,179.11c.67-.14,1.33-.3,2-.48C145.94,177.73,144.3,165.27,138.8,159.7Z"/><path class="f" d="M165.35,116.72c-7.91,5.16-18.38,32.44-32.06,37.43,5.56,5.63,12.65,23.58,12.85,24.48,25.82-6.76,38.34-35.12,41.67-48.1C191.21,117.23,173.78,111.21,165.35,116.72Z"/><path class="g" d="M99.83,59.71s-26.7,56.76-29.12,57.07-5.32.77-5,3.2,9.4,10.38,9.4,10.38l41.22-45.7Z"/><path class="g" d="M75.1,130.36l41.22-45.7L99.83,59.71s-4.55,9.68-10.07,21.06c4.52,3.69,9.48,9.86,8.38,14.29C96.44,101.89,75.1,130.36,75.1,130.36Z"/><path class="h" d="M141.8,74.81l-.8,2.06c.18,1.8,5.62,5,7.94,6.19a4.81,4.81,0,0,0,0-5.42C147,74.61,141.8,74.81,141.8,74.81Z"/><path class="i" d="M47.25,5.81,31.12,85.45S55.57,66.51,88,74.91c11,2.86,17.3,6.1,20.69,8.36a16.93,16.93,0,0,0,18.63.26,17.94,17.94,0,0,0,5.38-5.39c4.36-7,4.89-20.24-2.54-25.61-3.13-2.27-7.4-2.38-11.06-3.16-9.66-2-24.3-5.3-33.59-8.62C69.55,35.07,48.73,14.74,47.25,5.81Z"/><path class="g" d="M111.5,47.73c-2.36-.53-4.82-1.09-7.31-1.69L94.11,76.7c2.62.84,4.89,1.7,6.84,2.53Z"/><path class="g" d="M130.11,52.53c-3.13-2.27-7.4-2.38-11.06-3.16l-1.33-.28-10.4,33.34c.48.29.92.58,1.32.84a16.93,16.93,0,0,0,18.63.26,17.94,17.94,0,0,0,5.38-5.39C137,71.11,137.54,57.9,130.11,52.53Z"/><path class="j" d="M34.22,59.91l-4.33,29,7.57,1c.83.11,2.09.27,5.08-12.63,1.62-7,3.33-16.1,4.87-25.94.19-1.24.39-2.5.58-3.77.56-3.75,1.07-7.43,1.52-11,.91-7.09,1.58-13.61,2-19,.57-8.3.28-11.43-.22-12.64L42.72,3.16Z"/><path class="g" d="M34.22,59.91l-4.33,29,7.57,1c.83.11,2.09.27,5.08-12.63,1.62-7,3.33-16.1,4.87-25.94-2.55,4.31-5.16,7.86-7.26,8.82A6.54,6.54,0,0,1,34.22,59.91Z"/><path class="g" d="M30.4,85.46c.83.11,2.09.27,4.94-11.73,1.75-7.34,3.57-17.16,5.14-27.64s2.7-20.4,3.17-27.9c.78-12.27-.48-12.43-1.31-12.53s-2.09-.27-4.94,11.73C35.65,24.73,33.83,34.55,32.26,45s-2.7,20.4-3.17,27.9C28.31,85.19,29.57,85.36,30.4,85.46Z"/><path class="k" d="M31.46,45.23c-1.59,10.58-2.72,20.58-3.21,28.15a85.545,85.545,0,0,0-.2,8.75c.11,2.22.05,6.54,1.84,6.77s3-4,3.75-6.06A85.8,85.8,0,0,0,36,74.37c1.77-7.37,3.61-17.31,5.2-27.89s2.72-20.57,3.2-28.15a82.723,82.723,0,0,0,.2-8.75c-.11-2.21-.1-6.19-1.89-6.42S39.77,6.76,39,8.87a83.542,83.542,0,0,0-2.37,8.47C34.88,24.75,33,34.65,31.46,45.23Zm1.51.2c3.26-21.8,7.41-39.27,9.26-39s.71,18.1-2.55,39.9-7.4,39.27-9.26,39S29.71,67.22,33,45.43Z"/><path class="l" d="M178.46,108.76s-30.58,41.42-31.2,47.69c-3.23,32.29,30.52,75.22,30.52,75.22l47-6s-6.21-85.95-15.66-99.5S178.46,108.76,178.46,108.76Z"/><path class="e" d="M169.7,123.27c-5.15-2.11-5.62-5.25-9.55-14.79s-3.87-10.72-3.87-10.72,17.6-3.35,24.5-2.55,5.13,1.24,5.13,1.24-1.84,15.4,4.43,22.39S174.49,125.23,169.7,123.27Z"/><path class="m" d="M183.8,45.71s-13.14-3.36-20.11,2.57-6.57,11.95-10.49,14S142.66,65,142.66,65s.29,4.77,1.67,5.85a14.091,14.091,0,0,0-2.89,2.41c-.87,1.12.23,2.46.86,3.19.4.47,4.41,5.64,6.59,6.63,3.6,1.64-5,6.55-9.11,6,0,0-.58,3.57.68,4.54a11.4,11.4,0,0,1,0,4.27c-.4,2.52.49,4.3,6.36,5s13.83-.34,18.75-3.06,11.27-4.19,15.32-3.75,24.87-14.85,24.32-23.61S190.89,43.22,183.8,45.71Z"/><path class="n" d="M186.18,44.94c-1.52-.11-3.07-.21-4.69-.44h-.15c-3-.38-5.42,5.63-1.77,12.66s3.68,12.55.86,14.61S169.07,89.43,171,95.35s3.63,9,12.59,7.89,17.78,1.52,23.68,4.57c5.15,2.66,6.75-17.79,6.94-20,.82-9.54,1.45-19.08-3.49-27.71a30,30,0,0,0-24.54-15.16Z"/><path class="o" d="M134.52,70.77a21.122,21.122,0,0,0-2.56-.19,5.43,5.43,0,0,0-1.2.62c-2.09,1.89-7.87,19.21-6,22.7s6.13,2.45,6.13,2.45S134.88,71.16,134.52,70.77Z"/><path class="p" d="M134.52,70.77l-6.3,21.3a3.43,3.43,0,0,0,2.24,4.23h0a1.17,1.17,0,0,0,1.4-.7c2-4.67,7.33-21.49,7.39-22.69C139.32,71.53,134.52,70.77,134.52,70.77Z"/><path class="q" d="M84,108.22S82.61,94.5,80.68,93s-4.84-.71-5,2a8,8,0,0,0,.88,4.38s3.77,7.38,5.12,8.43A2,2,0,0,0,84,108.22Z"/><path class="q" d="M82.23,111.73s1.09-1,.45-4-2.35-6.79-4.84-8.72-4.87.06-4.54,2.61S81.09,111.66,82.23,111.73Z"/><path class="e" d="M72.67,108.65v-.37c-.11-1-.27-3.56,1-3.73,1.62-.21,7.42,5.56,7.59,6.9s-6.62-2.29-7-2.24-.72,1.29-1.14,1S72.67,108.65,72.67,108.65Z"/><path class="r" d="M135.45,82.06l-2.33-.79a.12.12,0,0,1-.08-.15.13.13,0,0,1,.16-.08l2.33.79a.122.122,0,1,1-.08.23Z"/><path class="r" d="M135.37,81.62,133.45,81a.122.122,0,1,1,.08-.23l1.92.65a.11.11,0,1,1-.08.2Z"/><path class="r" d="M135.21,81.15l-1.35-.46a.12.12,0,0,1-.08-.15.13.13,0,0,1,.16-.08l1.35.46a.12.12,0,0,1,.08.15.13.13,0,0,1-.16.08Z"/><path class="r" d="M135.48,82.63l-2.73-.92a.122.122,0,1,1,.08-.23l2.73.92a.13.13,0,0,1,.07.16.12.12,0,0,1-.15.07Z"/><path class="r" d="M135.46,83.19l-3-1a.12.12,0,0,1-.08-.15.13.13,0,0,1,.16-.08l3,1a.122.122,0,0,1-.08.23Z"/><path class="r" d="M135.4,83.73l-3.25-1.1a.13.13,0,0,1-.08-.16.11.11,0,0,1,.15-.07l3.26,1.1a.12.12,0,0,1,.08.15.14.14,0,0,1-.16.08Z"/><path class="r" d="M135.31,84.26l-3.44-1.17a.11.11,0,0,1-.07-.15.12.12,0,0,1,.15-.08L135.39,84a.12.12,0,0,1,.08.15.13.13,0,0,1-.16.11Z"/><path class="r" d="M135.2,84.78l-3.5-1.18a.13.13,0,0,1-.07-.16.11.11,0,0,1,.15-.07l3.49,1.18a.12.12,0,0,1-.07.23Z"/><path class="r" d="M135.06,85.29l-3.53-1.19a.11.11,0,0,1-.07-.15.12.12,0,0,1,.15-.08l3.52,1.19a.12.12,0,1,1-.07.23Z"/><path class="r" d="M134.9,85.8l-3.54-1.2a.11.11,0,0,1-.07-.15.12.12,0,0,1,.15-.08l3.53,1.2a.12.12,0,1,1-.07.23Z"/><path class="r" d="M134.71,86.3l-3.52-1.19a.122.122,0,1,1,.08-.23l3.52,1.19a.11.11,0,0,1,.07.15.12.12,0,0,1-.15.08Z"/><path class="r" d="M134.5,86.79,131,85.61a.12.12,0,0,1-.08-.15.13.13,0,0,1,.16-.08l3.48,1.18a.119.119,0,0,1-.06.23Z"/><path class="r" d="M134.27,87.27l-3.38-1.14a.14.14,0,0,1-.08-.16.13.13,0,0,1,.16-.07l3.38,1.1a.141.141,0,0,1-.08.27Z"/><path class="r" d="M134,87.74l-3.21-1.08a.122.122,0,1,1,.08-.23l3.2,1.08a.13.13,0,0,1,.08.16.11.11,0,0,1-.15.07Z"/><path class="r" d="M133.73,88.21l-3-1a.12.12,0,1,1,.07-.23l3,1a.12.12,0,1,1-.07.23Z"/><path class="r" d="M133.4,88.66l-2.65-.9a.12.12,0,1,1,.07-.23l2.66.9a.122.122,0,0,1-.08.23Z"/><path class="r" d="M133,89.09l-2.22-.75a.13.13,0,0,1-.07-.16.11.11,0,0,1,.15-.07l2.22.75a.12.12,0,0,1,.08.15.14.14,0,0,1-.16.08Z"/><path class="r" d="M132.52,89.48,130.94,89a.13.13,0,0,1-.08-.16.14.14,0,0,1,.16-.07l1.58.53a.122.122,0,1,1-.08.23Z"/><path class="m" d="M174.87,76.19s7.06-4.14,9.34-1.63-3.72,14-9.65,13.08S174.87,76.19,174.87,76.19Z"/><path class="s" d="M155.64,167.39c-4.28,2.79-12.92,2.67-19.29,2.6-16.81-.2-30-20.11-40-55.57,0,0-2.51-8.76-2.51-8.9-.07-2.18-2-10.59-3.64-16.09s1.25-10-.21-11.27c-1.19-1-4.19,1.67-3.42,5.11s1.92,9.06-2.31,8.6S77,71.33,77,71.13c-.27-2-1.35-5.45-2.84-3.87-.6,1,0,7.45.93,11.29,1.61,6.66,2,8.79,1.29,9.57-1,.06-2.14-4.22-5-13.6-3.16-10.29-10.3-16-2.14,4.5,2.24,5.64,3.29,10.36,2.56,10.4-2.22.13-3.4-3.65-4.93-7.08s-5.19-10.59-6.54-7c-.08.84,2.33,5.24,4.09,8.45,3.8,6.94,4.73,9,4.06,10-3.82.23-6.83-7.84-9.3-11.53-.38-.56-1.4-.22-1.28.42.5,2.67,2.45,7.66,6.37,13.08s11.77,13.24,17,18c.5,22.36,6.08,65,40.3,77.12,19.34,6.84,36.32,1.17,50.7-6.85C170.9,180.42,160,169.62,155.64,167.39Z"/><path class="t" d="M202.65,124.58c-11.92-5-26,11.11-33.54,21.66-4.75,6.67-9.67,14.46-17,19.25,4.3,2.24,19.46,16.62,20.77,20.26,20.6-11.5,34.52-31.33,37.14-39.61C214.47,132.09,214.56,129.56,202.65,124.58Z"/><path class="n" d="M150.91,53.33s-1.23,10.84,31.41,11.88l3.86-20.27S162.21,29.2,150.91,53.33Z"/></g></svg>