<svg xmlns="http://www.w3.org/2000/svg" xmlns:xlink="http://www.w3.org/1999/xlink" width="238.877" height="238.87" viewBox="0 0 238.877 238.87"><defs><style>.a{clip-path:url(#a);}.b{fill:#421f6c;}.c{fill:#20bec6;}.d{fill:#0a0000;}.e{fill:#754c29;}.f{fill:#6b60aa;}.g{fill:#603913;}.h{fill:#ebdfd3;}.i{fill:#6e3694;}</style><clipPath id="a"><path d="M237.47,50.42l-22.39,83.55-5.48,20.44-8.1,30.25-6.57,24.52c-7.41,27.68-40.1,38.23-62.16,22.07a41.891,41.891,0,0,1-4.8-4.12L11.75,110.91C-10.04,89.12-.07,51.92,29.69,43.95L188.45,1.41C218.21-6.57,245.45,20.67,237.47,50.42Z"/></clipPath></defs><g transform="translate(0 -0.002)"><g class="a"><path class="b" d="M237.47,50.42l-22.39,83.55-5.48,20.44-8.1,30.25-6.57,24.52c-7.41,27.68-40.1,38.23-62.16,22.07a41.891,41.891,0,0,1-4.8-4.12L11.75,110.91C-10.04,89.12-.07,51.92,29.69,43.95L188.45,1.41C218.21-6.57,245.45,20.67,237.47,50.42Z"/></g><g class="a"><path class="c" d="M67.58,147.3c-2.88,0-5.05-1.4-7.23-3.1a18.347,18.347,0,0,0-2.66-1.84,2.466,2.466,0,0,1-.94-.84l-.12.15a2.594,2.594,0,0,1-2.4.87,3.921,3.921,0,0,1-2.68-1.62c-1.07-1.54-.71-3.37-.37-5.13.56-2.88,1.09-5.61-2.27-8.23a2.631,2.631,0,0,1-.93-1.44c-.51-2.11-.8-4.26.55-5.71a3.634,3.634,0,0,1,3.25-1.02,24.14,24.14,0,0,0-.59-4.1,120.493,120.493,0,0,1-6.8-17.37c-2.15-6.46-4.18-12.56-7.17-17.58a2.607,2.607,0,0,1,1.69-3.88c.76-.17,1.18-.83,1.86-2.37.56-1.26,1.33-2.98,3.29-3.27,2.03-.3,3.42,1.33,3.95,1.94.06.07.11.13.16.2,3.13,4.45,6.08,6.92,8.79,7.32,2.92.44,5.56-1.63,7.9-3.46,1.83-1.43,4-3.13,6.21-2.86.46-3.09.32-9.93.23-14.72-.3-13.73-.21-18.52,3.34-19.29,3.04-.66,4.87,2.85,6.61,6.88,2.98,4.97,2.66,7.5,1.68,10.59,6.82,1.12,9.35-1.92,12.72-5.96a27.714,27.714,0,0,1,7.61-7.01,2.622,2.622,0,0,1,2.05-.22c16.75,5.18,19.42,3.88,19.79,3.57a7.667,7.667,0,0,0-.02-1.85c-.15-1.94-.45-5.92,3.86-7.22,6.63-4,7.83-5.55,8.04-5.95a2.1,2.1,0,0,0-.06-.24c-.82-3.43.43-6,10.03-12.1a2.753,2.753,0,0,1,.38-.2,71.217,71.217,0,0,0,10.51-5.54c5.29-3.26,8-4.61,14.84-1.21,4.72-.14,8.25.93,10.8,3.3,4.51,4.2,4.62,11.39,4.72,18.35a77.087,77.087,0,0,0,.44,8.58,2.575,2.575,0,0,1-.17,1.32,11.675,11.675,0,0,0-.52,4.51c.03,1.93.07,4.13-1.96,5.13-1.79.89-3.65,0-5.78-1.55a5.808,5.808,0,0,0-2.33,5.32,4.154,4.154,0,0,0,2.68,3.61c1.68.43,3.76-.84,5.71-3.5a2.631,2.631,0,0,1,1.98-1.06c4.74-.22,6.31,2.3,6.83,3.83.71,2.06,2.88,8.33-19.31,35.4-10.65,13-24.03,26.94-29.96,31.24-7.45,6.84-15.7,7.99-20.63,8.67-.25.03-.52.07-.78.11a2.609,2.609,0,0,1-2.02,3.12c-7,1.44-12.25,1.05-18.32.59-2.51-.19-5.1-.38-8.03-.46a30.819,30.819,0,0,0-8.7,2.4c-3.12,1.26-6.08,2.45-11.36,1.77C72.53,146.43,69.84,147.3,67.58,147.3Zm-6.32-8.88c.85.55,1.6,1.13,2.29,1.67,2.89,2.26,4.34,3.39,10.34-.78a2.592,2.592,0,0,1,1.91-.43c4.51.75,6.53-.07,9.61-1.31a36.13,36.13,0,0,1,10.22-2.76c.12-.01.25-.02.37-.02,3.14.08,5.85.28,8.47.48a63.4,63.4,0,0,0,13.63.05,3.146,3.146,0,0,1,.17-.83c.75-2.24,3.04-2.56,6.21-3,4.36-.61,11.65-1.62,17.93-7.45a1.709,1.709,0,0,1,.26-.21c4.84-3.45,17.34-16.06,29.1-30.4,16.06-19.59,19.13-28.33,18.41-30.4-.05-.14-.28-.23-.57-.28-4.36,5.18-8.63,4.79-10.34,4.35a9.329,9.329,0,0,1-6.55-7.99c-.59-4.63,1.77-8.92,6.33-11.45a2.61,2.61,0,0,1,2.88.23c.3.23.57.44.81.62a15.081,15.081,0,0,1,.66-4.78c-.32-2.8-.36-5.71-.41-8.53-.09-6.14-.18-11.93-3.06-14.62-1.58-1.47-4.1-2.09-7.68-1.89a2.541,2.541,0,0,1-1.35-.29c-5-2.59-5.71-2.15-10.34.7a77.269,77.269,0,0,1-11,5.81c-6.56,4.19-7.51,5.74-7.65,6.09a2.481,2.481,0,0,0,.07.3c.83,3.48-.47,5.93-10.68,12.05a2.5,2.5,0,0,1-.72.3,2.229,2.229,0,0,0-.34.11,8.143,8.143,0,0,0,.02,1.77c.13,1.79.34,4.51-1.93,6.32-2.61,2.08-7.64,2.48-23.43-2.32a26.635,26.635,0,0,0-5.26,5.24c-4.04,4.86-8.62,10.36-20.67,7.08a2.6,2.6,0,0,1-1.86-3.07c.23-1.04.51-1.89.75-2.64.73-2.24,1.03-3.17-1.17-6.78a3.238,3.238,0,0,1-.17-.32c-.04-.09-.08-.18-.11-.26-.09,3.14-.01,7.22.05,10.36.27,13.82.11,18.79-2.8,20.28a3.351,3.351,0,0,1-3.3-.16,20.1,20.1,0,0,0-2.34,1.67c-2.84,2.22-6.74,5.27-11.87,4.5-3.86-.57-7.55-3.21-11.23-8.04a9.012,9.012,0,0,1-1.95,2.62A112.533,112.533,0,0,1,49.3,96.26c1.91,5.75,3.89,11.7,6.63,16.91a2.612,2.612,0,0,1,.24.66c1.17,5.41,1.03,8.14-.5,9.74a3.713,3.713,0,0,1-2.18,1.12,11.474,11.474,0,0,1,3.07,10.36,4.687,4.687,0,0,1,2.06.34A4.516,4.516,0,0,1,61.26,138.42Zm-5,1.45ZM73.09,74.83Zm73.26,28.37c-2.84,0-5.69-2.27-7.57-4.65-2.29-2.89-4.09-7.13-2.27-10.36l.09-.15c4.97-7.62,11.88-10,16.71-9.68,3.68.24,6.64,1.99,7.92,4.68.72,1.5,1.51,4.61-1.28,8.58a2.481,2.481,0,0,1-.55.57,3.868,3.868,0,0,1-.33,2.45c-.88,1.83-3.13,3.1-7.62,4.25a5.129,5.129,0,0,1-5.1,4.31Zm-5.33-12.42c-.16.38-.08,1.64,1.11,3.52,1.47,2.32,3.36,3.57,4.09,3.68a4.247,4.247,0,0,0,.38-1.52,2.6,2.6,0,0,1,2.02-2.26,23.041,23.041,0,0,0,5.36-1.68,3.354,3.354,0,0,1,.01-2.92,3.636,3.636,0,0,1,2.17-1.75,2.934,2.934,0,0,0,.36-2.57c-.45-.94-1.85-1.62-3.57-1.73C149.64,83.34,144.76,85.12,141.02,90.78Z"/><path class="c" d="M159.29,47.83a9.5,9.5,0,1,1,9.5-9.5A9.509,9.509,0,0,1,159.29,47.83Zm0-13.79a4.29,4.29,0,1,0,4.29,4.29A4.289,4.289,0,0,0,159.29,34.04Z"/><path class="c" d="M94.7,93.37a11.52,11.52,0,1,1,11.52-11.52A11.536,11.536,0,0,1,94.7,93.37Zm0-17.82a6.31,6.31,0,1,0,6.31,6.31A6.316,6.316,0,0,0,94.7,75.55Z"/><path class="c" d="M127.24,75.55a9.12,9.12,0,1,1,9.12-9.12A9.129,9.129,0,0,1,127.24,75.55Zm0-13.04a3.92,3.92,0,1,0,3.92,3.92A3.926,3.926,0,0,0,127.24,62.51Z"/><path class="c" d="M156.54,73.47a9.91,9.91,0,1,1,9.91-9.91A9.927,9.927,0,0,1,156.54,73.47Zm0-14.62a4.7,4.7,0,1,0,4.7,4.7A4.707,4.707,0,0,0,156.54,58.85Z"/><path class="c" d="M110.22,120.87a12.3,12.3,0,1,1,12.3-12.3A12.317,12.317,0,0,1,110.22,120.87Zm0-19.39a7.09,7.09,0,1,0,7.09,7.09A7.1,7.1,0,0,0,110.22,101.48Z"/><path class="c" d="M70.57,123.24a13.18,13.18,0,1,1,13.18-13.18A13.192,13.192,0,0,1,70.57,123.24Zm0-21.15a7.97,7.97,0,1,0,7.97,7.97A7.979,7.979,0,0,0,70.57,102.09Z"/><path class="c" d="M96.21,136.17a8.21,8.21,0,1,1,8.21-8.21A8.222,8.222,0,0,1,96.21,136.17Zm0-11.21a3,3,0,1,0,3,3A3,3,0,0,0,96.21,124.96Z"/><path class="c" d="M143.83,122.16a8.85,8.85,0,1,1,8.85-8.85A8.86,8.86,0,0,1,143.83,122.16Zm0-12.49a3.645,3.645,0,1,0,3.65,3.65A3.649,3.649,0,0,0,143.83,109.67Z"/><path class="c" d="M137.32,113.99l-20.38-8.85a2.613,2.613,0,0,1-.92-4.11l7.53-8.58-6.2-5.35a2.594,2.594,0,0,1-.88-2.31l1.51-11.41-14.06,6.99-2.32-4.66,18.44-9.17a2.594,2.594,0,0,1,2.67.21,2.63,2.63,0,0,1,1.07,2.46l-1.96,14.87,7.12,6.15a2.6,2.6,0,0,1,.26,3.69l-6.91,7.87,17.11,7.42Z"/><path class="c" d="M60.26,107.34,46.4,101.26a2.575,2.575,0,0,1-1.49-1.81,2.625,2.625,0,0,1,.56-2.27L60.08,80.16a2.6,2.6,0,0,1,2.53-.85L88.32,84.9a2.6,2.6,0,0,1,1.59,4.02L79.76,103.66l-4.29-2.95,7.95-11.54-20.4-4.44L51.71,97.9l10.64,4.67Z"/><path class="c" d="M89.55,73.6,88.02,59.58a2.6,2.6,0,0,1,.96-2.31l8.4-6.74a2.6,2.6,0,0,1,2.57-.39l23.66,9.22-1.89,4.85L99.46,55.54l-6.12,4.91,1.38,12.6Z"/><rect class="c" width="5.21" height="12.34" transform="translate(96.83 90.747) rotate(-26.757)"/><path class="c" d="M100.35,123.62l-4.82-1.98,2.48-6.03-17.07-1.42.43-5.19,20.61,1.71a2.587,2.587,0,0,1,2,1.24,2.635,2.635,0,0,1,.19,2.35Z"/><path class="c" d="M119.92,130.57a2.587,2.587,0,0,1-2.2-1.21l-6.89-10.85,4.39-2.79,5.65,8.89,18.04-8.69,2.26,4.69-20.12,9.7A2.7,2.7,0,0,1,119.92,130.57Z"/><path class="c" d="M60.97,141.63l-4.15-3.15,6.93-9.15a2.6,2.6,0,0,1,2.07-1.03H84.6l-9.1-8.09,3.46-3.89,14.21,12.64a2.606,2.606,0,0,1-1.73,4.55H67.13Z"/><path class="c" d="M132.99,68.1l-.29-5.2,12.95-.71-2.02-9.51L131.18,42.27l3.34-3.99,13.14,10.99a2.583,2.583,0,0,1,.88,1.46l2.84,13.36a2.608,2.608,0,0,1-2.4,3.14Z"/><rect class="c" width="5.21" height="13.01" transform="matrix(0.119, -0.993, 0.993, 0.119, 139.181, 36.129)"/><path class="c" d="M164.58,60.77l-4.25-3.01,11.75-16.63c.07-.09.14-.18.21-.26l8.6-9.31L168.14,19.54l-1.71,13.94-5.17-.63,2.34-19.04a2.607,2.607,0,0,1,4.37-1.58l18.36,17.31a2.6,2.6,0,0,1,.13,3.66L176.22,44.28Z"/><rect class="c" width="11.29" height="5.21" transform="translate(153.958 56.005) rotate(-84.52)"/><path class="c" d="M150.13,112.31l-2.61-4.5,7.52-4.36.17-13.36a2.6,2.6,0,0,1,1.22-2.17l13.17-8.27a3.016,3.016,0,0,1,.51-.25l7.86-2.79L158.8,72.88l1-5.11,28.53,5.55a2.6,2.6,0,0,1,.37,5.01l-16.57,5.88L160.4,91.57l-.17,13.42a2.585,2.585,0,0,1-1.3,2.22Z"/><rect class="c" width="5.21" height="18.64" transform="translate(129.046 71.903) rotate(-37.402)"/><rect class="c" width="10.56" height="5.21" transform="translate(149.886 80.289) rotate(-75.623)"/></g><g class="a"><path class="d" d="M151.4,133.08c-17.72-6.14-31.43-20.23-29.93-38.44,1.36-16.46,11.49-32.16,27.62-39.13a48.514,48.514,0,0,1,18.22-4.25c26.49-.51,40.46,27.94,43.26,49.49,1.48,11.38-7.91,16.52-16.49,22.59C181.52,132.24,167.14,138.54,151.4,133.08Z"/></g><g class="a"><path class="e" d="M173.8,130.41l-14.03-12.56s-5.18,4.27-8.91,2.94c-1.4-.5-4.67-5.08-8-11.12-.4-.72-.8-1.46-1.19-2.22-.41-.79-2.66,2.86-3.07,2.05-.82-1.67.22-7.84-.53-9.57-3.45-7.97-5.77-16.16-4.12-20.39,3.76-9.66,26.98-21.34,35.41-11.32a36.446,36.446,0,0,1,5.82,37.59l13.78,13.38Z"/></g><g class="a"><path class="d" d="M129.93,89.11c19.32,2.71,38.45,12.57,56.58,5.36-2.94-6.68-5.07-25.73-9.82-31.28s-11.6-9.76-18.9-9.6c-5.48.12-10.68,2.67-14.97,6.09C134.06,66.67,128.42,78.01,129.93,89.11Z"/></g><g class="a"><path class="f" d="M182.34,113.17s-16.1,5.05-24.19,14.35-21.14,36.2-21.43,39.22,9.49,35.74,9.49,35.74l-19.93,76.09s62.06,9.61,93.09,0l-16.24-60.31s3.97-24.73,4.93-28.6c2.77-11.22-2.03-28.41-4.06-40.21s-11.31-25.25-14.5-28A59.258,59.258,0,0,1,182.34,113.17Z"/></g><g class="a"><path class="g" d="M151.27,191.66l-4.03,15.9s-35.27-13.19-37.39-13.96c0,0-6.24-4.93-7.5-5.88s-5.2-10.71-5.51-11.65,7.24-1.42,7.24-1.42a51.613,51.613,0,0,1,.61-6.18c.21-.82,1.94-4.47,2.71-2l1.68,7.22,2.4,2.38c1.24,1.72,2.68,8.97,2.68,8.97Z"/></g><g class="a"><path class="h" d="M106.63,184.04l-4.75-17.57-3.93-14.01-5.04,1.89,9.31,30.15Z"/></g><g class="a"><path class="f" d="M154.38,191.19s-4.26-12.03-12.27-7.15a12.055,12.055,0,0,1-14.41-1.17l-13.54,2.17-4.3,8.55,41.1,17.33Z"/></g><g class="a"><path class="g" d="M96.84,176.07c-.87-1.99,1.07-8.16,1.84-7.6s1.08,3.78,1.08,3.78l-.74,1.9s1.27-.46,1.34-.01.52,2.58.52,2.58l.2,4.09Z"/></g><g class="a"><path class="f" d="M177.07,115.16c7.47-4.98,33.57-5.88,36.67-3.88s-4.14,8.33-3.36,12.54,16.03,9.66,10.86,18.82-20.42,20.01-20.42,20.01Z"/></g><g class="a"><path class="f" d="M192.88,151.07c3.2,11.42-38.12,120.1-38.12,120.1l-17.71-4.46s6.73-24.9,5.66-34.01-.97-12.47,6.34-20.35,3.49-38.16,8.44-50.24S190.66,143.15,192.88,151.07Z"/></g><g class="a"><path class="i" d="M154.38,213.9a.764.764,0,0,0,.72-.5c3.01-7.89,2.46-16.5,1.93-24.83-.14-2.22-.28-4.43-.36-6.62a105.434,105.434,0,0,1,3.92-32.29c.69-2.44,1.58-5.21,3.42-7.18,1.61-1.72,4.41-2.9,6.69-1.81a.774.774,0,0,0,.66-1.4c-3.08-1.47-6.56.09-8.49,2.16-2.07,2.22-3.03,5.2-3.77,7.81A106.607,106.607,0,0,0,155.12,182c.08,2.21.22,4.43.36,6.66.52,8.16,1.06,16.61-1.83,24.18a.777.777,0,0,0,.45,1A.706.706,0,0,0,154.38,213.9Z"/></g><g class="a"><path class="i" d="M167.48,232.32a.787.787,0,0,0,.73-.5c2.53-6.69,4.86-12.2,7.11-17.53,4.97-11.76,9.25-21.91,12.54-38.06a.775.775,0,0,0-.61-.91.765.765,0,0,0-.91.61c-3.25,16-7.31,25.61-12.45,37.77-2.26,5.34-4.59,10.86-7.13,17.58a.777.777,0,0,0,.45,1A.843.843,0,0,0,167.48,232.32Z"/></g><g class="a"><path class="i" d="M205.4,154.11a.389.389,0,0,0,.15-.02.775.775,0,0,0,.61-.91,57.576,57.576,0,0,0-19.14-32.42.784.784,0,0,0-1.09.09.765.765,0,0,0,.09,1.09,55.928,55.928,0,0,1,18.62,31.54A.788.788,0,0,0,205.4,154.11Z"/></g></g></svg>