<svg xmlns="http://www.w3.org/2000/svg" xmlns:xlink="http://www.w3.org/1999/xlink" width="238.882" height="238.869" viewBox="0 0 238.882 238.869"><defs><style>.a{fill:none;}.b{clip-path:url(#a);}.c{fill:#20bec6;}.d{fill:#e56361;}.e{fill:#d4d4d4;}.f{fill:#603913;}.g{fill:#180000;}.h{fill:#737480;}.i{fill:#f3743a;}.j{fill:#fbaf64;}.k{fill:#f99d3e;}.l{fill:#1f1f23;}.m{fill:#424242;}.n{fill:#777;}.o{fill:#2e2e2d;}.p{fill:#231f20;}.q{fill:#696969;}.r{fill:#4a4a4a;}.s{fill:#919090;}.t{fill:#4c4c4c;}.u{fill:#323231;}.v{fill:#c2c2c1;}.w{fill:#606060;}</style><clipPath id="a"><path class="a" d="M226.88,128l-1.25-1.26,5.05-92.18H133.44L110.66,11.75a41,41,0,0,0-4.8-4.13C83.8-8.54,51.11,2,43.7,29.69L37.13,54.21,29,84.46,23.54,104.9,1.16,188.45c-8,29.76,19.26,57,49,49l158.76-42.54C238.7,187,248.67,149.75,226.88,128Z"/></clipPath></defs><g class="b" transform="translate(0.253 0.004)"><path class="c" d="M1.16,188.45,23.54,104.9,29,84.46l8.11-30.25L43.7,29.69C51.11,2,83.8-8.54,105.86,7.62a41,41,0,0,1,4.8,4.13L226.88,128c21.79,21.78,11.82,59-17.95,67L50.17,237.47C20.42,245.44-6.82,218.21,1.16,188.45Z"/><path class="d" d="M63.47,77.43s.13,33.24,5.74,47.94c0,0,24.52,13.41,30.47,5.83L89.37,92.7Z"/><path class="e" d="M63.47,77.43,89.37,92.7l5.23,19.53c-9.24,2.28-21.82-9-27.63-25a48,48,0,0,0-3.46-7.44C63.48,78.28,63.47,77.43,63.47,77.43Z"/><path class="f" d="M91.08,38.2a5.77,5.77,0,0,1,1.42,1.39c2.46,3.16,6,10.88,6.45,20.83.52,12.12,2.63,37.4-6,40S69.17,94.57,64.08,80.8,51,61.76,52.92,49.46,91.08,38.2,91.08,38.2Z"/><path class="g" d="M67,62.5s1.12-7.43,3.2-11.59.34-6.64.34-6.64S82,43.05,87.59,50.13s12.84,17.76,23.33,8.94,3.42-25,.61-24.18S105.4,34,105.4,34s-14.59-12.33-20-10.74-2.25-5.06-11.83-3.87S59.33,31.48,59.33,31.48s-5.39-3.6-11,3.25,3.1,24.44,7.5,30.27,7.71,16.41,7.71,16.41S72.36,80.81,67,62.5Z"/><path class="f" d="M61.19,60.83a3.77,3.77,0,0,1,6.59-2.7c2.11,2.14,3.84,5,2.31,8.08-3,6.08-8.58,2-8.88-4.2C61.19,61.59,61.18,61.2,61.19,60.83Z"/><path class="h" d="M92,81.91l5-1.45L93.2,67.58a.49.49,0,1,0-.93.28l3.5,11.87-4,1.17a.5.5,0,0,0-.32.64A.51.51,0,0,0,92,81.91Z"/><path class="h" d="M84.33,68.42c.43,1.45,1.68,2.36,2.79,2a2.517,2.517,0,0,0,1.25-3.23c-.42-1.46-1.69-2.36-2.8-2A2.522,2.522,0,0,0,84.33,68.42Z"/><path class="h" d="M95.09,66.92c.4,1.34,1.49,2.2,2.44,1.92s1.39-1.59,1-2.93S97,63.71,96.09,64,94.7,65.58,95.09,66.92Z"/><path class="h" d="M91.54,92.47a6.14,6.14,0,0,0,1.58-.68.5.5,0,0,0,.13-.67.47.47,0,0,0-.64-.16c-.17.12-4.06,2.63-9.11-1.31a.43.43,0,0,0-.64.09.52.52,0,0,0,.11.69C86.58,93.24,89.74,93,91.54,92.47Z"/><path class="f" d="M172.22,123.09s-6.46-2.25-10.63-3.64,5.28,14.78,5.28,14.78,6.58,2.62,2.13,11.51-19,29.52-13.13,35.35,14.38,7.83,20.91,1.31c5-5,6-29.36,6.89-43.3a14.64,14.64,0,0,0-7.36-13.68Z"/><path class="i" d="M118.45,137.79s18.62,37.58,26.66,36.1S157,165,157,165l21,17s-3.59,10.76-15.7,22.86-29.36,10.36-36.75,4.08S118.45,137.79,118.45,137.79Z"/><path class="j" d="M68.82,112.72s-20,14.82-20,21.05,21.11,77.34,23,90.86-15.93,51.28-15.93,51.28,58.14,16.67,79.25,10.37c0,0,2.59-15.55,0-51.84s-16.66-96.65-16.66-96.65S93.27,107.65,68.82,112.72Z"/><path class="j" d="M135.11,286.28c7.68-43.12-4.69-107-16.66-148.49C125.87,180.58,138.26,243.65,135.11,286.28Z"/><path class="k" d="M78.08,128.34s-.74-10.69-9.26-15.62-27.77,2.48-32.21,27.66,17.47,77.26,35.92,77.26S115,207.88,119,196.85c0,0-7-31.94-13.34-31.94s-22,18.79-22,18.79C75.21,179.26,79.11,144.41,78.08,128.34Z"/><path class="f" d="M161.45,104.87s-1.22,16.19.37,19.58c.9,1.92,2.81,2.8,3.24,0,.34-2.15-.69-7.39-.69-10.41C164.37,107.1,161.45,104.87,161.45,104.87Z"/><path class="f" d="M167.14,108.76s-4.72,18.19-2,18.19S173,110.58,167.14,108.76Z"/><path class="l" d="M182.28,60.25s-7.05,1.24-9.75-.31-1.09-1.53-4.43-3.44-42,5.25-46.08,8.2-1.68,7.79-4.24,9.48-15.22,4.26-18.2-4.28.56-10.69,7.57-15.9c6.47-4.81,63.48-11.46,68-10s3.7,7.22,3.89,8.2,5.51,2.16,5.51,2.16Z"/><path class="m" d="M169,52.65a17.24,17.24,0,0,1-1,3.8h.09c.39.22.72.42,1,.59a18.17,18.17,0,0,0,1.2-4.31,16.5,16.5,0,0,0-1.13-8.87l-1.37.08A15.12,15.12,0,0,1,169,52.65Z"/><path class="m" d="M151,56.54c-.07.45-.15.88-.24,1.3l1.33-.21c.06-.31.12-.63.17-1a16.29,16.29,0,0,0-.55-7.29,17.381,17.381,0,0,0-1.69-3.75l-1.39.17A15.39,15.39,0,0,1,151,56.54Z"/><path class="m" d="M132.42,59.33a15.181,15.181,0,0,1-.48,2.22l1.39-.32a17.882,17.882,0,0,0,.35-1.77,16.15,16.15,0,0,0-.55-7.29,17.841,17.841,0,0,0-1.83-4l-1.37.22a15.36,15.36,0,0,1,2.49,10.94Z"/><path class="n" d="M182.79,50.3c3.31-3.06,8.3-4.18,12.61-5.36a122.738,122.738,0,0,1,23.42-3.87c4.7-.35,8.88,4.24,8.78,8.26a8.15,8.15,0,0,1-1.89,5,12.22,12.22,0,0,1-5.46,3.55,105.369,105.369,0,0,1-16.71,4.83,96.651,96.651,0,0,1-13.51,2c-3.78.22-7.91-.7-9.73-3.82-2-3.33-.72-7.37,2.16-10.24Z"/><path class="o" d="M217.42,57.05c-6.63-.22-7.68-10.6-4.25-13.94-1.44,2.28-1.28,5.57-.79,8C212.94,53.92,214.41,56.25,217.42,57.05Z"/><path class="o" d="M208.5,58.31a.71.71,0,0,1,.6-.79.67.67,0,0,1,.84.48.72.72,0,0,1-.59.79.68.68,0,0,1-.85-.48Z"/><path class="o" d="M200.22,54.78a.57.57,0,0,1,.48-.63.54.54,0,0,1,.68.38.57.57,0,0,1-.48.64.55.55,0,0,1-.68-.39Z"/><path class="o" d="M196.08,61.46c-.05-.27.06-.53.25-.57s.4.15.45.42a.46.46,0,0,1-.25.57C196.33,61.93,196.13,61.74,196.08,61.46Z"/><path class="p" d="M51.52,114.34h0a8.41,8.41,0,0,1-9.36-7.26L40,89.54a8.39,8.39,0,0,1,7.26-9.35h0a8.4,8.4,0,0,1,9.35,7.25L58.77,105a8.39,8.39,0,0,1-7.25,9.34Z"/><rect class="p" width="45.34" height="34.42" rx="13.78" transform="matrix(0.992, -0.125, 0.125, 0.992, 38.478, 73.66)"/><path class="q" d="M86.93,64.56a89.42,89.42,0,0,1,18.31-1.89,61.379,61.379,0,0,1,11.58,1.17,138.869,138.869,0,0,1,17,4.51,25.151,25.151,0,0,1,4.68,1.88c3.56,2.09,7.72,7.06,9.17,14s3,27.84-.84,31-18.46,7.87-23.22,8.75-24-.86-24-.86-2.2-7.42-10.24-5.93-8.81,5.69-8.81,5.69-11.32,0-17-1.1-10.36-3.87-11.11-7.5A279.456,279.456,0,0,1,48,83.41c-.18-2-.32-4.06.88-5.73,1.55-2.19,4.65-2.82,7.18-3.68,3.43-1.17,6.83-2.41,10.25-3.59a161.18,161.18,0,0,1,20.62-5.85Z"/><path class="o" d="M65.94,95.84l2.65-.49a1.19,1.19,0,0,0,1-1.35L67.2,82.28a1.25,1.25,0,0,0-1.5-.88l-2.65.49a1.2,1.2,0,0,0-1,1.35L64.44,95a1.26,1.26,0,0,0,1.5.84Z"/><path class="o" d="M60.52,93.45l-3.4.63,2.39,11.55,3.51-.07Z"/><path class="o" d="M149.32,85.16l-9.77.2s-10.7,2.13-11.35,11c-.72,10,3,16.39,7.68,17.25a72.259,72.259,0,0,0,11.68.73Z"/><path class="o" d="M120.52,69.67c-7.69-4.52-35.35-3.18-43.45-2.68q3.18-.92,6.4-1.68c12.62-.53,31.52-.51,37.91,3.25,8.93,5.24,14,12.49,15.74,20.81,1.13,5.45,2.7,21,3.48,29.15-.48.2-1,.4-1.46.59-.76-8-2.37-24-3.51-29.47C133.9,81.26,128.82,74.54,120.52,69.67Z"/><path class="o" d="M110,74.71c-8.58-5-44.93-2.77-48.66-2.52,1.53-.54,3.05-1.09,4.59-1.61,12.91-.68,37.74-1.21,44.93,3,8.92,5.24,14,12.49,15.73,20.81,1.08,5.19,2.55,19.53,3.37,27.92l-1.47.44c-.81-8.32-2.3-22.89-3.38-28.09C123.33,86.3,118.24,79.58,110,74.71Z"/><path class="o" d="M111.51,121.73a14.31,14.31,0,0,0,1.32,2.32l1.91.09a12.19,12.19,0,0,1-1.83-2.94,4,4,0,0,1,0-3.72c1.32-2.44,5-3.55,5.09-3.56l.64-.19-2.52-12.21c-1.89-9.14-5.13-21.66-15.24-23.68-8-1.59-41.86.26-52.51.89A6.32,6.32,0,0,0,48,80.09c2.07-.13,5.18-.31,8.88-.5l6.24,30.13,1.48-.28L58.4,79.52c4.07-.21,8.73-.42,13.46-.6l3.6,21.2a5.76,5.76,0,0,0,5.18,4.52l6.81.84c4.28.53,8-2.82,7.25-6.57L90.77,78.55a62.627,62.627,0,0,1,9.72.59c11.91,2.38,13.71,21.57,16.42,33.73C112.4,114.55,109.7,117.74,111.51,121.73ZM89.24,78.54l4,20.62c.54,2.86-2.27,5.41-5.52,5l-6.82-.84A4.36,4.36,0,0,1,77,99.89l-3.57-21C78.94,78.67,84.5,78.54,89.24,78.54Z"/><path class="o" d="M51,108.63c9.63.65,46.81,3.47,50.53,8.32a14.52,14.52,0,0,1,2.73,6.62c-2.93-.22-5-.4-5-.4s-2.2-7.42-10.23-5.93-8.82,5.69-8.82,5.69-11.32,0-17-1.1S52.85,118,52.1,114.33Q51.515,111.465,51,108.63Z"/><path class="p" d="M48,83.41c1,8.87,2.63,22.31,4.66,31,1.15,4.3,7.23,6.69,12.19,7.33,2.57.31,5.93.32,14.72.38.91-2.8,4.9-6.22,12.3-6,4.15.14,7.17,3.76,8,6.25,4.47.4,19,1.57,23.3.67,3.75-.78,12.45-2.53,18.27-5a26.268,26.268,0,0,0,5.32-2.83c-3.33,2.67-12.52,5.86-16.74,7.18-4.92,1.54-6.58,1.84-8.26,1.94-6.28.31-16.41-.5-22.46-1a9,9,0,0,0-.59-1.41A8.64,8.64,0,0,0,94.9,118c-3.92-2.05-12,.45-13.82,4.29a3.379,3.379,0,0,0-.27.84,147.583,147.583,0,0,1-15-.76c-1.36-.2-6.57-.25-10.47-2.78a8.46,8.46,0,0,1-3.62-5.3C50.36,107.38,49.18,97.32,48,83.41Z"/><path class="r" d="M89.24,78.54c2.16-.4,3.61-.52,3.61-1.3l-3.51-17c-.68-3.28-3.92-5.56-7.7-5.43-5.23.19-14.85.55-20.55.93-4.16.28-8.45,1.72-10.4,5,0,0-2,3.89-2.6,5.48-.66,1.92-4.74,12-.66,12.32,8,.7,7.72-4.82,8.44-8a60.412,60.412,0,0,1,1.9-5.87,5,5,0,0,1,3.7-1.9c5.52-.37,14.86-.73,20.07-.91l1.88,15.56C83.81,79.33,86.84,78.54,89.24,78.54Z"/><path class="r" d="M194.2,76.58l-44.43,5.61s-14.57,2.74-12.91,16.22,10.82,17.1,10.82,17.1l29.49,1.9Z"/><path class="s" d="M195.98,73.29l-12.07-.65L146.47,87.03l4.23,32.89,3.27,2.74,11.16,2.92Z"/><path class="s" d="M181.92,72.72l-33.6,9.59a4.75,4.75,0,0,0-3.2,5.31l4.21,30.68a4.7,4.7,0,0,0,5.76,4.16L191.47,112,187.7,77a4.72,4.72,0,0,0-5.78-4.28Z"/><path class="p" d="M193.85,73.31l-33.56,9.88a4.93,4.93,0,0,0-3.17,5.56l4.43,32.36c.43,3.11,3.17,5.2,5.81,4.42L200,115.87a5,5,0,0,0,3.21-5.46L199.67,77.9C199.32,74.71,196.54,72.52,193.85,73.31Z"/><path class="t" d="M192.32,76.33l-29.69,8.73a4.37,4.37,0,0,0-2.8,4.92l3.92,28.62c.38,2.76,2.8,4.6,5.14,3.91l27.8-8.22a5.84,5.84,0,0,0,3.77-6.42l-3-27.49C197.16,77.56,194.7,75.63,192.32,76.33Z"/><path class="u" d="M162.63,85.06l26.06-7.66a3.462,3.462,0,0,1,.07.48l3,27.6a5.71,5.71,0,0,1-3.69,6.27l-24.28,7.19-.06-.34L159.83,90a4.37,4.37,0,0,1,2.8-4.94Z"/><path class="v" d="M162.63,85.06l15.56-4.58a23.26,23.26,0,0,1,4.29,10.7c1.58,11.49-5.3,21.84-15.35,23.13a16.4,16.4,0,0,1-4,0L159.83,90a4.37,4.37,0,0,1,2.8-4.94Z"/><path class="w" d="M162.63,85.06,176,81.14a22.61,22.61,0,0,1,2.12,7c1.49,10.9-5,20.72-14.56,21.93-.31,0-.63.07-.94.09L159.83,90a4.37,4.37,0,0,1,2.8-4.94Z"/><path class="f" d="M144.79,102.93c0,3.33-5.14,16.25-5.14,24s-2.05,17.22-5.38,32.22-13.79,38.42-21,45.64S96,186.62,98.82,178s21.66-35.17,21.66-42.12-1.94-11.16-4.16-18.38-.65-18.24,1.76-19.44-1,9.53-.1,10.46,2.5-15.74,6.11-18.38-2,13.47-2,16.34-.37,4.91.74,4.91,1.38-7.78,2.73-12.41,3.75-11.48,7-10.09-3.89,9.35-3.89,12.5-.92,9.35.46,9.91,2.87-21,6.3-21.85,1.39,5.09.28,10.18-1.85,13.15-.09,13.15,3.24-2,5.55-6.48S144.79,99.6,144.79,102.93Z"/><path class="k" d="M105.12,159.17l23.44,28s-7.52,16.34-27.15,26.64-33.64,2.78-33.64,2.78S83.64,185.37,105.12,159.17Z"/></g></svg>