<svg xmlns="http://www.w3.org/2000/svg" xmlns:xlink="http://www.w3.org/1999/xlink" width="238.877" height="238.877" viewBox="0 0 238.877 238.877"><defs><style>.a{fill:#e21665;}.b{fill:#fff;}.c{fill:none;stroke:#f2d6ce;stroke-linecap:round;stroke-linejoin:round;stroke-miterlimit:10;stroke-width:0.98px;}.d{clip-path:url(#a);}.e{fill:#e7a26c;}.f{fill:#c37054;}.g{fill:#592679;}.h{fill:#bcbec0;}.i{fill:#d1d3d4;}.j{fill:#eaf1eb;}.k{fill:#b0b0aa;}.l{fill:#0e1a36;}.m{fill:#000725;}.n{fill:#e569a8;}.o{fill:#a0dadf;}.p{fill:#f37575;}.q{fill:#6e3694;}</style><clipPath id="a"><path d="M1.41,188.45,23.8,104.9l5.48-20.44,8.1-30.25,6.57-24.52C51.36,2.01,84.05-8.54,106.11,7.62a41.891,41.891,0,0,1,4.8,4.12L227.13,127.96c21.79,21.79,11.82,58.99-17.95,66.96L50.42,237.47C20.67,245.44-6.57,218.21,1.41,188.45Z"/></clipPath></defs><g transform="translate(-0.002 0.002)"><path class="a" d="M1.41,188.45,23.8,104.9l5.48-20.44,8.1-30.25,6.57-24.52C51.36,2.01,84.05-8.54,106.11,7.62a41.891,41.891,0,0,1,4.8,4.12L227.13,127.96c21.79,21.79,11.82,58.99-17.95,66.96L50.42,237.47C20.67,245.44-6.57,218.21,1.41,188.45Z"/><path class="b" d="M44.38,89.44H89.56a2.1,2.1,0,0,0,2.09-2.09V72.07a2.1,2.1,0,0,0-2.09-2.09H44.38a2.1,2.1,0,0,0-2.09,2.09V87.35A2.1,2.1,0,0,0,44.38,89.44Z"/><line class="c" x1="32.81" transform="translate(50.16 77.43)"/><line class="c" x1="11.23" transform="translate(50.27 82.61)"/><path class="b" d="M84.72,86.85v8.8L73.5,86.85Z"/><g class="d"><path class="e" d="M42.73,152.35c3.35-8.64,0-21.45,0-21.45-.32-1.42-4.19-5.44-5.53-4.24s2.01,3.05,1.34,6.93-2.56,2.87-3.6,1.94S33.6,109.76,31,109.32s-1.59,18.32-2.01,21.6-3.71,2.14-5.11,3.4-.67,2.04-2.18,3.38-1.84,4.32-1.09,8.64,7.38,11.54,7.38,14.82c0,.62-.21,5.79-.43,10.89,3.61.32,7.47,1.68,10.87-.45A57.641,57.641,0,0,1,42.73,152.35Z"/><path class="f" d="M24.94,133.77s12.44,10.79,10.05,12.91-12.37-9.34-12.37-9.34,11.08,10.03,9.12,11.77-11.54-6.73-11.54-6.73,10.1,7.71,8.29,8.6-8.29-5.27-8.29-5.27a7.822,7.822,0,0,1-.58-3.69c.34-1.39-.22-1.97.06-2.83a8.562,8.562,0,0,1,2.06-2.64C22.29,136.06,22.51,132.97,24.94,133.77Z"/><path class="e" d="M95.05,140.06c-5.75,1.73,1.26,7.11-4.78,21.65-3.49,8.41-21.45,23.76-25.32,26.03l1.49-5.65c-2.61,1.03-21.26,21.23-22.22,17.77-4.35-15.59-6.14-32.78-5.65-42.77-4.64,1.52-6.26-3.3-10.68-4.35-.95,17.37-2.48,65.01,11.49,66.21,5.3.46,16.45-3.53,24.8-10.54a163.151,163.151,0,0,0,19.47-19.96l18.95-42.32C102.59,146.12,100.8,138.32,95.05,140.06Z"/><path class="g" d="M126.64,49.03s12.94-1.59,16.42,6.18c6.9,15.42,12.31,46.23,12.31,59.44,0,5.36.34,25.17.34,25.17s-17.94-5.39-25.49,0-36.03-1.45-36.03-1.45,6.17-12.77,6.17-49.22C100.36,67.25,114.31,46.1,126.64,49.03Z"/><path class="h" d="M62.58,184.41c8.91-11.86,28.61-53.43,36.04-54.11,10.17-.92,10.15,1.05,10.15,1.05s4.52,30.18-7.03,32.94c-7.62,1.82-17.82,19.13-27.51,30.31A43.259,43.259,0,0,0,62.58,184.41Z"/><path class="e" d="M200.51,184.77c.85.77,2.66,3.69,3.41,3.89,9.46,2.57,54.32-36.02,59.42-39.61s14.92-2.82,19.29-2.82S293.19,142,296.1,142s-.73,5.39-5.46,6.03-.73,3.85,2.37,4.49,14.65,2.37,19.11-.77,10.37-4.36,10.37-2.95-9.47,5.65-9.47,5.65,13.83-3.98,13.83-2.31-12.01,4.11-12.01,4.11,7.55-.58,9.1.51-19.48,4.36-23.3,4.36-23.84-5-30.39-6.8-43.86,49.01-72.98,53.76c0,0-5.57-5.21-11.79-12.44A110.584,110.584,0,0,1,200.51,184.77Z"/><path class="b" d="M154.6,132.43s6.81-3.4,14.09-1.61c6.7,1.65,22.04,45.05,31.81,53.94a112.271,112.271,0,0,0-15.03,10.86,104.772,104.772,0,0,1-13-18.24c-6.88-13.02-9.43-13.22-14.46-15.67C149.3,157.46,154.6,132.43,154.6,132.43Z"/><path class="h" d="M185.48,195.62c-3.34-5.31-8.09-11.97-11.31-18.01-6.49-11.84-9.23-13.46-16.15-15.91,3.67,2.36,4.98,2.43,8.34,7.52C170.55,175.85,173.6,185.12,185.48,195.62Z"/><path class="i" d="M183.46,195.81s-4.48-1.25-4.67-2.74-3.99-2.04-4.82-3.44,13.46-8.02,20.02-11.26,5.44.5,6.95,2.23,3.26,1.8,3.49,3.56S188.18,197.32,183.46,195.81Z"/><path class="j" d="M179.65,191.73c5.5-2.18,15.41-6.55,18.74-10.32.52-.59-.79-1.13-1.26-.51-.1.09-1.35,2.19-7.9,5.95C186.19,188.6,182.97,190.22,179.65,191.73Z"/><path class="i" d="M59.04,186.18s.61-3.31,2.31-3.96,1.62-3.28,3.11-4.3,11.94,5.81,16.99,8.87.45,3.67-1.29,5.25-1.48,2.73-3.5,3.49S58.16,189.74,59.04,186.18Z"/><path class="h" d="M63.28,182.36c4.05,2.89,11.91,7.96,17.45,8.9.87.15,1.23-.89.34-.99-.13-.04-3.06-.17-9.36-3.23A87.962,87.962,0,0,1,63.28,182.36Z"/><path class="k" d="M83.7,158.36l-.08,7.19L46.72,392.82s59.5-7.68,137.74,3.11L131.78,231.62l6.28-101.7-34.23-.55Z"/><path class="l" d="M90.65,231.16s-6.07,48.75-9.83,60.33-25.83,93.7-25.83,93.7,83.79,6.47,104.82,1.68c0,0,8.25-105.7,3.77-119.38s-25.16-38.76-25.16-38.76Z"/><path class="m" d="M162.48,264.62c-4.85-11.27-16.39-26.17-24.06-35.9l-29.46,1.5-3.58,157.84c12.27.46,42.79,1.46,54.43-1.2,0-.05,3.61-46.51,4.75-81.31C165.61,273.28,164.34,268.95,162.48,264.62Z"/><path class="n" d="M102.18,132.25s12.16-6.29,52.42.8c1.1.19,1.11,31.17,1.11,31.17s-20.45,51.52-17.29,64.51c0,0-21.88,12.43-53.54.8,0,0,5.47-40.63,2.85-49.74s-8.17-17.42.38-26.7A96.362,96.362,0,0,0,102.18,132.25Z"/><path class="o" d="M102.18,132.25s12.16-6.29,52.42.8c1.1.19,1.11,31.17,1.11,31.17s-20.45,51.52-17.29,64.51c0,0-21.88,12.43-53.54.8,0,0,5.47-40.63,2.85-49.74s-8.17-17.42.38-26.7A96.362,96.362,0,0,0,102.18,132.25Z"/><path class="b" d="M138.06,129.93l-16.35,54.31-.16,210.68s22.67,10.35,62.9,1.01c0,0-16.45-126.04-22.95-135.68-4.99-7.39-19.75-29.38-19.63-33.01s19.18-63.49,19.18-63.49L156,133.11Z"/><path class="b" d="M103.83,129.38l3.28.05L85.95,161.12,48.65,392.59l-1.93.23L83.7,158.36Z"/><path class="b" d="M138.06,129.93l-16.35,54.31s21.88-29.32,21.99-32.98-2.13-3.93-2.13-3.93,3.99-13.67,4.07-16.05Z"/><path class="h" d="M145.64,131.27c-.27,2.11-2.93,10.43-4.6,15.98l.44.46c1.62.69,1.56,2.21,1.62,3.55-.93,4-13.61,21.23-21.39,32.98,5.43-6.61,20.52-26.6,22.44-32.25.41-1.01.16-4.02-1.87-4.87a.689.689,0,0,1-.08-.03C143.05,143.89,145.52,134.54,145.64,131.27Z"/><path class="f" d="M138.88,97.31l1.33,29.74s-6.04,6.91-14.27,6.91-10.09-3.19-10.09-3.19l-2.13-37.18Z"/><path class="p" d="M100.85,79.16c1.2,3.97,4.04,6.63,6.35,5.93s3.22-4.48,2.02-8.46-4.04-6.63-6.36-5.93S99.65,75.19,100.85,79.16Z"/><path class="e" d="M141,56.08c2.75,4.3,6.89,12.67,7.2,20.2.42,10.26-4.14,35.77-20.87,35.77-12.52,0-18.97-10.98-21.78-20.63s-2.73-29.61,3.9-36.24S135.49,47.46,141,56.08Z"/><path class="q" d="M139.21,55.34c1.9,2.97,8.27,19.11,8.78,24.36-2.69-7.71-33.07-20.66-24.31-29.72C129.95,49.52,136.5,51.1,139.21,55.34Z"/><path class="q" d="M125.25,46.61s13-4.74,21.31,11.93c5.39,10.82,20.04,57.52,7.82,83.72l-15.16.81s10.6-19.41,9.74-29.3c0,0-5.31,22.4-13.19,25.41l-16.56-2.3s28.59-24.62,26.35-47.44c-1.35-13.78-2.14-24.86-10.66-33.37-5.69-5.69-11.22-6.08-11.22-6.08Z"/><path class="g" d="M119.56,52.11s-11.47,3.65-14.03,15.63.5,31.69,2.99,40.46,1.68,11.65,1.68,11.65l-3.96,3.38-3.67-7.69a66.35,66.35,0,0,0,2.12,10.49c1.46,4.65.11,13.2.11,13.2l-9.42.63c2.48-7.78.02-19.41.02-19.41s-.37,18.48-5.32,20.05l-9.42-7.84a10.913,10.913,0,0,0,8.64-9.69s-5.66,9.25-12.75,8.1l-5.18-6.9s16.16,3.59,20.81-21.51,2.31-39.45,8.75-46.86c9.07-10.43,20.21-7.07,20.21-7.07Z"/><path class="g" d="M95.66,82.61c.18-13.65,2.88-25.53,7.17-30.91,4.18-5.25,15.6-10.09,24.65-5.54C123.89,58.79,108,80.02,95.66,82.61Z"/></g><path class="q" d="M142.63,109.82l1.71,4.19-9.29,23.92a15.447,15.447,0,0,0-15.84-1.05c-5.88,2.94,23.14,11.13,35.17,5.39l-2.49-32.45h-9.26Z"/><path class="g" d="M112.6,108.2s1.56,8.27-2.4,11.65l-3.96,3.38s4.17,14.17-1.45,16-23.27,6.44-33.44-15.06l13.35,1.61,16.48-13.84Z"/></g></svg>