<svg xmlns="http://www.w3.org/2000/svg" width="27.767" height="34.175" viewBox="0 0 27.767 34.175"><defs><style>.a{fill:#2c94c9;}</style></defs><path class="a" d="M68.971,54.123h0a1.354,1.354,0,0,1-1-.44L65.787,51.3a1.359,1.359,0,0,1,2-1.839l1.185,1.292,3.118-3.4a1.357,1.357,0,0,1,2,1.839l-4.116,4.485A1.354,1.354,0,0,1,68.971,54.123Z" transform="translate(-60.744 -41.266)"/><path class="a" d="M155.6,53.782a1.356,1.356,0,0,1-.958-2.31l4.609-4.61a1.356,1.356,0,1,1,1.918,1.918l-4.609,4.61A1.351,1.351,0,0,1,155.6,53.782Z" transform="translate(-138.856 -40.863)"/><path class="a" d="M160.171,53.747a1.351,1.351,0,0,1-.964-.4l-4.6-4.61a1.356,1.356,0,0,1,1.918-1.918l4.609,4.615a1.356,1.356,0,0,1-.958,2.315Z" transform="translate(-138.817 -40.828)"/><path class="a" d="M160.167,131.983h-4.61a1.356,1.356,0,1,1,0-2.713h4.61a1.356,1.356,0,1,1,0,2.713Z" transform="translate(-138.813 -113.685)"/><path class="a" d="M74.494,131.983H69.886a1.356,1.356,0,1,1,0-2.713h4.608a1.356,1.356,0,1,1,0,2.713Z" transform="translate(-63.471 -113.685)"/><path class="a" d="M160.167,176.593h-4.61a1.356,1.356,0,1,1,0-2.713h4.61a1.356,1.356,0,1,1,0,2.713Z" transform="translate(-138.813 -152.917)"/><path class="a" d="M74.494,176.593H69.886a1.356,1.356,0,1,1,0-2.713h4.608a1.356,1.356,0,1,1,0,2.713Z" transform="translate(-63.471 -152.917)"/><path class="a" d="M160.167,221.213h-4.61a1.356,1.356,0,0,1,0-2.713h4.61a1.356,1.356,0,0,1,0,2.713Z" transform="translate(-138.813 -192.158)"/><path class="a" d="M74.494,221.213H69.886a1.356,1.356,0,0,1,0-2.713h4.608a1.356,1.356,0,1,1,0,2.713Z" transform="translate(-63.471 -192.158)"/><path class="a" d="M49.359,0H31.548A4.978,4.978,0,0,0,26.57,4.978V29.2a4.978,4.978,0,0,0,4.978,4.978H49.359A4.978,4.978,0,0,0,54.337,29.2V4.978A4.978,4.978,0,0,0,49.359,0Zm2.265,29.2a2.268,2.268,0,0,1-2.265,2.269H31.548A2.268,2.268,0,0,1,29.283,29.2V4.978a2.268,2.268,0,0,1,2.265-2.265H49.359a2.268,2.268,0,0,1,2.265,2.265Z" transform="translate(-26.57)"/></svg>