<svg xmlns="http://www.w3.org/2000/svg" width="21.512" height="26.456" viewBox="0 0 21.512 26.456"><defs><style>.a{fill:#421e6c;}</style></defs><g transform="translate(-8.813 -7.161)"><g transform="translate(8.813 7.161)"><path class="a" d="M10.468,12.125A1.656,1.656,0,0,0,8.813,13.78V20.4a1.655,1.655,0,0,0,3.31,0V13.779A1.654,1.654,0,0,0,10.468,12.125Z" transform="translate(-8.813 -4.697)"/><path class="a" d="M22.63,12.125a1.656,1.656,0,0,0-1.655,1.655V20.4a1.655,1.655,0,1,0,3.31,0V13.779A1.655,1.655,0,0,0,22.63,12.125Z" transform="translate(-2.774 -4.697)"/><path class="a" d="M11.578,25.087h1.655v4.137a1.655,1.655,0,1,0,3.31,0V25.087h3.309v4.137a1.655,1.655,0,1,0,3.31,0V25.087h1.655V12.677H11.582v12.41Z" transform="translate(-7.44 -4.423)"/><path class="a" d="M22.1,9.254l.85-1.471a.414.414,0,1,0-.718-.413l-.828,1.435a6.6,6.6,0,0,0-6.423,0l-.829-1.435a.415.415,0,0,0-.717.415l.85,1.473a6.6,6.6,0,0,0-2.71,5.334H24.814A6.607,6.607,0,0,0,22.1,9.254Zm-6.389,2.852a.827.827,0,1,1,.826-.828.827.827,0,0,1-.826.828Zm4.963,0a.827.827,0,1,1,.826-.828.827.827,0,0,1-.826.828Z" transform="translate(-7.44 -7.161)"/></g></g></svg>