<svg xmlns="http://www.w3.org/2000/svg" width="27.767" height="34.175" viewBox="0 0 27.767 34.175"><defs><style>.a{fill:#9ecf52;}</style></defs><path class="a" d="M160.167,131.983h-4.61a1.356,1.356,0,1,1,0-2.713h4.61a1.356,1.356,0,1,1,0,2.713Z" transform="translate(-138.813 -113.685)"/><path class="a" d="M82.52,131.983H69.886a1.356,1.356,0,1,1,0-2.713H82.52a1.356,1.356,0,1,1,0,2.713Z" transform="translate(-63.471 -113.685)"/><path class="a" d="M160.167,176.593h-4.61a1.356,1.356,0,1,1,0-2.713h4.61a1.356,1.356,0,1,1,0,2.713Z" transform="translate(-138.813 -152.917)"/><path class="a" d="M82.52,176.593H69.886a1.356,1.356,0,1,1,0-2.713H82.52a1.356,1.356,0,1,1,0,2.713Z" transform="translate(-63.471 -152.917)"/><path class="a" d="M76.142,42.763H69.886a1.356,1.356,0,1,1,0-2.713h6.256a1.356,1.356,0,1,1,0,2.713Z" transform="translate(-63.471 -35.222)"/><path class="a" d="M78.821,87.373H69.886a1.356,1.356,0,0,1,0-2.713h8.935a1.356,1.356,0,1,1,0,2.713Z" transform="translate(-63.471 -74.454)"/><path class="a" d="M160.167,221.213h-4.61a1.356,1.356,0,0,1,0-2.713h4.61a1.356,1.356,0,0,1,0,2.713Z" transform="translate(-138.813 -192.158)"/><path class="a" d="M82.52,221.213H69.886a1.356,1.356,0,0,1,0-2.713H82.52a1.356,1.356,0,0,1,0,2.713Z" transform="translate(-63.471 -192.158)"/><path class="a" d="M173.339,8.851h-6.451a2.268,2.268,0,0,1-2.265-2.265V0H161.91V6.586a4.978,4.978,0,0,0,4.978,4.978h6.473V8.873Z" transform="translate(-145.593)"/><path class="a" d="M54.316,8.851,45.618,0H31.548A4.978,4.978,0,0,0,26.57,4.978V29.2a4.978,4.978,0,0,0,4.978,4.978H49.359A4.978,4.978,0,0,0,54.337,29.2V8.873ZM51.625,29.2a2.268,2.268,0,0,1-2.265,2.269H31.548A2.268,2.268,0,0,1,29.283,29.2V4.978a2.268,2.268,0,0,1,2.265-2.265H44.48L45.6,3.851l4.914,5,1.112,1.131Z" transform="translate(-26.57)"/></svg>