<svg xmlns="http://www.w3.org/2000/svg" width="233.21" height="248" viewBox="0 0 233.21 248"><defs><style>.a{fill:#20bec6;}.b{fill:#210e00;}.c{fill:#754c29;}.d{fill:#584e8c;}.e{fill:#6b60aa;}.f{fill:#8b5e3c;}.g{fill:#c1bbdd;}.h{fill:#414042;}.i{fill:#b5b7b9;}.j{fill:#e21665;}</style></defs><g transform="translate(-1011.499 -526)"><g transform="translate(1011.5 526.006)"><path class="a" d="M205.268,159.169,92.1,224.528,60.947,242.522a40.493,40.493,0,0,1-48.737-6.167,40,40,0,0,1-12.21-29V40.649C0,9.407,33.827-10.133,60.9,5.493L205.216,88.846C232.336,104.472,232.336,143.542,205.268,159.169Z" transform="translate(0 0)"/><path class="b" d="M98.594,87.124a7.785,7.785,0,0,0,2.443-7.971C100,75.83,96.9,74.184,93.79,73.179c-5.518-1.781-8.282,5.518-4.783,8.81a7.692,7.692,0,0,0-1.273,2.495,7.5,7.5,0,0,0,.062,4.348v.062h0A7.775,7.775,0,0,0,85.053,91.4a4.8,4.8,0,0,0-.642,4.089,14.338,14.338,0,0,0-3.106.932,8.934,8.934,0,0,0-3.675,3.551,7.433,7.433,0,0,0,1.387,9.11,6.212,6.212,0,0,0-1.48,1.822,9.815,9.815,0,0,0-.507,2.226c-6.346.445-6.274,10.477.3,10.352,3.106-.072,6.532-.166,8.655-2.681a6.594,6.594,0,0,0,1.532-3.282V117.2a6.812,6.812,0,0,0,2.681-.807,7.309,7.309,0,0,0,3.437-6.211,11.543,11.543,0,0,0-2.246-6.387l.352-.145a6.884,6.884,0,0,0,2.971-2.464,5.29,5.29,0,0,0,.849-4.369,5.684,5.684,0,0,0,3.82-3.779,7.247,7.247,0,0,0-.4-5.031A6.78,6.78,0,0,0,98.594,87.124Z" transform="translate(2.801 2.848)"/><path class="c" d="M103.222,140.132a5.7,5.7,0,0,1-1.035-1.542Q93.9,141.851,85.84,145.5c1.574,3.582,3.106,6.294,4.565,7.744,10.021,10.021,44.826,21.295,56.348,14.421,1.76-1.035,2.93-7.661,2.93-7.661S107.135,144.056,103.222,140.132Z" transform="translate(3.389 5.366)"/><path class="d" d="M94.186,127.5c-5.5-16.564-27.8-22.185-27.8-22.185s15.529,41.348,24.96,58.854c5.363-1.988,9.379-19.514,14.907-21.295C103.058,137.63,98,139.017,94.186,127.5Z" transform="translate(2.585 4.131)"/><path class="e" d="M91.382,220.3,60.324,238.24a40.374,40.374,0,0,1-48.594-6.149c5.321-20.332,18.344-30.467,25.426-53.129,7.547-24.173-5.29-64.454-5.29-73.751S71.2,106.319,71.2,106.319s5.476,2.63,14.017,13.727c9.824,12.775,16.874,19.3,3.882,58.636C86.64,185.878,89.042,204.1,91.382,220.3Z" transform="translate(0.413 4.298)"/><path class="f" d="M134.747,120.133c-2.329-.756-8.468-.756-14.038-.569a26.214,26.214,0,0,0-2.9-1.108c4.762-1.149,10.207-2.692,11.522-4.006,2-2-12.04,1.729-17.268,3.168-6.657.787-10.156,11.885-14.7,16.44-4.741,4.71-39.94,23.034-47.921,24.742-6.491,1.387-10.58-13.758-12.361-20.7-9.99,6.812-13.82,16.709-21.5,25.767C18.862,174.6,24.141,186.5,28.9,189.2c17.144,9.742,59.4-32.89,68.078-41.565a187.741,187.741,0,0,0,16.761-19.959s7.174-2.826,10.125-2.826c2.609,0,2.857-.932,1.781-2.07C131.827,121.81,136.8,120.8,134.747,120.133Z" transform="translate(0.549 4.515)"/><path class="d" d="M49.642,159.239c-8.272-6.491-11.553-18.821-12.485-24.09-1.46-8.2-2.888-32.869-2.888-32.869s-11.791-5.176-21.6,9.752c-7.1,10.756.818,47.621,9.39,70.635C29.786,175.223,39.652,164.787,49.642,159.239Z" transform="translate(0.35 4.033)"/><path class="g" d="M43,152.727C34.96,136.163,32.269,119.734,33.449,102,38.553,127.633,31.5,94.35,43,152.727Z" transform="translate(1.17 3.985)"/><path class="c" d="M108.488,123.77s9.814,2.3,9.814,4.037-10.943-.766-10.943-.766Z" transform="translate(4.126 4.745)"/><path class="b" d="M69.382,67.028C65.4,87.236,49.837,81.656,49.071,98.769a30.705,30.705,0,0,0,5.4,18.489c6.688,9.659,18.044,4.41,18.044,4.41s-8.9-4.234-7.4-6.418c0,0,8.209,8.634,14.059,5.321s7.6-7.05,7.6-7.05-11.388.818-5.6-6.211c4.037-4.9,10.58-9.99,14.845-17.734C99.2,83.8,92.24,72.474,90.2,63.012a237.624,237.624,0,0,0-22.113-16.2C68.668,53.539,70.738,60.289,69.382,67.028Z" transform="translate(1.918 1.856)"/><path class="c" d="M83.8,87.521s-7.185,7.04-8.282,16.471c-.6,5.093-.88,11.605-.072,15.529.839,4.141-.9,7.247-5.073,8a11.181,11.181,0,0,1-8.209-1.335c-4.389-2.712-10.932-7.433-12.1-13.1C49.284,109.313,70.31,72.21,70.31,72.21Z" transform="translate(1.942 2.828)"/><path class="c" d="M83.3,49.9,69.774,34.63S67.3,38.988,64.08,44.879c2.64,6.3,6.553,12.661,12.3,15.943A33.231,33.231,0,0,1,83.3,49.9Z" transform="translate(2.471 1.221)"/><path class="f" d="M86.328,33.72A18.21,18.21,0,0,1,94.776,42.6c2.7,6.336,0,14.752,1.315,20.3s-2.9,34.391-17.775,31.15-18.79-23.521-19.9-28.024,1.543-21.574,8.6-27.009S86.328,33.72,86.328,33.72Z" transform="translate(2.263 1.189)"/><path class="b" d="M110.268,57.56a14.183,14.183,0,0,0,2.4-11.595c-1.139-4.317-5.28-7.526-9.648-6.729-1.2-3.106-2.888-5.787-5.031-7.06a21.222,21.222,0,0,0-12.34-2.65A5.29,5.29,0,0,0,83.8,28.4a3.168,3.168,0,0,1-.414-.466,8.386,8.386,0,0,0-2.205-2.07A6.943,6.943,0,0,0,76,25.136a17.061,17.061,0,0,1-9.11-1.149,4.835,4.835,0,0,0-5.176,1.584,4.141,4.141,0,0,0-5.414-.083,7.174,7.174,0,0,0-2.7,2.888,2.339,2.339,0,0,0-.135.342c-2.008-.176-6.667,1.273-7.392,1.687-4.41,2.474-3.727,6.491-3.717,10.456a15.953,15.953,0,0,0-.5,3.779,7.609,7.609,0,0,1-.89,2.07c-1.532,2.443-3.106,4.648-2.868,7.692.259,3.209,2.743,4.741,3.768,7.5C43,64.931,41.011,66.2,39.054,67.83c-2.433,2.008-3.81,4.058-3.178,7.381a16.926,16.926,0,0,0,1.584,3.882l-1.108.072c-2.878.331-5.29,1.47-6.76,4.069a8.551,8.551,0,0,0-1.035,4.389c.052.445.093.88.145,1.325v.528c-2.164.114-4.213-.383-6.429.5C15.9,92.5,16,100.45,17.366,106.144a14.307,14.307,0,0,0,7.516,9.845v.083c-.062,6.408,1.584,13.986,7.609,16.564a8.851,8.851,0,0,0,9.369-1.035,7.464,7.464,0,0,0,8.282,1.729,9.452,9.452,0,0,0,5.611-5.559,8.385,8.385,0,0,0,6.584-2.257c3.913-3.685,3.81-8.893,2.07-13.665a8.965,8.965,0,0,0,4.141-3.489c1.8-2.847,1.594-5.766.8-8.644a9.317,9.317,0,0,0,2.485-2.381c3.106-4.244.87-7.65-.29-12.019A4.9,4.9,0,0,0,69.811,82.6a5.041,5.041,0,0,0,.756-.9c2.8-4.3-.207-8.7-2.133-12.692l-.124-.2h0a5.249,5.249,0,0,0-1.035-8.137,3.893,3.893,0,0,1-.466-2.65,7.071,7.071,0,0,0,3.271-.756c4.462-2.122,5.849-6.884,5.394-11.388,1.273-.663,2.609-1.2,3.851-1.936A15.384,15.384,0,0,0,85.34,48.4a14.431,14.431,0,0,0,1.553,9.711A10.942,10.942,0,0,0,93.777,63.2c1.315,4.99,4.959,9.193,10.984,7.35a8.717,8.717,0,0,0,5.011-3.613c1.139-.362,1.222-.839.725-1.408a11.294,11.294,0,0,0-.228-7.971Z" transform="translate(0.585 0.838)"/><path class="h" d="M193.478,103.116,136.25,96.19l-35.84,68.295h46.41Z" transform="translate(4.199 3.794)"/><path class="f" d="M146.688,146.7c0-5.932,1.853-11.036-1.729-7.454s-.88,12.081-3.644,13.717S131.252,130.57,127.1,130.57c-3.251,0,2,9.576,3.509,15.7-3.054-4.669-8.033-11.76-10.611-12.589-2.992-.942,4.462,10.87,8.075,16.388-4.027-3.023-10.974-13.1-12.982-11.947-2.64,1.5,5.528,10.932,10,15.394s-11.232-7.247-11.232-2.961,9.4,6.491,12.733,9.824c2.391,2.381,8.572,5.7,11.885,7.4,8.334,4.265,11.936-3.924,9.431-13.282A31.234,31.234,0,0,1,146.688,146.7Z" transform="translate(4.422 5.071)"/><path class="i" d="M134.242,93.19,97.77,163.369l2.733,1.222L136.343,96.3l57.228,6.926-3.489-2.733Z" transform="translate(4.106 3.682)"/></g><path class="j" d="M54.5,55.08l8.6-14.828.494-.854a4.469,4.469,0,0,0,.633-2.245,4.39,4.39,0,0,0-8.054-2.445l-.457.8a1.091,1.091,0,0,1-1.9-1.08l.219-.383a1.034,1.034,0,0,1,.087-.207c.089-.155.188-.3.29-.451L63.632,17.5a4.4,4.4,0,1,0-7.618-4.405l-9.08,15.5-.8,1.378a1.157,1.157,0,0,1-1.548.389,1.09,1.09,0,0,1-.36-1.5L45.1,27.42,57.03,7.584a4.4,4.4,0,0,0-5.5-6.263,4.622,4.622,0,0,0-2.216,2.013L36.359,25.072a1.045,1.045,0,0,1-.25.286.318.318,0,0,1-.035.039,1.013,1.013,0,0,1-.19.093,1.088,1.088,0,0,1-.184.091h-.106a1.057,1.057,0,0,1-.312.023,1.082,1.082,0,0,1-.414-.139,1.065,1.065,0,0,1-.292-.259.4.4,0,0,1-.05-.066.656.656,0,0,1-.058-.074,1.092,1.092,0,0,1-.134-.621.687.687,0,0,1,.012-.091,1.078,1.078,0,0,1,.122-.366l.236-.414L44.486,6.595A4.4,4.4,0,1,0,36.861,2.2l-14.976,26h0a4.4,4.4,0,0,1-7.655.043l-3.366-5.849A7.727,7.727,0,0,0,.329,19.544.679.679,0,0,0,0,20.165l20.019,34.84A19.909,19.909,0,0,0,54.5,55.08Z" transform="translate(1180.484 526.004)"/></g></svg>