<svg xmlns="http://www.w3.org/2000/svg" width="40" height="40" viewBox="0 0 40 40"><defs><style>.a,.b{fill:#57bc72;}.a{opacity:0.1;}</style></defs><g transform="translate(-241 -734)"><circle class="a" cx="20" cy="20" r="20" transform="translate(241 734)"/><g transform="translate(251 744)"><path class="b" d="M157.387,83.153h0A2.153,2.153,0,0,0,155.234,81h0a2.154,2.154,0,0,0-2.154,2.154h0a2.154,2.154,0,0,0,2.154,2.15h0A2.153,2.153,0,0,0,157.387,83.153Z" transform="translate(-142.279 -75.285)"/><path class="b" d="M10,0A10,10,0,1,0,20,10,10,10,0,0,0,10,0Zm6.074,16.074a8.589,8.589,0,1,1,0-12.147,8.589,8.589,0,0,1,0,12.147Z"/><path class="b" d="M53.433,48.318a.794.794,0,0,0,0-1.588,6.711,6.711,0,0,0-6.7,6.7.794.794,0,0,0,1.588,0A5.121,5.121,0,0,1,53.433,48.318Z" transform="translate(-43.433 -43.433)"/><path class="b" d="M92.9,149.07a3.23,3.23,0,1,0,3.23,3.23A3.23,3.23,0,0,0,92.9,149.07Zm0,4.873a1.643,1.643,0,1,1,1.643-1.643A1.643,1.643,0,0,1,92.9,153.943Z" transform="translate(-83.343 -138.552)"/><ellipse class="b" cx="0.79" cy="0.79" rx="0.79" ry="0.79" transform="translate(14.459 11.346)"/></g></g></svg>