<svg xmlns="http://www.w3.org/2000/svg" width="1441" height="833" viewBox="0 0 1441 833"><defs><style>.a{fill:#f4f4f4;stroke:rgba(0,0,0,0);}.b{fill:#e31565;}.b,.c,.d{opacity:0.2;}.c{fill:#f99d3e;}.d{fill:#20bec6;}</style></defs><g transform="translate(0 -1142.5)"><path class="a" d="M0,0H1440V832H0Z" transform="translate(0.5 1143)"/><path class="b" d="M211.433,173.06,33.3,125.46c-33.4-8.911-44.57-50.6-20.1-75.018L63.714,0H234.766l31.65,118.119c7.864,29.35-14.88,56.515-43.17,56.518A45.487,45.487,0,0,1,211.433,173.06Z" transform="translate(575.373 1143)"/><path class="c" d="M155.913,583.408,0,541.745V36.184l7.325-7.315C60.83-24.659,152.377-.186,171.966,72.918L276.472,462.94c17.245,64.36-32.621,123.926-94.657,123.926A99.836,99.836,0,0,1,155.913,583.408Z" transform="translate(0.5 1357.04)"/><path class="d" d="M538.3,723.973,66.337,471.152c-88.4-47.257-88.472-165.637-.086-212.91L537.806,6.033Q544.112,2.66,550.561,0V729.82Q544.376,727.225,538.3,723.973Z" transform="translate(889.939 1178.401)"/></g></svg>