<svg xmlns="http://www.w3.org/2000/svg" width="40" height="40" viewBox="0 0 40 40"><defs><style>.a,.b{fill:#f89d3e;}.a{opacity:0.1;}</style></defs><g transform="translate(-241 -854)"><circle class="a" cx="20" cy="20" r="20" transform="translate(241 854)"/><path class="b" d="M10,0A10,10,0,1,0,20,10,10,10,0,0,0,10,0ZM7.753,10.678a2.207,2.207,0,0,1-.2-.218,1.709,1.709,0,0,1,0-.317,1.28,1.28,0,0,0-.635-1.36,3.694,3.694,0,0,0-1.171-.255c-.26-.03-.553-.064-.9-.125S4.258,7.4,4.3,6.724c.046-.156.469-.494.673-.659a2.32,2.32,0,0,0,.891-1.037l.169-.046c.184-.049.437-.115.756-.222a1.931,1.931,0,0,1,1.533.189.983.983,0,0,0,.972.183v10.09a.409.409,0,0,1-.108-.071,2.514,2.514,0,0,1-.317-.742l-.006-.02c-.071-.219-.155-.437-.234-.648a3.483,3.483,0,0,1-.353-1.4A1.507,1.507,0,0,0,7.753,10.678Zm2.952,1.458a2.187,2.187,0,0,0,0-4.143V4.846a5.2,5.2,0,0,1,0,10.309ZM3.926,3.926A8.528,8.528,0,0,1,9.294,1.44V3.652c-.093.037-.179.066-.246.086a3.3,3.3,0,0,0-2.7-.316c-.274.092-.494.15-.665.2-.463.122-.986.263-1.156.977a4.42,4.42,0,0,1-.423.37A2.6,2.6,0,0,0,2.9,6.612c-.083,1.1.308,2.937,1.708,3.182.387.071.717.106.982.136.222.026.414.048.557.078v.077a2.513,2.513,0,0,0,.052.75,1.9,1.9,0,0,0,.545.826,2.764,2.764,0,0,1,.2.22,3.611,3.611,0,0,0,.367,2.356c.075.2.152.4.218.6l.006.02c.326.972.586,1.573,1.764,1.834v1.864a8.507,8.507,0,0,1-4.54-1.751,1.829,1.829,0,0,0,.2-.667c.013-.141.023-.338.034-.584a12.237,12.237,0,0,1,.166-1.776,2.707,2.707,0,0,0-1.687-3.145,9.843,9.843,0,0,1-2-1.18l-.049.061a8.527,8.527,0,0,1,2.5-5.589Zm-2.435,7.25a10.893,10.893,0,0,0,1.425.754,1.3,1.3,0,0,1,.869,1.543,13.161,13.161,0,0,0-.2,2.017c0,.075-.006.147-.01.212a8.5,8.5,0,0,1-2.087-4.526Zm14.582,4.9a8.523,8.523,0,0,1-5.368,2.486V16.581a6.615,6.615,0,0,0,0-13.155V1.44a8.59,8.59,0,0,1,5.368,14.633Z" transform="translate(251 864)"/></g></svg>