<svg xmlns="http://www.w3.org/2000/svg" width="40" height="40" viewBox="0 0 40 40"><defs><style>.a,.b{fill:#3d7d88;}.a{opacity:0.1;}</style></defs><g transform="translate(-241 -973.5)"><circle class="a" cx="20" cy="20" r="20" transform="translate(241 973.5)"/><g transform="translate(249 983.274)"><path class="b" d="M6.1,101.147A5.826,5.826,0,0,1,.285,95.324V88.95a.928.928,0,1,1,1.855,0v6.374a3.962,3.962,0,1,0,7.921,0V88.95a.928.928,0,1,1,1.855,0v6.374A5.826,5.826,0,0,1,6.1,101.147Z" transform="translate(-0.285 -83.721)"/><path class="b" d="M67.694,51.738a.928.928,0,0,1-.928-.929V42.046a3.962,3.962,0,1,0-7.921,0v5.64a.928.928,0,1,1-1.854,0v-5.64a5.816,5.816,0,1,1,11.631,0v8.764A.928.928,0,0,1,67.694,51.738Z" transform="translate(-52.309 -36.23)"/><path class="b" d="M176.338,106.264a.928.928,0,0,1-.928-.929v-4.081a4.464,4.464,0,1,1,8.928,0v2.352a.928.928,0,1,1-1.855,0v-2.352a2.609,2.609,0,1,0-5.218,0v4.081A.928.928,0,0,1,176.338,106.264Z" transform="translate(-160.953 -91.791)"/></g></g></svg>