<svg xmlns="http://www.w3.org/2000/svg" width="40" height="40" viewBox="0 0 40 40"><defs><style>.a,.b{fill:#f04e30;}.a{opacity:0.1;}</style></defs><g transform="translate(-241 -674)"><circle class="a" cx="20" cy="20" r="20" transform="translate(241 674)"/><g transform="translate(231.492 -9)"><path class="b" d="M36.24,42.632H49.658a.79.79,0,0,0,.789-.79V36.41a.79.79,0,0,0-.79-.79H36.24a.79.79,0,0,0-.79.791v5.433A.79.79,0,0,0,36.24,42.632Zm.622-5.6H49.036v4.188H36.861Z" transform="translate(-13.461 659.893)"/><path class="b" d="M38.627,186.505h-2.69a.8.8,0,1,0,0,1.6h2.69a.8.8,0,1,0,0-1.6Z" transform="translate(-13.149 519.654)"/><path class="b" d="M38.94,223.69H36.25a.8.8,0,0,0-.8.8h0a.8.8,0,0,0,.8.8h2.69a.8.8,0,0,0,.8-.8h0A.8.8,0,0,0,38.94,223.69Z" transform="translate(-13.461 485.093)"/><path class="b" d="M38.94,149.62H36.25a.8.8,0,0,0-.8.8h0a.8.8,0,0,0,.8.8h2.69a.8.8,0,0,0,.8-.8h0a.8.8,0,0,0-.8-.8Z" transform="translate(-13.461 553.937)"/><path class="b" d="M17.375,0H3.169A2.879,2.879,0,0,0,.29,2.879V17.106a2.879,2.879,0,0,0,2.879,2.879H17.375a2.879,2.879,0,0,0,2.879-2.879V2.879A2.879,2.879,0,0,0,17.375,0Zm1.468,17.106a1.47,1.47,0,0,1-1.468,1.468H3.169A1.47,1.47,0,0,1,1.7,17.106V2.879A1.47,1.47,0,0,1,3.169,1.411H17.375a1.47,1.47,0,0,1,1.468,1.468Z" transform="translate(19.218 693)"/><path class="b" d="M114.508,186.505h-2.69a.8.8,0,1,0,0,1.6h2.69a.8.8,0,1,0,0-1.6Z" transform="translate(-83.675 519.654)"/><path class="b" d="M114.82,223.69h-2.69a.8.8,0,0,0-.8.8h0a.8.8,0,0,0,.8.8h2.69a.8.8,0,0,0,.8-.8h0A.8.8,0,0,0,114.82,223.69Z" transform="translate(-83.988 485.093)"/><path class="b" d="M114.82,149.62h-2.69a.8.8,0,0,0-.8.8h0a.8.8,0,0,0,.8.8h2.69a.8.8,0,0,0,.8-.8h0a.8.8,0,0,0-.8-.8Z" transform="translate(-83.987 553.937)"/><path class="b" d="M190.388,186.505H187.7a.8.8,0,1,0,0,1.6h2.69a.8.8,0,1,0,0-1.6Z" transform="translate(-154.201 519.654)"/><path class="b" d="M190.7,223.69h-2.69a.8.8,0,0,0-.8.8h0a.8.8,0,0,0,.8.8h2.69a.8.8,0,0,0,.8-.8h0A.8.8,0,0,0,190.7,223.69Z" transform="translate(-154.514 485.093)"/><path class="b" d="M190.7,149.62h-2.69a.8.8,0,0,0-.8.8h0a.8.8,0,0,0,.8.8h2.69a.8.8,0,0,0,.8-.8h0a.8.8,0,0,0-.8-.8Z" transform="translate(-154.514 553.937)"/></g></g></svg>