<svg xmlns="http://www.w3.org/2000/svg" width="814.227" height="792.125" viewBox="0 0 814.227 792.125"><defs><style>.a{fill:#f89d3e;}.b{fill:#d60052;}</style></defs><g transform="translate(135.184 134.26)"><path class="a" d="M150.5,13.71,507.555,221.467c66.956,38.923,66.956,136.3,0,175.227L150.5,604.45C83.688,643.4,0,594.7,0,516.822V101.338C0,23.434,83.688-25.242,150.5,13.71Z" transform="translate(143.703 657.864) rotate(-120)"/><path class="b" d="M89.942,90.9l14.194-24.471.816-1.41a7.375,7.375,0,0,0,1.045-3.7A7.245,7.245,0,0,0,92.7,57.28l-.755,1.328a1.8,1.8,0,1,1-3.128-1.782l.362-.632a1.706,1.706,0,0,1,.143-.341c.147-.256.311-.5.478-.744l2.38-4.169a7.262,7.262,0,1,0-12.573-7.27l-2.146,3.511-1.328,2.281a1.909,1.909,0,0,1-2.554.642,1.8,1.8,0,0,1-.594-2.475l1.451-2.373,6.146-10.417A7.266,7.266,0,0,0,71.521,24.5a7.628,7.628,0,0,0-3.657,3.322L60.039,41.38a1.724,1.724,0,0,1-.413.471.525.525,0,0,1-.058.065,1.674,1.674,0,0,1-.314.154,1.8,1.8,0,0,1-.3.15h-.174a1.745,1.745,0,0,1-.516.038,1.786,1.786,0,0,1-.683-.229A1.758,1.758,0,0,1,57.1,41.6a.652.652,0,0,1-.082-.109,1.081,1.081,0,0,1-.1-.123,1.8,1.8,0,0,1-.222-1.024,1.135,1.135,0,0,1,.02-.15,1.779,1.779,0,0,1,.2-.6l.389-.683L73.45,10.886A7.262,7.262,0,1,0,60.867,3.633l-24.746,42.9h0a7.256,7.256,0,0,1-12.633.072l-5.555-9.652a12.753,12.753,0,0,0-17.386-4.7A1.12,1.12,0,0,0,0,33.281l33.037,57.5C45.633,112.709,77.247,112.778,89.942,90.9Z" transform="translate(459.504 398.732)"/></g></svg>