<svg xmlns="http://www.w3.org/2000/svg" width="241.829" height="248" viewBox="0 0 241.829 248"><defs><style>.a{fill:#57bc72;}.b{fill:#5bbd72;}.c{fill:#f68f63;}.d{fill:#247949;}.e{fill:#f7ad1a;}.f{fill:#17552f;}.g{fill:#fbbf9c;}.h{fill:#594a42;}.i{fill:#afb1b4;}.j{fill:#421f6c;}.k{fill:#20bec6;}.l{fill:#1ca6ae;}.m{fill:#414042;}.n{fill:#565759;}.o{fill:#abdee2;}</style></defs><g transform="translate(-207.9 -526)"><path class="a" d="M54.5,55.08l8.6-14.828.494-.854a4.469,4.469,0,0,0,.633-2.245,4.39,4.39,0,0,0-8.054-2.445l-.457.8a1.091,1.091,0,0,1-1.9-1.08l.219-.383a1.034,1.034,0,0,1,.087-.207c.089-.155.188-.3.29-.451l1.442-2.526a4.4,4.4,0,1,0-7.618-4.405l-1.3,2.127-.8,1.382a1.157,1.157,0,0,1-1.548.389,1.09,1.09,0,0,1-.36-1.5L45.1,27.42l3.724-6.312a4.4,4.4,0,0,0-5.493-6.263,4.622,4.622,0,0,0-2.216,2.013l-4.742,8.214a1.045,1.045,0,0,1-.25.286.318.318,0,0,1-.035.039,1.014,1.014,0,0,1-.19.093,1.088,1.088,0,0,1-.184.091h-.106a1.057,1.057,0,0,1-.312.023,1.082,1.082,0,0,1-.414-.139,1.065,1.065,0,0,1-.292-.259.4.4,0,0,1-.05-.066.655.655,0,0,1-.058-.074,1.092,1.092,0,0,1-.134-.621.687.687,0,0,1,.012-.091,1.078,1.078,0,0,1,.122-.366l.236-.414L44.5,6.595A4.4,4.4,0,1,0,36.88,2.2l-14.995,26h0a4.4,4.4,0,0,1-7.655.043l-3.366-5.849A7.727,7.727,0,0,0,.329,19.544.679.679,0,0,0,0,20.165l20.019,34.84A19.909,19.909,0,0,0,54.5,55.08Z" transform="translate(385.504 526.004)"/><g transform="translate(0.5 11.418)"><path class="b" d="M205.246,159.153l-75.971,43.863-18.59,10.73L83.161,229.627,60.85,242.5C35.729,257.029,4.716,241.158.487,213.745a41.306,41.306,0,0,1-.487-6.4V40.658C0,9.411,33.832-10.142,60.85,5.507l144.4,83.344C232.3,104.459,232.3,143.534,205.246,159.153Z" transform="translate(207.4 514.585)"/><path class="c" d="M149.32,181.88l-5.51-7.83s-9.77-7.54-16.92-7.16a122.3,122.3,0,0,1-27.83,2.28A55.08,55.08,0,0,0,97.87,183,173.559,173.559,0,0,0,127,176.08s11,.1,13.54,4.93,3.68,8.22,4.16,7.74-1.64-8.22-1.64-8.22,3.08,8.9,4.05,8.9-1.06-7-1.06-7l-2.7-5.12,4.73,5.41s-.19,4.36.68,4.36S149.32,181.88,149.32,181.88Z" transform="translate(209.204 517.188)"/><path class="d" d="M103.79,167.73c-4.63-3.31-10.85-21.78-12.35-25.21-9.52-21.61-22-48.4-31.37-47.24-13.4,1.65-15.85,11.24-12.76,26,1.3,6.2,17.52,38.25,19.57,37.3,9.11,12.7,19.92,24.05,29.28,26.86,6.84,2.06,15.61,2,24.15,1,.57-4.49,1.62-9,1.85-13.47C115.18,172.48,108.41,171,103.79,167.73Z" transform="translate(208.393 516.745)"/><path class="e" d="M173.72,181.88l-5.52-7.83s-9.76-7.54-16.92-7.16c0,0-15,3.2-29.12,2.19-.23,4.71-1.28,9.43-1.85,14.14a171.192,171.192,0,0,0,31.07-7.14s11,.1,13.54,4.93,3.67,8.22,4.15,7.74-1.64-8.22-1.64-8.22,3.08,8.9,4,8.9-1-7-1-7l-2.71-5.12,4.74,5.41s-.19,4.36.68,4.36S173.72,181.88,173.72,181.88Z" transform="translate(209.643 517.188)"/><path class="f" d="M.48,210.76c4.17,27,34.75,42.68,59.56,28.35l22-12.69a181.621,181.621,0,0,1-9.29-15.66,110.8,110.8,0,0,1-4.88-10.58c-3.55-9-5.25-17.68-3.12-24.42,5.27-16.64,9.66-58.67,6.09-71.84C68.24,94.44,59,91.6,48.8,91.47c-6.63-.08-35.27.84-42.3,22.68-2.41,7.47-4.91,20.7-6.5,36.21v49.82Z" transform="translate(207.4 518.048)"/><path class="c" d="M33.05,75.15s-3.14,16.18-1.86,26.69c.31,2.61,2.33,4.88,5.48,6.13,6.31,2.51,17.34,6.15,21.68,3l-4.25-25Z" transform="translate(207.4 515.839)"/><path class="c" d="M32.42,72.65l21.7,14.46,2.74,16c-8.51,1-18.67-9.1-22.28-22.39a35.27,35.27,0,0,0-2.36-6.22C32.34,73.32,32.42,72.65,32.42,72.65Z" transform="translate(207.4 515.76)"/><path class="g" d="M61.09,44a5,5,0,0,1,1.13,1.23c1.9,2.74,4.32,9.2,3.71,17.14-.75,9.68-1.37,30-9.4,31.21s-20.71-6.75-23.9-18.15-9.87-16.3-6.88-25.91S61.09,44,61.09,44Z" transform="translate(207.4 515.355)"/><path class="h" d="M37,61.09s1.74-5.79,4-8.91,1-5.25,1-5.25,10.47.07,14.75,6.19,9.74,15.27,20,9.2,5.56-19.57,3-19.16a9.41,9.41,0,0,1-5.41-1.28S62.5,30.77,57.51,31.55,56,27.32,47.28,27.41s-14,8.35-14,8.35-4.47-3.34-10.2,1.59.35,19.71,3.72,24.7,5.28,13.73,5.28,13.73S40.06,76.13,37,61.09Z" transform="translate(207.4 514.585)"/><path class="g" d="M32,59.25c.38-2.91,4.15-3.83,6.18-1.55,1.68,1.89,2.94,4.35,1.27,6.63-3.33,4.55-7.89.8-7.54-4.14A3.44,3.44,0,0,0,32,59.25Z" transform="translate(207.4 515.418)"/><path class="g" d="M129.77,188.48l-5.51-7.84s-9.77-7.54-16.92-7.15a122.608,122.608,0,0,1-27.83,2.27,55.55,55.55,0,0,0-1.19,13.8,173.809,173.809,0,0,0,29.11-6.88s11,.09,13.54,4.93,3.68,8.22,4.16,7.74-1.64-8.23-1.64-8.23,3.08,8.9,4.05,8.9-1.05-7-1.05-7l-2.71-5.13,4.74,5.42s-.2,4.35.68,4.35S129.77,188.48,129.77,188.48Z" transform="translate(208.843 517.291)"/><rect class="i" width="86.15" height="4.08" transform="translate(311.492 714.148)"/><path class="j" d="M.48,210.75H188.96V200.18H0Z" transform="translate(207.4 518.048)"/><rect class="k" width="93.53" height="79.53" transform="translate(317.95 621.247)"/><rect class="l" width="59.14" height="45.73" transform="translate(339.725 640.328)"/><rect class="m" width="25.77" height="25.78" transform="translate(364.03 649.142)"/><rect class="m" width="9.21" height="45.66" transform="translate(374.676 669.577)"/><rect class="m" width="59.65" height="5.49" transform="translate(331.517 712.095)"/><path class="n" d="M154.16,132.46v25.77h10.68v36.46h-1.08V158.87H153.03V132.46Z" transform="translate(209.689 517.101)"/><path class="o" d="M200.93,104.47H107.4v79.54l3.64-76.59Z" transform="translate(210.55 516.777)"/><path class="d" d="M84.14,175.06c-7.44-.38-14.86-.1-19.76-3.6-4.61-3.3-13.4-23.87-13-24.08C41.73,125.65,30.17,97.83,20.66,99,7.26,100.66,3,112,6.05,126.76c1.49,7.09,13,23.44,21.87,36.45l.16-.08c9,12.37,19.52,23.28,28.66,26,7.37,2.21,17,2,26.11.75a63.8,63.8,0,0,1,1.29-14.82Z" transform="translate(207.4 516.829)"/></g></g></svg>