<svg xmlns="http://www.w3.org/2000/svg" width="238.247" height="248" viewBox="0 0 238.247 248"><defs><style>.a{fill:#f99d3e;}.b{fill:#603913;}.c{fill:#421f6c;}.d{fill:#fff;stroke:#20bec6;stroke-miterlimit:10;stroke-width:0.5px;}.e{fill:#1c0200;}.f{fill:#d8462b;}.g{fill:#f04e30;}</style></defs><g transform="translate(-614.5 -526)"><g transform="translate(614.5 526.008)"><path class="a" d="M205.251,159.146l-111.713,64.5L60.851,242.492A40.567,40.567,0,0,1,0,209.379c0-.669,0-1.349,0-2.028V40.649C0,9.4,33.823-10.142,60.851,5.5l144.4,83.346C232.31,104.461,232.31,143.528,205.251,159.146Z" transform="translate(0 0)"/><path class="b" d="M132.752,103.566c-4.928-.852-6.439-1.085-8.964-2.91-3.417-2.474-2.19-6.763,1.014-11.681,3.448-5.293,3.326-6.51,6.246-6.084,2.474.324,8.274,5.841,9.3,11.671C141.269,99.855,139.454,104.732,132.752,103.566Z" transform="translate(1.729 1.177)"/><rect class="c" width="46.724" height="75.024" rx="4.41" transform="translate(89.547 66.445)"/><rect class="d" width="46.724" height="75.024" rx="4.41" transform="translate(150.288 66.445)"/><rect class="d" width="46.724" height="75.024" rx="4.41" transform="translate(32.914 66.445)"/><path class="b" d="M33.386,94.264c3.377,4.056,4.32,8.953,2.119,10.91s-6.723.243-10.14-3.823-4.32-8.953-2.109-10.91S30.02,90.188,33.386,94.264Z" transform="translate(0.308 1.273)"/><path class="b" d="M72.689,77.507c-6.8-15.717-20.107-24.335-32.447-18.069S23.4,83.561,30.2,99.288a35.185,35.185,0,0,0,9.633,13.07c-.862,5.171-1.551,14.287,2.1,29.75,1.927,8.163,11.671,11.539,19.032,6.753a12.979,12.979,0,0,0,5.81-13.638c-2.332-9.815-2.667-12.168-1.724-18.941C77.252,109.934,79.473,93.163,72.689,77.507Z" transform="translate(0.378 0.821)"/><path class="b" d="M0,188.976c.73-2.941,1.572-5.861,2.312-8.507,2.687-9.531,6.682-25,15.21-43.256a19.025,19.025,0,0,1,7.727-8.994c3.437-1.957,7.747-2.758,13.243-2.758,4.208,0-5.334,20.472-7.392,26.069-1.409,3.853-3.275,9.663-5.942,17.745-1.48,4.522-3.214,9.754-5.263,15.757-.284.842-.578,1.734-.882,2.667,2.494-1.085,5.07-2.292,7.727-3.539,5.07-2.413,10.14-5.07,14.338-7.483-1.916-.7-3.66-1.318-4.938-1.643-3.61-.933-.619-6.53,3.123-8.832,3.346-2.028,7.676-1.318,10.4-.72,2.3.5,4.431,1.379,5.577,6.256.669,2.839.588,5.658-1.014,7.037h0S39.19,193.559,34.1,197.726a54.866,54.866,0,0,1-6.936,4.786h0c-10.6,6.277-23.747,10.14-26.363,5.749v-.1a6.139,6.139,0,0,1-.639-.619Z" transform="translate(0 1.805)"/><path class="e" d="M26.295,93.249c7.3,10.708,14.845,16.883,25.532,15.838,14.368-1.42,24.741-21.456,23.727-35.185C74.54,59.879,67.442,50.835,60.405,54.039S4.849,61.755,26.295,93.249Z" transform="translate(0.292 0.761)"/><path class="e" d="M64.349,55.606c-2.231-7.1-28.564-7.656-44.27-6.52S14.117,74.142,31.142,83.612,64.349,55.606,64.349,55.606Z" transform="translate(0.17 0.692)"/><path class="e" d="M61.351,56.555c0-5.688-18.951-12.381-30.541-15.321s-9.805,16.66.406,27.58S61.351,56.555,61.351,56.555Z" transform="translate(0.319 0.582)"/><path class="e" d="M66.933,55.945c.659-4.867-14.693-13.111-24.2-17.177S32.306,51.687,39.688,62.384,66.933,55.945,66.933,55.945Z" transform="translate(0.495 0.542)"/><path class="b" d="M70.722,88.5c-.629,5.445,1.166,10,4.056,10.14s5.648-4.056,6.277-9.542S79.888,79.1,77,78.96,71.35,83.057,70.722,88.5Z" transform="translate(1.002 1.122)"/><path class="b" d="M136.954,96.3h0a12.746,12.746,0,0,0-4.735-8.69c-3.285-2.332-.679,8.639,1.815,10.556-.882,1.278-1.612,2.9-2.434,3.985-6.743,8.943-10.779,14.622-18.495,20.9a31.666,31.666,0,0,0-2.809,2.565c-3.133.548-6.489,1.541-9.805,2.454-16.477,4.492-25.512,6.337-32.782,6.337l10.677,19.124c13.668-2.586,20.4-3.711,29.405-7.1,2.89-1.085,5.729-2.15,8.254-3.306a14.915,14.915,0,0,0,4.9-2.788,13.4,13.4,0,0,0,1.724-1.511A66.8,66.8,0,0,0,133.821,124.1c3.366-5.77,6.682-23.565,6.682-23.565a3.894,3.894,0,0,0-3.549-4.228Z" transform="translate(0.967 1.245)"/><path class="f" d="M45.429,122.737a12.91,12.91,0,0,0-1.916-.406c-5.141-.679-14.743,1.4-18.931,4.482-5.131,3.762-8.791,9.389-11.417,15.331a63.943,63.943,0,0,0-3.437,9.907c-.335,1.3-1.126,2.8.527,3.123a12.281,12.281,0,0,0,1.612.091l10.495.588,11.448.649c.406,0,5.222.639,5.384.3,0,0,3.884-8.284,5.861-14,1.267-3.66,3.275-7.321,3.235-11.326C48.248,127.118,49.181,123.853,45.429,122.737Z" transform="translate(0.129 1.738)"/><path class="g" d="M98.649,152.431c-2.646,1.4-6.084,2.93-8.832,4.056,1.014,5.709,1.338,1.541,1.409,7.26.2,17.075,1.156,40.032,2.028,58.152l-32.68,18.85a40.022,40.022,0,0,1-34.617,2.829c-.284-16.66.659-28.635.862-40.975.091-5.861,0-11.813-.426-18.383-.314-4.593-.821-9.491-1.582-14.885-.233-1.693-.5-3.427-.791-5.222-1.267-7.787-5.851-18.627-4.958-24.721A19.367,19.367,0,0,1,24.9,128.237a22.308,22.308,0,0,1,15.281-6.206H62.095c5.212-3.143,33.38,3.539,33.38,3.539s7.3-1.724,13.182,9.623S104.175,149.49,98.649,152.431Z" transform="translate(0.265 1.745)"/></g><path class="c" d="M54.5,55.08l8.6-14.828.494-.854a4.469,4.469,0,0,0,.633-2.245,4.39,4.39,0,0,0-8.054-2.445l-.457.8a1.091,1.091,0,0,1-1.9-1.08l.219-.383a1.034,1.034,0,0,1,.087-.207c.089-.155.188-.3.29-.451l1.442-2.526a4.4,4.4,0,1,0-7.618-4.405l-1.3,2.127-.8,1.382a1.157,1.157,0,0,1-1.548.389,1.09,1.09,0,0,1-.36-1.5L45.1,27.42,57.03,7.584a4.4,4.4,0,0,0-5.5-6.263,4.622,4.622,0,0,0-2.216,2.013L36.359,25.072a1.045,1.045,0,0,1-.25.286.318.318,0,0,1-.035.039,1.013,1.013,0,0,1-.19.093,1.088,1.088,0,0,1-.184.091h-.106a1.057,1.057,0,0,1-.312.023,1.082,1.082,0,0,1-.414-.139,1.065,1.065,0,0,1-.292-.259.4.4,0,0,1-.05-.066.656.656,0,0,1-.058-.074,1.092,1.092,0,0,1-.134-.621.687.687,0,0,1,.012-.091,1.078,1.078,0,0,1,.122-.366l.236-.414L44.486,6.595A4.4,4.4,0,1,0,36.861,2.2l-14.976,26h0a4.4,4.4,0,0,1-7.655.043l-3.366-5.849A7.727,7.727,0,0,0,.329,19.544.679.679,0,0,0,0,20.165l20.019,34.84A19.909,19.909,0,0,0,54.5,55.08Z" transform="translate(788.521 526.004)"/></g></svg>