<svg xmlns="http://www.w3.org/2000/svg" width="40" height="40" viewBox="0 0 40 40"><defs><style>.a,.b{fill:#20bec6;}.a{opacity:0.1;}</style></defs><g transform="translate(-241 -794)"><circle class="a" cx="20" cy="20" r="20" transform="translate(241 794)"/><g transform="translate(251 804)"><path class="b" d="M17.375,0H3.169A2.879,2.879,0,0,0,.29,2.879V17.106a2.879,2.879,0,0,0,2.879,2.879H17.375a2.879,2.879,0,0,0,2.879-2.879V2.879A2.879,2.879,0,0,0,17.375,0Zm1.468,2.879v6.4H10.967V1.411h6.408A1.47,1.47,0,0,1,18.844,2.879ZM3.169,1.411H9.556V9.283H1.7v-6.4A1.47,1.47,0,0,1,3.169,1.411ZM1.7,17.106V10.694H9.556v7.88H3.169A1.47,1.47,0,0,1,1.7,17.106Zm15.674,1.468H10.967v-7.88h7.876v6.411a1.47,1.47,0,0,1-1.468,1.468Z" transform="translate(-0.29)"/><path class="b" d="M167.347,66.925h4.008a.8.8,0,1,0,0-1.6h-4.008a.8.8,0,1,0,0,1.6Z" transform="translate(-154.794 -60.716)"/><path class="b" d="M37.462,40.589h1.2v1.2a.8.8,0,0,0,1.605,0v-1.2h1.2a.8.8,0,1,0,0-1.6h-1.2v-1.2a.8.8,0,1,0-1.6,0v1.2h-1.2a.8.8,0,1,0,0,1.6Z" transform="translate(-34.078 -34.38)"/><path class="b" d="M47.746,176.486l.95-.95a.8.8,0,0,0-1.129-1.129l-.953.948-.95-.951a.8.8,0,0,0-1.129,1.129l.948.954-.95.951a.8.8,0,0,0,1.129,1.129l.95-.95.953.95a.8.8,0,0,0,1.129-1.129Z" transform="translate(-41.228 -161.914)"/><path class="b" d="M171.668,176.59H167.66a.8.8,0,0,0,0,1.6h4.008a.8.8,0,1,0,0-1.6Z" transform="translate(-155.107 -164.13)"/><path class="b" d="M171.668,213.77H167.66a.8.8,0,0,0-.8.8h0a.8.8,0,0,0,.8.8h4.008a.8.8,0,0,0,.8-.8h0A.8.8,0,0,0,171.668,213.77Z" transform="translate(-155.107 -198.687)"/></g></g></svg>