<svg xmlns="http://www.w3.org/2000/svg" width="40" height="40" viewBox="0 0 40 40"><defs><style>.a,.b{fill:#6e3694;}.a{opacity:0.1;}</style></defs><g transform="translate(-241 -914)"><circle class="a" cx="20" cy="20" r="20" transform="translate(241 914)"/><g transform="translate(251 924)"><path class="b" d="M113.363,115.517h0a2.154,2.154,0,0,0,2.154-2.154h0a2.153,2.153,0,0,0-2.154-2.153h0a2.153,2.153,0,0,0-2.153,2.153h0a2.153,2.153,0,0,0,2.153,2.154Z" transform="translate(-103.385 -103.363)"/><path class="b" d="M17.991,9.982c2.421-3.68,3.121-7.176,1.189-8.99A3.86,3.86,0,0,0,16.438,0V1.411h0a2.467,2.467,0,0,1,1.775.607,2.317,2.317,0,0,1,.668,1.744,9.028,9.028,0,0,1-1.347,4.253c-.133.241-.277.483-.428.727a29.563,29.563,0,0,0-2.6-2.963,28.519,28.519,0,0,0-2.965-2.589,9.969,9.969,0,0,1,4.9-1.778V0h0A11.869,11.869,0,0,0,10.3,2.311,12.021,12.021,0,0,0,4.137,0V1.416A9.226,9.226,0,0,1,8.376,2.791q.339.19.681.4A29.015,29.015,0,0,0,6.1,5.786,28.66,28.66,0,0,0,3.5,8.765a14.519,14.519,0,0,1-1.264-2.5c-.412-1.087-.947-3.073.092-4.182a2.342,2.342,0,0,1,1.808-.669V0h0A3.732,3.732,0,0,0,1.3,1.119C-.465,3,.223,6.388,2.618,10c-2.4,3.648-3.1,7.088-1.307,8.883A3.932,3.932,0,0,0,4.2,19.994a11.784,11.784,0,0,0,6.117-2.311A12.014,12.014,0,0,0,16.488,20a3.686,3.686,0,0,0,2.707-1.01C21.123,17.061,20.414,13.622,17.991,9.982ZM7.1,6.781a27.153,27.153,0,0,1,3.2-2.752,26.735,26.735,0,0,1,3.209,2.752,27.551,27.551,0,0,1,2.767,3.206A26.782,26.782,0,0,1,13.519,13.2a27.51,27.51,0,0,1-3.207,2.765A26.882,26.882,0,0,1,7.09,13.2,27.229,27.229,0,0,1,4.338,10,26.952,26.952,0,0,1,7.1,6.781Zm-2.9,11.8a2.534,2.534,0,0,1-1.89-.692c-1.035-1.036-.494-3.026-.082-4.121A14.812,14.812,0,0,1,3.5,11.244,29.193,29.193,0,0,0,6.091,14.2,28.787,28.787,0,0,0,9.074,16.8,9.888,9.888,0,0,1,4.2,18.583Zm14-.591a2.291,2.291,0,0,1-1.709.6,9.253,9.253,0,0,1-4.233-1.371c-.234-.13-.468-.269-.706-.415a29.556,29.556,0,0,0,2.963-2.6,28.676,28.676,0,0,0,2.6-2.973A14.318,14.318,0,0,1,18.4,13.754C18.9,15.09,19.277,16.912,18.2,17.992Z" transform="translate(-0.302 0)"/></g></g></svg>